<?xml version="1.0" encoding="UTF-8" standalone="no"?>
<svg
   xmlns:dc="http://purl.org/dc/elements/1.1/"
   xmlns:cc="http://creativecommons.org/ns#"
   xmlns:rdf="http://www.w3.org/1999/02/22-rdf-syntax-ns#"
   xmlns:svg="http://www.w3.org/2000/svg"
   xmlns="http://www.w3.org/2000/svg"
   xmlns:sodipodi="http://sodipodi.sourceforge.net/DTD/sodipodi-0.dtd"
   xmlns:inkscape="http://www.inkscape.org/namespaces/inkscape"
   version="1.1"
   id="Layer_1"
   x="0px"
   y="0px"
   viewBox="0 0 257.31036 363.18979"
   xml:space="preserve"
   sodipodi:docname="day71-designer-tool-essential.svg"
   width="257.31036"
   height="363.18979"
   inkscape:version="1.0.1 (3bc2e813f5, 2020-09-07)"><metadata
   id="metadata304"><rdf:RDF><cc:Work
       rdf:about=""><dc:format>image/svg+xml</dc:format><dc:type
         rdf:resource="http://purl.org/dc/dcmitype/StillImage" /></cc:Work></rdf:RDF></metadata><defs
   id="defs302" /><sodipodi:namedview
   pagecolor="#ffffff"
   bordercolor="#666666"
   borderopacity="1"
   objecttolerance="10"
   gridtolerance="10"
   guidetolerance="10"
   inkscape:pageopacity="0"
   inkscape:pageshadow="2"
   inkscape:window-width="1920"
   inkscape:window-height="1016"
   id="namedview300"
   showgrid="false"
   inkscape:zoom="1.712"
   inkscape:cx="-108.00683"
   inkscape:cy="183.76109"
   inkscape:window-x="0"
   inkscape:window-y="27"
   inkscape:window-maximized="1"
   inkscape:current-layer="XMLID_18_"
   inkscape:document-rotation="0" />
<style
   type="text/css"
   id="style2">
	.st0{fill:#FFB600;}
	.st1{fill:#330E00;}
	.st2{opacity:0.3;}
	.st3{fill:#2D2D2D;stroke:#2D2D2D;stroke-width:8;stroke-linecap:round;stroke-linejoin:round;stroke-miterlimit:10;}
	.st4{fill:#00B3C6;}
	.st5{opacity:0.5;fill:#00B3C6;}
	.st6{opacity:0.35;fill:#00B3C6;}
	.st7{fill:none;stroke:#330E00;stroke-width:8;stroke-linecap:round;stroke-linejoin:round;stroke-miterlimit:10;}
	.st8{fill:#565656;}
	.st9{opacity:0.27;fill:#565656;}
	.st10{fill:#FF1F1F;}
	.st11{fill:#FDD2A7;}
	.st12{opacity:0.5;fill:#FDD2A7;}
	.st13{fill:#3BABFF;}
	.st14{opacity:0.3;fill:#2D2D2D;stroke:#2D2D2D;stroke-width:8;stroke-linecap:round;stroke-linejoin:round;stroke-miterlimit:10;}
	.st15{fill:#FFFFFF;}
	.st16{fill:#C0C0C0;stroke:#C0C0C0;stroke-width:8;stroke-linecap:round;stroke-linejoin:round;stroke-miterlimit:10;}
	.st17{fill:none;stroke:#330E00;stroke-width:4;stroke-linecap:round;stroke-linejoin:round;stroke-miterlimit:10;}
	.st18{fill:none;stroke:#FFFFFF;stroke-width:5;stroke-linecap:round;stroke-miterlimit:10;}
	.st19{fill:none;stroke:#330E00;stroke-width:6;stroke-linecap:round;stroke-linejoin:round;stroke-miterlimit:10;}
	.st20{fill:#8C6239;}
	.st21{fill:#42210B;}
	.st22{fill:#603813;}
	.st23{fill:#BD3F3A;}
	.st24{fill:#A33500;}
	.st25{fill:#6D2300;}
	.st26{fill:#FF9999;}
	.st27{fill:#FF0000;}
	.st28{fill:#FF3333;stroke:#330E00;stroke-width:8;stroke-linecap:round;stroke-linejoin:round;stroke-miterlimit:10;}
	.st29{fill:#BF0000;}
</style>



<g
   id="g297"
   transform="translate(-658.07945,-325.6)">
	<g
   id="XMLID_88_"
   class="st2">
		<path
   id="XMLID_85_"
   class="st3"
   d="m 723,681.4 -48.5,-35.3 c -8,-5.8 -9.8,-17.1 -4,-25.1 L 830.4,400.9 c 5.8,-8 17.1,-9.8 25.1,-4 l 48.5,35.3 c 8,5.8 9.8,17.1 4,25.1 L 748.1,677.4 c -5.8,8 -17.1,9.8 -25.1,4 z" />
		<path
   id="XMLID_86_"
   class="st3"
   d="m 745.1,653.6 h -60 c -9.9,0 -18,-8.1 -18,-18 v -272 c 0,-9.9 8.1,-18 18,-18 h 60 c 9.9,0 18,8.1 18,18 v 272 c 0,10 -8,18 -18,18 z" />
		<path
   id="XMLID_87_"
   class="st3"
   d="M 737.8,668.8 680.1,652.3 C 670.5,649.6 665,639.6 667.8,630 l 75,-261.5 c 2.7,-9.6 12.7,-15.1 22.3,-12.3 l 57.7,16.5 c 9.6,2.7 15.1,12.7 12.3,22.3 l -75,261.5 c -2.8,9.5 -12.7,15 -22.3,12.3 z" />
	</g>
	<g
   id="XMLID_35_">
		<g
   id="XMLID_18_">
			<path
   id="XMLID_52_"
   class="st15"
   d="m 718,665.4 -48.5,-35.3 c -8,-5.8 -9.8,-17.1 -4,-25.1 L 825.4,384.9 c 5.8,-8 17.1,-9.8 25.1,-4 l 48.5,35.3 c 8,5.8 9.8,17.1 4,25.1 L 743.1,661.4 c -5.8,8 -17.1,9.8 -25.1,4 z" />
			<path
   id="XMLID_24_"
   class="st7"
   d="m 718,665.4 -48.5,-35.3 c -8,-5.8 -9.8,-17.1 -4,-25.1 L 825.4,384.9 c 5.8,-8 17.1,-9.8 25.1,-4 l 48.5,35.3 c 8,5.8 9.8,17.1 4,25.1 L 743.1,661.4 c -5.8,8 -17.1,9.8 -25.1,4 z" />
			<path
   id="XMLID_23_"
   class="st7"
   d="M 797.2,586.9 719.5,530.5 825.3,384.9 c 5.8,-8 17.1,-9.8 25.1,-4 l 48.5,35.3 c 8,5.8 9.8,17.1 4,25.1 z" />
			<path
   id="XMLID_62_"
   class="st20"
   d="M 874.8,480.2 797.1,423.8 825.3,385 c 5.8,-8 17.1,-9.8 25.1,-4 l 48.5,35.3 c 8,5.8 9.8,17.1 4,25.1 z"
   style="fill:#93c5fd;fill-opacity:1" />
			<path
   id="XMLID_22_"
   class="st7"
   d="M 874.8,480.2 797.1,423.8 825.3,385 c 5.8,-8 17.1,-9.8 25.1,-4 l 48.5,35.3 c 8,5.8 9.8,17.1 4,25.1 z" />
			
				<rect
   id="XMLID_60_"
   x="729.70001"
   y="499"
   transform="matrix(0.809,0.5878,-0.5878,0.809,461.26,-355.5381)"
   class="st21"
   width="96"
   height="66"
   style="fill:#1e40af;fill-opacity:1" />
			
				<rect
   id="XMLID_61_"
   x="768.5"
   y="445.60001"
   transform="matrix(0.809,0.5878,-0.5878,0.809,437.2841,-388.5381)"
   class="st22"
   width="96"
   height="66"
   style="fill:#2563eb;fill-opacity:1" />
			
				<rect
   id="XMLID_21_"
   x="768.5"
   y="445.60001"
   transform="matrix(0.809,0.5878,-0.5878,0.809,437.2841,-388.5381)"
   class="st7"
   width="96"
   height="66" />
			
				<rect
   id="XMLID_20_"
   x="729.70001"
   y="499"
   transform="matrix(0.809,0.5878,-0.5878,0.809,461.26,-355.5381)"
   class="st7"
   width="96"
   height="66" />
			<circle
   id="XMLID_19_"
   class="st7"
   cx="687.29999"
   cy="614.59998"
   r="8" />
		</g>
		<path
   id="XMLID_112_"
   class="st14"
   d="M 824.7,360.7 767,344.2 c -9.6,-2.7 -19.5,2.8 -22.3,12.3 l -75,261.5 c -2.7,9.6 2.8,19.5 12.3,22.3 l 52.6,-3 c 0.5,0.1 4.9,0.3 5.4,0.4 h 4.8 l 7.7,-0.8 c 8.2,-0.9 15,-6.6 17.2,-14.6 L 837.1,383 c 2.7,-9.6 -2.8,-19.5 -12.4,-22.3 z" />
		<g
   id="XMLID_11_">
			<path
   id="XMLID_53_"
   class="st15"
   d="M 732.8,652.8 675.1,636.3 C 665.5,633.6 660,623.6 662.8,614 l 75,-261.5 c 2.7,-9.6 12.7,-15.1 22.3,-12.3 l 57.7,16.5 c 9.6,2.7 15.1,12.7 12.3,22.3 l -75,261.5 c -2.8,9.5 -12.7,15 -22.3,12.3 z" />
			<path
   id="XMLID_17_"
   class="st7"
   d="M 732.8,652.8 675.1,636.3 C 665.5,633.6 660,623.6 662.8,614 l 75,-261.5 c 2.7,-9.6 12.7,-15.1 22.3,-12.3 l 57.7,16.5 c 9.6,2.7 15.1,12.7 12.3,22.3 l -75,261.5 c -2.8,9.5 -12.7,15 -22.3,12.3 z" />
			<path
   id="XMLID_15_"
   class="st23"
   d="m 816.8,425.1 -92.3,-26.5 13.2,-46.1 c 2.7,-9.6 12.7,-15.1 22.3,-12.3 l 57.7,16.5 c 9.6,2.7 15.1,12.7 12.3,22.3 z"
   style="fill:#a7f3d0;fill-opacity:1" />
			<path
   id="XMLID_16_"
   class="st7"
   d="m 780.4,552 -92.3,-26.5 49.6,-173 c 2.7,-9.6 12.7,-15.1 22.3,-12.3 l 57.7,16.5 c 9.6,2.7 15.1,12.7 12.3,22.3 z" />
			
				<rect
   id="XMLID_64_"
   x="713.59998"
   y="410.60001"
   transform="matrix(0.9613,0.2756,-0.2756,0.9613,151.7833,-192.7368)"
   class="st24"
   width="96"
   height="66"
   style="fill:#10b981;fill-opacity:1" />
			
				<rect
   id="XMLID_14_"
   x="713.59998"
   y="410.60001"
   transform="matrix(0.9613,0.2756,-0.2756,0.9613,151.7833,-192.7368)"
   class="st7"
   width="96"
   height="66" />
			
				<rect
   id="XMLID_63_"
   x="695.40002"
   y="474.10001"
   transform="matrix(0.9613,0.2756,-0.2756,0.9613,168.5659,-185.2647)"
   class="st25"
   width="96"
   height="66"
   style="fill:#065f46;fill-opacity:1" />
			
				<rect
   id="XMLID_13_"
   x="695.40002"
   y="474.10001"
   transform="matrix(0.9613,0.2756,-0.2756,0.9613,168.5659,-185.2647)"
   class="st7"
   width="96"
   height="66" />
			<circle
   id="XMLID_12_"
   class="st7"
   cx="686.59998"
   cy="615.59998"
   r="8" />
		</g>
		<path
   id="XMLID_108_"
   class="st14"
   d="m 748.1,641.6 h -60 c -9.9,0 -18,-8.1 -18,-18 v -272 c 0,-9.9 8.1,-18 18,-18 h 60 c 9.9,0 18,8.1 18,18 v 272 c 0,10 -8,18 -18,18 z" />
		<g
   id="XMLID_9_">
			<path
   id="XMLID_54_"
   class="st15"
   d="m 740.1,637.6 h -60 c -9.9,0 -18,-8.1 -18,-18 v -272 c 0,-9.9 8.1,-18 18,-18 h 60 c 9.9,0 18,8.1 18,18 v 272 c 0,10 -8,18 -18,18 z" />
			<path
   id="XMLID_1_"
   class="st7"
   d="m 740.1,637.6 h -60 c -9.9,0 -18,-8.1 -18,-18 v -272 c 0,-9.9 8.1,-18 18,-18 h 60 c 9.9,0 18,8.1 18,18 v 272 c 0,10 -8,18 -18,18 z" />
			<path
   id="XMLID_4_"
   class="st7"
   d="m 758.1,527.6 h -96 v -180 c 0,-9.9 8.1,-18 18,-18 h 60 c 9.9,0 18,8.1 18,18 z" />
			<path
   id="XMLID_59_"
   class="st26"
   d="m 758.1,395.6 h -96 v -48 c 0,-9.9 8.1,-18 18,-18 h 60 c 9.9,0 18,8.1 18,18 z"
   style="fill:#fecaca;fill-opacity:1" />
			<path
   id="XMLID_5_"
   class="st7"
   d="m 758.1,395.6 h -96 v -48 c 0,-9.9 8.1,-18 18,-18 h 60 c 9.9,0 18,8.1 18,18 z" />
			<rect
   id="XMLID_58_"
   x="662.09998"
   y="395.60001"
   class="st27"
   width="96"
   height="66" />
			<rect
   id="XMLID_7_"
   x="662.09998"
   y="395.60001"
   class="st28"
   width="96"
   height="66"
   style="fill:#ef4444;fill-opacity:1" />
			<rect
   id="XMLID_56_"
   x="662.09998"
   y="461.60001"
   class="st29"
   width="96"
   height="66"
   style="fill:#991b1b;fill-opacity:1" />
			<rect
   id="XMLID_8_"
   x="662.09998"
   y="461.60001"
   class="st7"
   width="96"
   height="66" />
			<circle
   id="XMLID_6_"
   class="st7"
   cx="685.5"
   cy="614.59998"
   r="8" />
			
			
		</g>
	</g>
</g>
</svg>
