<?xml version="1.0" encoding="UTF-8" standalone="no"?>
<svg
   xmlns:dc="http://purl.org/dc/elements/1.1/"
   xmlns:cc="http://creativecommons.org/ns#"
   xmlns:rdf="http://www.w3.org/1999/02/22-rdf-syntax-ns#"
   xmlns:svg="http://www.w3.org/2000/svg"
   xmlns="http://www.w3.org/2000/svg"
   xmlns:sodipodi="http://sodipodi.sourceforge.net/DTD/sodipodi-0.dtd"
   xmlns:inkscape="http://www.inkscape.org/namespaces/inkscape"
   id="e79c079d-1564-4f8d-8abe-3d75200accaa"
   data-name="Layer 1"
   width="570"
   height="666.5"
   viewBox="0 0 570 666.5"
   version="1.1"
   sodipodi:docname="undraw_Resume_folder_re_e0bi.svg"
   inkscape:version="1.0.1 (3bc2e813f5, 2020-09-07)">
  <metadata
     id="metadata79">
    <rdf:RDF>
      <cc:Work
         rdf:about="">
        <dc:format>image/svg+xml</dc:format>
        <dc:type
           rdf:resource="http://purl.org/dc/dcmitype/StillImage" />
      </cc:Work>
    </rdf:RDF>
  </metadata>
  <defs
     id="defs77" />
  <sodipodi:namedview
     pagecolor="#ffffff"
     bordercolor="#666666"
     borderopacity="1"
     objecttolerance="10"
     gridtolerance="10"
     guidetolerance="10"
     inkscape:pageopacity="0"
     inkscape:pageshadow="2"
     inkscape:window-width="1920"
     inkscape:window-height="1016"
     id="namedview75"
     showgrid="false"
     inkscape:zoom="1.2843211"
     inkscape:cx="156.05"
     inkscape:cy="303.63882"
     inkscape:window-x="0"
     inkscape:window-y="27"
     inkscape:window-maximized="1"
     inkscape:current-layer="e79c079d-1564-4f8d-8abe-3d75200accaa" />
  <path
     d="M 388.49995,322 H 201.31 a 17.65489,17.65489 0 0 1 -11.57837,-4.373 L 112.6291,249.625 A 14.47132,14.47132 0 0 0 103.04,246 H 36.5 V 16.5 A 16.51868,16.51868 0 0 1 53,0 h 319 a 16.51867,16.51867 0 0 1 16.5,16.5 z"
     fill="#e6e6e6"
     id="path6" />
  <circle
     cx="112.99995"
     cy="71.5"
     r="35"
     fill="#ffffff"
     id="circle8" />
  <path
     d="m 248.99995,52.75 h -65 a 4.5,4.5 0 0 0 0,9 h 65 a 4.5,4.5 0 0 0 0,-9 z"
     fill="#ffffff"
     id="path10" />
  <path
     d="M 343.35982,81.25 H 183.14009 c -2.01025,0 -3.64014,2.02 -3.64014,4.5 0,2.48 1.62989,4.5 3.64014,4.5 h 160.21973 c 2.01025,0 3.64013,-2.02 3.64013,-4.5 0,-2.48 -1.62988,-4.5 -3.64013,-4.5 z"
     fill="#ffffff"
     id="path12" />
  <path
     d="M 330.77,141.5 H 94.23 c -1.91992,0 -3.48,2.02 -3.48,4.5 0,2.48 1.56006,4.5 3.48,4.5 h 236.54 c 1.91992,0 3.48,-2.02 3.48,-4.5 0,-2.48 -1.56011,-4.5 -3.48,-4.5 z"
     fill="#ffffff"
     id="path14" />
  <path
     d="M 330.77,169.5 H 94.23 c -1.91992,0 -3.48,2.02 -3.48,4.5 0,2.48 1.56006,4.5 3.48,4.5 h 236.54 c 1.91992,0 3.48,-2.02 3.48,-4.5 0,-2.48 -1.56011,-4.5 -3.48,-4.5 z"
     fill="#ffffff"
     id="path16" />
  <path
     d="M 330.77,197.5 H 94.23 c -1.91992,0 -3.48,2.02 -3.48,4.5 0,2.48 1.56006,4.5 3.48,4.5 h 236.54 c 1.91992,0 3.48,-2.02 3.48,-4.5 0,-2.48 -1.56011,-4.5 -3.48,-4.5 z"
     fill="#ffffff"
     id="path18" />
  <path
     d="M 330.77,225.5 H 94.23 c -1.91992,0 -3.48,2.02 -3.48,4.5 0,2.48 1.56006,4.5 3.48,4.5 h 236.54 c 1.91992,0 3.48,-2.02 3.48,-4.5 0,-2.48 -1.56011,-4.5 -3.48,-4.5 z"
     fill="#ffffff"
     id="path20" />
  <path
     d="M 543.5,322 H 201.31 a 17.37609,17.37609 0 0 1 -9.585,-2.86279 l -0.2251,-0.14795 V 85.5 a 16.51868,16.51868 0 0 1 16.5,-16.5 h 319 a 16.51867,16.51867 0 0 1 16.5,16.5 z"
     fill="#6c63ff"
     id="path22" />
  <circle
     cx="267.99994"
     cy="140.5"
     r="35"
     fill="#ffffff"
     id="circle24" />
  <path
     d="m 404,121.75 h -65 a 4.5,4.5 0 0 0 0,9 h 65 a 4.5,4.5 0 0 0 0,-9 z"
     fill="#ffffff"
     id="path26" />
  <path
     d="M 498.35982,150.25 H 338.14009 c -2.01025,0 -3.64014,2.02 -3.64014,4.5 0,2.48 1.62989,4.5 3.64014,4.5 h 160.21973 c 2.01025,0 3.64013,-2.02 3.64013,-4.5 0,-2.48 -1.62988,-4.5 -3.64013,-4.5 z"
     fill="#ffffff"
     id="path28" />
  <path
     d="M 485.77,210.5 H 249.23 c -1.91992,0 -3.48,2.02 -3.48,4.5 0,2.48 1.56006,4.5 3.48,4.5 h 236.54 c 1.91992,0 3.48,-2.02 3.48,-4.5 0,-2.48 -1.56011,-4.5 -3.48,-4.5 z"
     fill="#ffffff"
     id="path30" />
  <path
     d="M 485.77,238.5 H 249.23 c -1.91992,0 -3.48,2.02 -3.48,4.5 0,2.48 1.56006,4.5 3.48,4.5 h 236.54 c 1.91992,0 3.48,-2.02 3.48,-4.5 0,-2.48 -1.56011,-4.5 -3.48,-4.5 z"
     fill="#ffffff"
     id="path32" />
  <path
     d="M 485.77,266.5 H 249.23 c -1.91992,0 -3.48,2.02 -3.48,4.5 0,2.48 1.56006,4.5 3.48,4.5 h 236.54 c 1.91992,0 3.48,-2.02 3.48,-4.5 0,-2.48 -1.56011,-4.5 -3.48,-4.5 z"
     fill="#ffffff"
     id="path34" />
  <path
     d="M 485.77,294.5 H 249.23 c -1.91992,0 -3.48,2.02 -3.48,4.5 0,2.48 1.56006,4.5 3.48,4.5 h 236.54 c 1.91992,0 3.48,-2.02 3.48,-4.5 0,-2.48 -1.56011,-4.5 -3.48,-4.5 z"
     fill="#ffffff"
     id="path36" />
  <path
     d="M 553,319.5 H 201.31 a 14.94463,14.94463 0 0 1 -9.31006,-3.24 c -0.21,-0.16 -0.41015,-0.33 -0.60986,-0.51 l -29.77,-26.25 -47.33985,-41.75 A 16.97377,16.97377 0 0 0 103.04,243.5 H 17 a 17.02411,17.02411 0 0 0 -17,17 v 389 a 17.02411,17.02411 0 0 0 17,17 h 536 a 17.0241,17.0241 0 0 0 17,-17 v -313 a 17.0241,17.0241 0 0 0 -17,-17 z m 15,330 a 15.01828,15.01828 0 0 1 -15,15 H 17 a 15.01828,15.01828 0 0 1 -15,-15 v -389 a 15.01828,15.01828 0 0 1 15,-15 h 86.04 a 14.965,14.965 0 0 1 9.91992,3.75 l 45.64014,40.25 31.45994,27.75 a 17.14841,17.14841 0 0 0 11.25,4.25 H 553 a 15.01828,15.01828 0 0 1 15,15 z"
     fill="#3f3d56"
     id="path38" />
  <path
     d="M 440,597.5 H 146 a 15.017,15.017 0 0 1 -15,-15 v -162 a 15.017,15.017 0 0 1 15,-15 h 294 a 15.017,15.017 0 0 1 15,15 v 162 a 15.017,15.017 0 0 1 -15,15 z m -294,-190 a 13.0149,13.0149 0 0 0 -13,13 v 162 a 13.0149,13.0149 0 0 0 13,13 h 294 a 13.01489,13.01489 0 0 0 13,-13 v -162 a 13.01489,13.01489 0 0 0 -13,-13 z"
     fill="#e6e6e6"
     id="path54" />
  <circle
     cx="193.49995"
     cy="465.5"
     r="35"
     fill="#e6e6e6"
     id="circle56" />
  <path
     d="m 329.49995,446.75 h -65 a 4.5,4.5 0 0 0 0,9 h 65 a 4.5,4.5 0 0 0 0,-9 z"
     fill="#e6e6e6"
     id="path58" />
  <path
     d="M 423.85982,475.25 H 263.64009 c -2.01025,0 -3.64014,2.02 -3.64014,4.5 0,2.48 1.62989,4.5 3.64014,4.5 h 160.21973 c 2.01025,0 3.64013,-2.02 3.64013,-4.5 0,-2.48 -1.62988,-4.5 -3.64013,-4.5 z"
     fill="#e6e6e6"
     id="path60" />
  <path
     d="M 411.27,535.5 H 174.73 c -1.91992,0 -3.48,2.02 -3.48,4.5 0,2.48 1.56006,4.5 3.48,4.5 h 236.54 c 1.91992,0 3.48,-2.02 3.48,-4.5 0,-2.48 -1.56011,-4.5 -3.48,-4.5 z"
     fill="#e6e6e6"
     id="path62" />
  <path
     d="M 411.27,563.5 H 174.73 c -1.91992,0 -3.48,2.02 -3.48,4.5 0,2.48 1.56006,4.5 3.48,4.5 h 236.54 c 1.91992,0 3.48,-2.02 3.48,-4.5 0,-2.48 -1.56011,-4.5 -3.48,-4.5 z"
     fill="#e6e6e6"
     id="path64" />
</svg>
