<?xml version="1.0" encoding="UTF-8" standalone="no"?>
<svg
   xmlns:dc="http://purl.org/dc/elements/1.1/"
   xmlns:cc="http://creativecommons.org/ns#"
   xmlns:rdf="http://www.w3.org/1999/02/22-rdf-syntax-ns#"
   xmlns:svg="http://www.w3.org/2000/svg"
   xmlns="http://www.w3.org/2000/svg"
   xmlns:sodipodi="http://sodipodi.sourceforge.net/DTD/sodipodi-0.dtd"
   xmlns:inkscape="http://www.inkscape.org/namespaces/inkscape"
   id="a0b12775-6e5f-4473-9cb3-a305020561f5"
   data-name="Layer 1"
   width="925.25"
   height="687.32263"
   viewBox="0 0 925.25 687.32263"
   version="1.1"
   sodipodi:docname="undraw_online_cv_qy9w.svg"
   inkscape:version="1.0.1 (3bc2e813f5, 2020-09-07)">
  <metadata
     id="metadata111">
    <rdf:RDF>
      <cc:Work
         rdf:about="">
        <dc:format>image/svg+xml</dc:format>
        <dc:type
           rdf:resource="http://purl.org/dc/dcmitype/StillImage" />
      </cc:Work>
    </rdf:RDF>
  </metadata>
  <defs
     id="defs109" />
  <sodipodi:namedview
     pagecolor="#ffffff"
     bordercolor="#666666"
     borderopacity="1"
     objecttolerance="10"
     gridtolerance="10"
     guidetolerance="10"
     inkscape:pageopacity="0"
     inkscape:pageshadow="2"
     inkscape:window-width="1920"
     inkscape:window-height="1008"
     id="namedview107"
     showgrid="false"
     inkscape:zoom="1.2410475"
     inkscape:cx="433.8996"
     inkscape:cy="343.66132"
     inkscape:window-x="0"
     inkscape:window-y="0"
     inkscape:window-maximized="1"
     inkscape:current-layer="a0b12775-6e5f-4473-9cb3-a305020561f5" />
  <title
     id="title2">online_cv</title>
  <rect
     x="68.940887"
     y="78.329697"
     width="799.80908"
     height="511.7262"
     fill="#3f3d56"
     id="rect4" />
  <rect
     x="493.96072"
     y="126.40731"
     width="360.10364"
     height="418.85739"
     fill="#f2f2f2"
     id="rect6" />
  <rect
     x="607.70227"
     y="171.69835"
     width="218.40315"
     height="8.8065796"
     fill="#ffffff"
     id="rect12" />
  <rect
     x="607.70227"
     y="191.07281"
     width="218.40315"
     height="8.8065796"
     fill="#ffffff"
     id="rect14" />
  <rect
     x="607.70227"
     y="210.4473"
     width="73.975258"
     height="8.8065796"
     fill="#ffffff"
     id="rect16" />
  <rect
     x="159.21777"
     y="474.09021"
     width="218.40315"
     height="8.8065796"
     fill="#ffffff"
     id="rect18" />
  <rect
     x="159.21777"
     y="493.46469"
     width="218.40315"
     height="8.8065796"
     fill="#ffffff"
     id="rect20" />
  <rect
     x="159.21777"
     y="512.83917"
     width="73.975258"
     height="8.8065796"
     fill="#ffffff"
     id="rect22" />
  <rect
     x="556.52966"
     y="279.72943"
     width="218.40315"
     height="8.8065796"
     fill="#ffffff"
     id="rect24" />
  <rect
     x="556.52966"
     y="299.10391"
     width="218.40315"
     height="8.8065796"
     fill="#ffffff"
     id="rect26" />
  <rect
     x="556.52966"
     y="318.05673"
     width="218.40315"
     height="8.8065796"
     fill="#ffffff"
     id="rect28" />
  <rect
     x="556.52966"
     y="337.00955"
     width="218.40315"
     height="8.8065796"
     fill="#ffffff"
     id="rect30" />
  <rect
     x="556.52966"
     y="355.96237"
     width="218.40315"
     height="8.8065796"
     fill="#ffffff"
     id="rect32" />
  <rect
     x="556.52966"
     y="374.91519"
     width="218.40315"
     height="8.8065796"
     fill="#ffffff"
     id="rect34" />
  <rect
     x="556.52966"
     y="393.86804"
     width="218.40315"
     height="8.8065796"
     fill="#ffffff"
     id="rect36" />
  <rect
     x="556.52966"
     y="412.82086"
     width="218.40315"
     height="8.8065796"
     fill="#ffffff"
     id="rect38" />
  <rect
     x="556.52966"
     y="431.77368"
     width="218.40315"
     height="8.8065796"
     fill="#ffffff"
     id="rect40" />
  <rect
     x="556.52966"
     y="450.7265"
     width="218.40315"
     height="8.8065796"
     fill="#ffffff"
     id="rect42" />
  <rect
     x="556.52966"
     y="469.67932"
     width="218.40315"
     height="8.8065796"
     fill="#ffffff"
     id="rect44" />
  <path
     d="m 348.00223,334.06012 a 79.38565,79.38565 0 0 1 -29.538,61.87147 78.46291,78.46291 0 0 1 -10.88838,7.42 76.93847,76.93847 0 0 1 -7.12628,3.57263 78.80279,78.80279 0 0 1 -25.48209,6.45343 q -3.24088,0.27009 -6.54817,0.26531 a 78.642,78.642 0 0 1 -13.02058,-1.07084 c -1.51626,-0.23691 -3.01349,-0.53067 -4.49181,-0.87181 a 76.559,76.559 0 0 1 -7.64747,-2.12271 79.39979,79.39979 0 0 1 -27.927,-16.24258 72.43138,72.43138 0 0 1 -5.92275,-5.8943 79.57554,79.57554 0 1 1 138.59253,-53.3806 z"
     fill="#72246c"
     id="path46" />
  <path
     d="m 580.73244,203.38262 c 0.113,25.4717 -14.99017,34.43149 -33.6679,34.5144 q -0.65078,0.003 -1.29534,-0.009 -1.29857,-0.0222 -2.57035,-0.10691 c -16.86257,-1.11874 -30.00214,-10.40985 -30.10729,-34.09847 -0.10881,-24.51479 31.08548,-55.59106 33.42508,-57.889 l 0.004,-0.002 c 0.0889,-0.0876 0.13437,-0.13136 0.13437,-0.13136 0,0 33.96425,32.25259 34.0773,57.72223 z"
     fill="#72246c"
     id="path48" />
  <path
     d="m 545.81271,234.13889 12.29276,-17.33773 -12.31548,19.23512 -0.0244,1.98457 q -1.29857,-0.0222 -2.57035,-0.10691 l 1.21955,-25.488 -0.0112,-0.19714 0.0226,-0.0375 0.11595,-2.40845 -12.5171,-19.17263 12.5465,17.36864 0.0334,0.5105 0.92128,-19.25719 -10.73063,-19.822 10.84639,16.43792 0.87109,-39.92162 0.004,-0.13286 5.8e-4,0.13076 -0.0347,31.47978 10.53721,-12.52651 -10.57087,15.23766 -0.2037,17.24047 9.82172,-16.58775 -9.8499,19.12244 -0.11313,9.58657 14.25791,-23.09227 -14.29912,26.43658 z"
     fill="#3f3d56"
     id="path50"
     style="fill:#ffffff;fill-opacity:1" />
  <rect
     x="459.84286"
     y="78.329697"
     width="17.057541"
     height="511.7262"
     fill="#2f2e41"
     id="rect54" />
  <path
     d="m 303.00825,70.74857 v -13.267 a 27.4816,27.4816 0 0 0 -54.96319,0 v 13.267 H 195.9248 v 29.37688 H 355.12851 V 70.74857 Z M 275.52666,37.58113 a 16.1099,16.1099 0 1 1 -16.1099,16.1099 16.10989,16.10989 0 0 1 16.1099,-16.1099 z"
     fill="#72246c"
     id="path56" />
  <path
     d="m 282.55067,328.80876 c 0,0 -7.91562,22.529 -3.04447,25.99506 4.87115,3.46606 -16.44012,31.77174 -16.44012,31.77174 l -25.57351,-6.932 14.00454,-23.68439 c 0,0 1.82668,-23.68438 1.82668,-27.15039 0,-3.46601 29.22688,-2e-5 29.22688,-2e-5 z"
     fill="#ffb8b8"
     id="path58" />
  <path
     d="m 282.55067,328.80876 c 0,0 -7.91562,22.529 -3.04447,25.99506 4.87115,3.46606 -16.44012,31.77174 -16.44012,31.77174 l -25.57351,-6.932 14.00454,-23.68439 c 0,0 1.82668,-23.68438 1.82668,-27.15039 0,-3.46601 29.22688,-2e-5 29.22688,-2e-5 z"
     opacity="0.1"
     id="path60" />
  <circle
     cx="266.37595"
     cy="324.76508"
     r="20.796049"
     fill="#ffb8b8"
     id="circle62" />
  <path
     d="m 250.907,411.70032 a 76.559,76.559 0 0 1 -7.64747,-2.12271 l 3.9801,-27.292 1.23192,-8.41506 6.31127,2.36911 c 0.8529,0.31273 1.81951,0.68227 2.92824,1.08975 a 6.65729,6.65729 0 0 0 5.28785,-0.18948 c 6.10275,-2.79556 9.73223,-13.67446 9.73223,-13.67446 0,0 0.2464,3.05138 0.56862,8.216 0.57805,9.06894 1.412,24.66707 1.6678,41.69621 q -3.24088,0.27009 -6.54817,0.26531 a 78.642,78.642 0 0 1 -13.02058,-1.07084 c -1.5163,-0.2369 -3.01353,-0.53066 -4.49181,-0.87183 z"
     fill="#d0cde1"
     id="path64" />
  <path
     d="m 256.55486,360.00654 -1.77208,16.2331 -0.86233,7.85592 -3.01345,27.60476 a 76.559,76.559 0 0 1 -7.64747,-2.12271 79.39979,79.39979 0 0 1 -27.927,-16.24258 l -3.83793,-13.69342 a 16.19547,16.19547 0 0 1 0.24639,-2.43539 0.03484,0.03484 0 0 1 0.009,-0.0285 17.22015,17.22015 0 0 1 0.47382,-2.12271 0.07338,0.07338 0 0 0 0.009,-0.0285 15.73221,15.73221 0 0 1 3.8853,-6.93674 c 4.6245,-4.62444 35.23329,-19.06654 35.23329,-19.06654 l 0.578,1.213 z"
     fill="#d0cde1"
     id="path66" />
  <path
     d="m 265.93293,295.37432 c 4.61024,-0.16481 9.54388,-0.24633 13.43095,2.23806 a 19.66294,19.66294 0 0 1 4.64175,4.54386 c 3.78579,4.78587 7.05688,10.80759 5.65065,16.74554 l -1.63329,-0.637 a 10.69475,10.69475 0 0 0 1.0316,4.58235 c -0.23,-0.66878 -1.00023,0.41235 -0.794,1.08884 l 1.7992,5.90252 a 5.55715,5.55715 0 0 0 -7.087,4.22881 c -0.20562,-6.85584 -0.91684,-14.7173 -6.47827,-18.73166 -2.80462,-2.02443 -6.35411,-2.64244 -9.76922,-3.19123 -3.15051,-0.50627 -6.45328,-0.98906 -9.47094,0.0481 -3.01766,1.03718 -5.58739,4.12338 -4.90328,7.24012 a 3.22511,3.22511 0 0 0 -3.63522,1.79152 9.41008,9.41008 0 0 0 -0.74445,4.30752 c -1.48318,1.04823 -3.1711,-1.03325 -3.77556,-2.74591 -1.41886,-4.02015 -2.68,-8.29951 -1.91567,-12.49362 0.76433,-4.19411 4.182,-8.20222 8.44516,-8.21645 a 2.96018,2.96018 0 0 1 -0.76986,-2.084 l 3.51383,-0.2969 a 3.88355,3.88355 0 0 1 -2.32065,-1.2235 c 1.41071,1.55239 12.5029,-3.01541 14.78427,-3.09699 z"
     fill="#2f2e41"
     id="path68" />
  <path
     d="m 314.32309,375.02663 c -0.54017,4.33072 -3.62949,16.5648 -6.7472,28.325 a 76.93847,76.93847 0 0 1 -7.12628,3.57263 78.80279,78.80279 0 0 1 -25.48209,6.45343 q -3.24088,0.27009 -6.54817,0.26531 a 78.642,78.642 0 0 1 -13.02058,-1.07084 c 1.611,-6.21652 3.78108,-16.46052 5.809,-26.496 0.61594,-3.03247 1.22244,-6.05545 1.79106,-8.93625 2.22693,-11.35278 3.95165,-20.60177 3.95165,-20.60177 0,0 6.91776,-6.78508 11.02107,-8.35814 a 3.55622,3.55622 0 0 1 1.77208,-0.29377 c 3.38309,0.55908 8.00758,8.65191 8.00758,8.65191 0,0 20.75331,6.91783 25.60522,14.77375 a 5.74767,5.74767 0 0 1 0.96666,3.71474 z"
     fill="#d0cde1"
     id="path70" />
  <path
     d="m 226.51469,375.02663 -1.213,25.9275 a 78.77283,78.77283 0 0 1 -9.96921,-7.61907 72.43138,72.43138 0 0 1 -5.92275,-5.8943 c 0.99507,-4.36867 1.82894,-8.04546 2.33121,-10.23451 a 0.03484,0.03484 0 0 1 0.009,-0.0285 c 0.26531,-1.213 0.43588,-1.96162 0.47382,-2.12271 a 0.07338,0.07338 0 0 0 0.009,-0.0284 z"
     fill="#d0cde1"
     id="path72" />
  <path
     d="m 318.46427,395.93159 a 78.46291,78.46291 0 0 1 -10.88838,7.42 76.93847,76.93847 0 0 1 -7.12628,3.57263 l -2.30276,-13.41863 2.31224,-25.41574 12.89738,3.222 0.96662,0.2464 z"
     fill="#d0cde1"
     id="path74" />
</svg>
