<svg xmlns="http://www.w3.org/2000/svg" xmlns:xlink="http://www.w3.org/1999/xlink" width="279.453" height="230.137"><pattern width="69" height="69" x="-154.301" y="518.918" overflow="visible" patternUnits="userSpaceOnUse" viewBox="2.125 -70.896 69 69"><g><path fill="none" d="M71.125-1.896h-69v-69h69z"/><path fill="#F7BC60" d="M71.125-1.896h-69v-69h69z"/><g fill="#FFF"><path d="M61.772-71.653a.247.247 0 01-.026.19c-.053.101-.112.063-.165.128a.638.638 0 00-.079.362c-.169.058-.01.227-.015.35-.002.05-.041.105-.045.161a.764.764 0 00.068.37c.097.198.268.413.435.544.19.148.365.572.608.631.177.042.384-.104.543-.143.18-.043.397.01.571-.053.222-.079.127-.337.288-.45.104-.074.287-.01.406-.051a.607.607 0 00.376-.46c.016-.082.01-.145.039-.221.039-.103.111-.16.09-.293-.01-.062-.052-.12-.064-.187-.022-.114.002-.224 0-.337-.003-.2.017-.379-.078-.55-.38-.688-1.236-.929-1.975-.789-.18.034-.287.126-.442.207-.17.088-.139.166-.318.224-.081.026-.216.124-.215.224.001.115.005.051.012.169-.021.011-.021-.005-.03-.025M54.105-71.653a.247.247 0 01-.026.19c-.053.101-.112.063-.165.128a.638.638 0 00-.079.362c-.169.058-.01.227-.015.35-.002.05-.041.105-.045.161a.764.764 0 00.068.37c.097.198.268.413.435.544.19.148.365.572.608.631.177.042.384-.104.543-.143.18-.043.397.01.571-.053.222-.079.127-.337.288-.45.104-.074.287-.01.406-.051a.607.607 0 00.376-.46c.016-.082.01-.145.039-.221.039-.103.111-.16.09-.293-.01-.062-.052-.12-.064-.187-.022-.114.002-.224 0-.337-.003-.2.017-.379-.078-.55-.38-.688-1.236-.929-1.975-.789-.18.034-.287.126-.442.207-.17.088-.139.166-.318.224-.081.026-.216.124-.215.224.001.115.005.051.012.169-.021.011-.021-.005-.03-.025M46.439-71.653a.247.247 0 01-.026.19c-.053.101-.112.063-.165.128a.638.638 0 00-.079.362c-.169.058-.01.227-.015.35-.002.05-.041.105-.045.161a.764.764 0 00.068.37c.097.198.268.413.435.544.19.148.365.572.608.631.177.042.384-.104.543-.143.18-.043.397.01.571-.053.222-.079.127-.337.288-.45.104-.074.287-.01.406-.051a.607.607 0 00.376-.46c.016-.082.01-.145.039-.221.039-.103.111-.16.09-.293-.01-.062-.052-.12-.064-.187-.022-.114.002-.224 0-.337-.003-.2.017-.379-.078-.55-.38-.688-1.236-.929-1.975-.789-.18.034-.287.126-.442.207-.17.088-.139.166-.318.224-.081.026-.216.124-.215.224.001.115.005.051.012.169-.021.011-.021-.005-.03-.025M38.772-71.653a.247.247 0 01-.026.19c-.053.101-.112.063-.165.128a.638.638 0 00-.079.362c-.169.058-.01.227-.015.35-.002.05-.041.105-.045.161a.764.764 0 00.068.37c.097.198.268.413.435.544.19.148.365.572.608.631.177.042.384-.104.543-.143.18-.043.397.01.571-.053.222-.079.127-.337.288-.45.104-.074.287-.01.406-.051a.607.607 0 00.376-.46c.016-.082.01-.145.039-.221.039-.103.111-.16.09-.293-.01-.062-.052-.12-.064-.187-.022-.114.002-.224 0-.337-.003-.2.017-.379-.078-.55-.38-.688-1.236-.929-1.975-.789-.18.034-.287.126-.442.207-.17.088-.139.166-.318.224-.081.026-.216.124-.215.224.001.115.005.051.012.169-.021.011-.021-.005-.03-.025M31.105-71.653a.247.247 0 01-.026.19c-.053.101-.112.063-.165.128a.638.638 0 00-.079.362c-.169.058-.01.227-.015.35-.002.05-.041.105-.045.161a.764.764 0 00.068.37c.097.198.268.413.435.544.19.148.365.572.608.631.177.042.384-.104.543-.143.18-.043.397.01.571-.053.222-.079.127-.337.288-.45.104-.074.287-.01.406-.051a.607.607 0 00.376-.46c.016-.082.01-.145.039-.221.039-.103.111-.16.09-.293-.01-.062-.052-.12-.064-.187-.022-.114.002-.224 0-.337-.003-.2.017-.379-.078-.55-.38-.688-1.236-.929-1.975-.789-.18.034-.287.126-.442.207-.17.088-.139.166-.318.224-.081.026-.216.124-.215.224.001.115.005.051.012.169-.021.011-.021-.005-.03-.025M23.439-71.653a.247.247 0 01-.026.19c-.053.101-.112.063-.165.128a.638.638 0 00-.079.362c-.169.058-.01.227-.015.35-.002.05-.041.105-.045.161a.764.764 0 00.068.37c.097.198.268.413.435.544.19.148.365.572.608.631.177.042.384-.104.543-.143.18-.043.397.01.571-.053.222-.079.127-.337.288-.45.104-.074.287-.01.406-.051a.607.607 0 00.376-.46c.016-.082.01-.145.039-.221.039-.103.111-.16.09-.293-.01-.062-.052-.12-.064-.187-.022-.114.002-.224 0-.337-.003-.2.017-.379-.078-.55-.38-.688-1.236-.929-1.975-.789-.18.034-.287.126-.442.207-.17.088-.139.166-.318.224-.081.026-.216.124-.215.224.001.115.005.051.012.169-.021.011-.021-.005-.03-.025M15.772-71.653a.247.247 0 01-.026.19c-.053.101-.112.063-.165.128a.638.638 0 00-.079.362c-.169.058-.01.227-.015.35-.002.05-.041.105-.045.161a.764.764 0 00.068.37c.097.198.268.413.435.544.19.148.365.572.608.631.177.042.384-.104.543-.143.18-.043.397.01.571-.053.222-.079.127-.337.288-.45.104-.074.287-.01.406-.051a.607.607 0 00.376-.46c.016-.082.01-.145.039-.221.039-.103.111-.16.09-.293-.01-.062-.052-.12-.064-.187-.022-.114.002-.224 0-.337-.003-.2.017-.379-.078-.55-.38-.688-1.236-.929-1.975-.789-.18.034-.287.126-.442.207-.17.088-.139.166-.318.224-.081.026-.216.124-.215.224.001.115.005.051.012.169-.021.011-.021-.005-.03-.025M8.105-71.653a.247.247 0 01-.026.19c-.053.101-.112.063-.165.128a.638.638 0 00-.079.362c-.169.058-.01.227-.015.35-.002.05-.041.105-.045.161a.764.764 0 00.068.37c.097.198.268.413.435.544.19.148.365.572.608.631.177.042.384-.104.543-.143.18-.043.397.01.571-.053.222-.079.127-.337.288-.45.104-.074.287-.01.406-.051a.607.607 0 00.376-.46c.016-.082.01-.145.039-.221.039-.103.111-.16.09-.293-.01-.062-.052-.12-.064-.187-.022-.114.002-.224 0-.337-.003-.2.017-.379-.078-.55-.38-.688-1.236-.929-1.975-.789-.18.034-.287.126-.442.207-.17.088-.139.166-.318.224-.081.026-.216.124-.215.224.001.115.005.051.012.169-.021.011-.021-.005-.03-.025M.439-71.653a.242.242 0 01-.026.19c-.052.101-.113.063-.165.128a.63.63 0 00-.079.362c-.169.058-.01.227-.015.35-.002.05-.041.105-.045.161a.764.764 0 00.068.37c.097.198.268.413.435.544.19.148.365.572.608.631.177.042.384-.104.543-.143.18-.043.397.01.571-.053.222-.079.127-.337.288-.45.104-.074.287-.01.406-.051.2-.07.339-.263.376-.46.016-.082.01-.145.039-.221.038-.103.111-.16.09-.293-.01-.062-.051-.12-.064-.187-.021-.114.002-.224 0-.337-.003-.2.017-.379-.078-.55-.38-.688-1.236-.929-1.975-.789-.18.034-.287.126-.442.207-.17.088-.139.166-.318.224-.081.026-.215.124-.215.224.002.115.005.051.012.169-.021.011-.021-.005-.03-.025"/></g><g><path fill="#FFF" d="M69.439-71.653a.242.242 0 01-.026.19c-.052.101-.113.063-.165.128a.63.63 0 00-.079.362c-.169.058-.01.227-.015.35-.002.05-.041.105-.045.161a.764.764 0 00.068.37c.097.198.268.413.435.544.19.148.365.572.608.631.177.042.384-.104.543-.143.18-.043.397.01.571-.053.222-.079.127-.337.288-.45.104-.074.287-.01.406-.051.2-.07.339-.263.376-.46.016-.082.01-.145.039-.221.038-.103.111-.16.09-.293-.01-.062-.051-.12-.064-.187-.021-.114.002-.224 0-.337-.003-.2.017-.379-.078-.55-.38-.688-1.236-.929-1.975-.789-.18.034-.287.126-.442.207-.17.088-.139.166-.318.224-.081.026-.215.124-.215.224.002.115.005.051.012.169-.021.011-.021-.005-.03-.025"/></g><path fill="#FFF" d="M.495-71.653a.242.242 0 01-.026.19c-.052.101-.113.063-.165.128a.63.63 0 00-.079.362c-.169.058-.01.227-.015.35-.002.05-.041.105-.045.161a.764.764 0 00.068.37c.097.198.268.413.435.544.19.148.365.572.608.631.177.042.384-.104.543-.143.18-.043.397.01.571-.053.222-.079.127-.337.288-.45.104-.074.287-.01.406-.051.2-.07.339-.263.376-.46.016-.082.01-.145.039-.221.038-.103.111-.16.09-.293-.01-.062-.051-.12-.064-.187-.021-.114.002-.224 0-.337-.003-.2.017-.379-.078-.55-.38-.688-1.236-.929-1.975-.789-.18.034-.287.126-.442.207-.17.088-.139.166-.318.224-.081.026-.215.124-.215.224.003.116.006.052.013.17-.021.011-.021-.005-.03-.025"/><g fill="#FFF"><g><path d="M69.439-64.001a.247.247 0 01-.026.19c-.053.101-.112.063-.165.128a.638.638 0 00-.079.362c-.169.058-.01.227-.015.35-.002.05-.041.105-.045.161a.764.764 0 00.068.37c.097.198.268.413.435.544.19.148.365.572.608.631.177.042.384-.104.543-.143.18-.043.397.01.571-.053.222-.079.127-.337.288-.45.104-.074.287-.01.406-.051a.607.607 0 00.376-.46c.016-.082.01-.145.039-.221.039-.103.111-.16.09-.293-.01-.062-.052-.12-.064-.187-.022-.114.002-.224 0-.337-.003-.2.017-.379-.078-.55-.38-.688-1.236-.929-1.975-.789-.18.034-.287.126-.442.207-.17.088-.139.166-.318.224-.081.026-.216.124-.215.224.001.115.005.051.012.169-.021.011-.021-.005-.03-.025M61.778-64.001a.247.247 0 01-.026.19c-.053.101-.112.063-.165.128a.638.638 0 00-.079.362c-.169.058-.009.227-.015.35-.002.05-.041.105-.045.161a.764.764 0 00.068.37c.097.198.268.413.435.544.19.148.365.572.608.631.177.042.384-.104.543-.143.18-.043.397.01.571-.053.222-.079.127-.337.288-.45.104-.074.287-.01.406-.051a.607.607 0 00.376-.46c.016-.082.01-.145.039-.221.039-.103.111-.16.09-.293-.01-.062-.052-.12-.064-.187-.022-.114.002-.224 0-.337-.003-.2.017-.379-.078-.55-.38-.688-1.236-.929-1.975-.789-.18.034-.287.126-.442.207-.17.088-.139.166-.318.224-.081.026-.216.124-.215.224.001.115.005.051.012.169-.021.011-.021-.005-.03-.025M54.118-64.001a.247.247 0 01-.026.19c-.053.101-.112.063-.165.128a.638.638 0 00-.079.362c-.169.058-.009.227-.015.35-.002.05-.041.105-.045.161a.764.764 0 00.068.37c.097.198.268.413.435.544.19.148.365.572.608.631.177.042.384-.104.543-.143.18-.043.397.01.571-.053.222-.079.127-.337.288-.45.104-.074.287-.01.406-.051a.607.607 0 00.376-.46c.016-.082.01-.145.039-.221.039-.103.111-.16.09-.293-.01-.062-.052-.12-.064-.187-.022-.114.002-.224 0-.337-.003-.2.017-.379-.078-.55-.38-.688-1.236-.929-1.975-.789-.18.034-.287.126-.442.207-.17.088-.139.166-.318.224-.081.026-.216.124-.215.224.001.115.005.051.012.169-.021.011-.021-.005-.03-.025M46.458-64.001a.247.247 0 01-.026.19c-.053.101-.112.063-.165.128a.638.638 0 00-.079.362c-.169.058-.009.227-.015.35-.002.05-.041.105-.045.161a.764.764 0 00.068.37c.097.198.268.413.435.544.19.148.365.572.608.631.177.042.384-.104.543-.143.18-.043.397.01.571-.053.222-.079.127-.337.288-.45.104-.074.287-.01.406-.051a.607.607 0 00.376-.46c.016-.082.01-.145.039-.221.039-.103.111-.16.09-.293-.01-.062-.052-.12-.064-.187-.022-.114.002-.224 0-.337-.003-.2.017-.379-.078-.55-.38-.688-1.236-.929-1.975-.789-.18.034-.287.126-.442.207-.17.088-.139.166-.318.224-.081.026-.216.124-.215.224.001.115.005.051.012.169-.021.011-.021-.005-.03-.025M38.797-64.001a.247.247 0 01-.026.19c-.053.101-.112.063-.165.128a.638.638 0 00-.079.362c-.169.058-.009.227-.015.35-.002.05-.041.105-.045.161a.764.764 0 00.068.37c.097.198.268.413.435.544.19.148.365.572.608.631.177.042.384-.104.543-.143.18-.043.397.01.571-.053.222-.079.127-.337.288-.45.104-.074.287-.01.406-.051a.607.607 0 00.376-.46c.016-.082.01-.145.039-.221.039-.103.111-.16.09-.293-.01-.062-.052-.12-.064-.187-.022-.114.002-.224 0-.337-.003-.2.017-.379-.078-.55-.38-.688-1.236-.929-1.975-.789-.18.034-.287.126-.442.207-.17.088-.139.166-.318.224-.081.026-.216.124-.215.224.001.115.005.051.012.169-.021.011-.021-.005-.03-.025M31.137-64.001a.247.247 0 01-.026.19c-.053.101-.112.063-.165.128a.638.638 0 00-.079.362c-.169.058-.009.227-.015.35-.002.05-.041.105-.045.161a.764.764 0 00.068.37c.097.198.268.413.435.544.19.148.365.572.608.631.177.042.384-.104.543-.143.18-.043.397.01.571-.053.222-.079.127-.337.288-.45.104-.074.287-.01.406-.051a.607.607 0 00.376-.46c.016-.082.01-.145.039-.221.039-.103.111-.16.09-.293-.01-.062-.052-.12-.064-.187-.022-.114.002-.224 0-.337-.003-.2.017-.379-.078-.55-.38-.688-1.236-.929-1.975-.789-.18.034-.287.126-.442.207-.17.088-.139.166-.318.224-.081.026-.216.124-.215.224.001.115.005.051.012.169-.021.011-.021-.005-.03-.025M23.477-64.001a.247.247 0 01-.026.19c-.053.101-.112.063-.165.128a.638.638 0 00-.079.362c-.169.058-.009.227-.015.35-.002.05-.041.105-.045.161a.764.764 0 00.068.37c.097.198.268.413.435.544.19.148.365.572.608.631.177.042.384-.104.543-.143.18-.043.397.01.571-.053.222-.079.127-.337.288-.45.104-.074.287-.01.406-.051a.607.607 0 00.376-.46c.016-.082.01-.145.039-.221.039-.103.111-.16.09-.293-.01-.062-.052-.12-.064-.187-.022-.114.002-.224 0-.337-.003-.2.017-.379-.078-.55-.38-.688-1.236-.929-1.975-.789-.18.034-.287.126-.442.207-.17.088-.139.166-.318.224-.081.026-.216.124-.215.224.001.115.005.051.012.169-.021.011-.021-.005-.03-.025M15.816-64.001a.247.247 0 01-.026.19c-.053.101-.112.063-.165.128a.638.638 0 00-.079.362c-.169.058-.009.227-.015.35-.002.05-.041.105-.045.161a.764.764 0 00.068.37c.097.198.268.413.435.544.19.148.365.572.608.631.177.042.384-.104.543-.143.18-.043.397.01.571-.053.222-.079.127-.337.288-.45.104-.074.287-.01.406-.051a.607.607 0 00.376-.46c.016-.082.01-.145.039-.221.039-.103.111-.16.09-.293-.01-.062-.052-.12-.064-.187-.022-.114.002-.224 0-.337-.003-.2.017-.379-.078-.55-.38-.688-1.236-.929-1.975-.789-.18.034-.287.126-.442.207-.17.088-.139.166-.318.224-.081.026-.216.124-.215.224.001.115.005.051.012.169-.021.011-.021-.005-.03-.025M8.156-64.001a.247.247 0 01-.026.19c-.053.101-.112.063-.165.128a.638.638 0 00-.079.362c-.169.058-.009.227-.015.35-.002.05-.041.105-.045.161a.764.764 0 00.068.37c.097.198.268.413.435.544.19.148.365.572.608.631.177.042.384-.104.543-.143.18-.043.397.01.571-.053.222-.079.127-.337.288-.45.104-.074.287-.01.406-.051a.607.607 0 00.376-.46c.016-.082.01-.145.039-.221.039-.103.111-.16.09-.293-.01-.062-.052-.12-.064-.187-.022-.114.002-.224 0-.337-.003-.2.017-.379-.078-.55-.38-.688-1.236-.929-1.975-.789-.18.034-.287.126-.442.207-.17.088-.139.166-.318.224-.081.026-.216.124-.215.224.001.115.005.051.012.169-.021.011-.021-.005-.03-.025M.495-64.001a.247.247 0 01-.026.19c-.053.101-.112.063-.165.128a.638.638 0 00-.079.362c-.169.058-.01.227-.015.35-.002.05-.041.105-.045.161a.764.764 0 00.068.37c.097.198.268.413.435.544.19.148.365.572.608.631.177.042.384-.104.543-.143.181-.042.398.011.572-.052.222-.079.127-.337.288-.45.104-.074.287-.01.406-.051a.607.607 0 00.376-.46c.016-.082.01-.145.039-.221.039-.103.111-.16.09-.293-.01-.062-.052-.12-.064-.187-.022-.114.002-.224 0-.337-.003-.2.017-.379-.078-.55-.38-.688-1.236-.929-1.975-.789-.18.034-.287.126-.442.207-.17.088-.139.166-.318.224-.081.026-.216.124-.215.224.001.115.005.051.012.169-.021.011-.021-.005-.03-.025"/></g><g><path d="M69.439-56.348a.247.247 0 01-.026.19c-.053.101-.112.063-.165.128a.638.638 0 00-.079.362c-.169.058-.01.227-.015.35-.002.05-.041.105-.045.161a.764.764 0 00.068.37c.097.198.268.413.435.544.19.148.365.572.608.631.177.042.384-.104.543-.143.18-.043.397.01.571-.053.222-.079.127-.337.288-.45.104-.074.287-.01.406-.051a.607.607 0 00.376-.46c.016-.082.01-.145.039-.221.039-.103.111-.16.09-.293-.01-.062-.052-.12-.064-.187-.022-.114.002-.224 0-.337-.003-.2.017-.379-.078-.55-.38-.688-1.236-.929-1.975-.789-.18.034-.287.126-.442.207-.17.088-.139.166-.318.224-.081.026-.216.124-.215.224.001.115.005.051.012.169-.021.011-.021-.005-.03-.025M61.778-56.348a.247.247 0 01-.026.19c-.053.101-.112.063-.165.128a.638.638 0 00-.079.362c-.169.058-.009.227-.015.35-.002.05-.041.105-.045.161a.764.764 0 00.068.37c.097.198.268.413.435.544.19.148.365.572.608.631.177.042.384-.104.543-.143.18-.043.397.01.571-.053.222-.079.127-.337.288-.45.104-.074.287-.01.406-.051a.607.607 0 00.376-.46c.016-.082.01-.145.039-.221.039-.103.111-.16.09-.293-.01-.062-.052-.12-.064-.187-.022-.114.002-.224 0-.337-.003-.2.017-.379-.078-.55-.38-.688-1.236-.929-1.975-.789-.18.034-.287.126-.442.207-.17.088-.139.166-.318.224-.081.026-.216.124-.215.224.001.115.005.051.012.169-.021.011-.021-.005-.03-.025M54.118-56.348a.247.247 0 01-.026.19c-.053.101-.112.063-.165.128a.638.638 0 00-.079.362c-.169.058-.009.227-.015.35-.002.05-.041.105-.045.161a.764.764 0 00.068.37c.097.198.268.413.435.544.19.148.365.572.608.631.177.042.384-.104.543-.143.18-.043.397.01.571-.053.222-.079.127-.337.288-.45.104-.074.287-.01.406-.051a.607.607 0 00.376-.46c.016-.082.01-.145.039-.221.039-.103.111-.16.09-.293-.01-.062-.052-.12-.064-.187-.022-.114.002-.224 0-.337-.003-.2.017-.379-.078-.55-.38-.688-1.236-.929-1.975-.789-.18.034-.287.126-.442.207-.17.088-.139.166-.318.224-.081.026-.216.124-.215.224.001.115.005.051.012.169-.021.011-.021-.005-.03-.025M46.458-56.348a.247.247 0 01-.026.19c-.053.101-.112.063-.165.128a.638.638 0 00-.079.362c-.169.058-.009.227-.015.35-.002.05-.041.105-.045.161a.764.764 0 00.068.37c.097.198.268.413.435.544.19.148.365.572.608.631.177.042.384-.104.543-.143.18-.043.397.01.571-.053.222-.079.127-.337.288-.45.104-.074.287-.01.406-.051a.607.607 0 00.376-.46c.016-.082.01-.145.039-.221.039-.103.111-.16.09-.293-.01-.062-.052-.12-.064-.187-.022-.114.002-.224 0-.337-.003-.2.017-.379-.078-.55-.38-.688-1.236-.929-1.975-.789-.18.034-.287.126-.442.207-.17.088-.139.166-.318.224-.081.026-.216.124-.215.224.001.115.005.051.012.169-.021.011-.021-.005-.03-.025M38.797-56.348a.247.247 0 01-.026.19c-.053.101-.112.063-.165.128a.638.638 0 00-.079.362c-.169.058-.009.227-.015.35-.002.05-.041.105-.045.161a.764.764 0 00.068.37c.097.198.268.413.435.544.19.148.365.572.608.631.177.042.384-.104.543-.143.18-.043.397.01.571-.053.222-.079.127-.337.288-.45.104-.074.287-.01.406-.051a.607.607 0 00.376-.46c.016-.082.01-.145.039-.221.039-.103.111-.16.09-.293-.01-.062-.052-.12-.064-.187-.022-.114.002-.224 0-.337-.003-.2.017-.379-.078-.55-.38-.688-1.236-.929-1.975-.789-.18.034-.287.126-.442.207-.17.088-.139.166-.318.224-.081.026-.216.124-.215.224.001.115.005.051.012.169-.021.011-.021-.005-.03-.025M31.137-56.348a.247.247 0 01-.026.19c-.053.101-.112.063-.165.128a.638.638 0 00-.079.362c-.169.058-.009.227-.015.35-.002.05-.041.105-.045.161a.764.764 0 00.068.37c.097.198.268.413.435.544.19.148.365.572.608.631.177.042.384-.104.543-.143.18-.043.397.01.571-.053.222-.079.127-.337.288-.45.104-.074.287-.01.406-.051a.607.607 0 00.376-.46c.016-.082.01-.145.039-.221.039-.103.111-.16.09-.293-.01-.062-.052-.12-.064-.187-.022-.114.002-.224 0-.337-.003-.2.017-.379-.078-.55-.38-.688-1.236-.929-1.975-.789-.18.034-.287.126-.442.207-.17.088-.139.166-.318.224-.081.026-.216.124-.215.224.001.115.005.051.012.169-.021.011-.021-.005-.03-.025M23.477-56.348a.247.247 0 01-.026.19c-.053.101-.112.063-.165.128a.638.638 0 00-.079.362c-.169.058-.009.227-.015.35-.002.05-.041.105-.045.161a.764.764 0 00.068.37c.097.198.268.413.435.544.19.148.365.572.608.631.177.042.384-.104.543-.143.18-.043.397.01.571-.053.222-.079.127-.337.288-.45.104-.074.287-.01.406-.051a.607.607 0 00.376-.46c.016-.082.01-.145.039-.221.039-.103.111-.16.09-.293-.01-.062-.052-.12-.064-.187-.022-.114.002-.224 0-.337-.003-.2.017-.379-.078-.55-.38-.688-1.236-.929-1.975-.789-.18.034-.287.126-.442.207-.17.088-.139.166-.318.224-.081.026-.216.124-.215.224.001.115.005.051.012.169-.021.011-.021-.005-.03-.025M15.816-56.348a.247.247 0 01-.026.19c-.053.101-.112.063-.165.128a.638.638 0 00-.079.362c-.169.058-.009.227-.015.35-.002.05-.041.105-.045.161a.764.764 0 00.068.37c.097.198.268.413.435.544.19.148.365.572.608.631.177.042.384-.104.543-.143.18-.043.397.01.571-.053.222-.079.127-.337.288-.45.104-.074.287-.01.406-.051a.607.607 0 00.376-.46c.016-.082.01-.145.039-.221.039-.103.111-.16.09-.293-.01-.062-.052-.12-.064-.187-.022-.114.002-.224 0-.337-.003-.2.017-.379-.078-.55-.38-.688-1.236-.929-1.975-.789-.18.034-.287.126-.442.207-.17.088-.139.166-.318.224-.081.026-.216.124-.215.224.001.115.005.051.012.169-.021.011-.021-.005-.03-.025M8.156-56.348a.247.247 0 01-.026.19c-.053.101-.112.063-.165.128a.638.638 0 00-.079.362c-.169.058-.009.227-.015.35-.002.05-.041.105-.045.161a.764.764 0 00.068.37c.097.198.268.413.435.544.19.148.365.572.608.631.177.042.384-.104.543-.143.18-.043.397.01.571-.053.222-.079.127-.337.288-.45.104-.074.287-.01.406-.051a.607.607 0 00.376-.46c.016-.082.01-.145.039-.221.039-.103.111-.16.09-.293-.01-.062-.052-.12-.064-.187-.022-.114.002-.224 0-.337-.003-.2.017-.379-.078-.55-.38-.688-1.236-.929-1.975-.789-.18.034-.287.126-.442.207-.17.088-.139.166-.318.224-.081.026-.216.124-.215.224.001.115.005.051.012.169-.021.011-.021-.005-.03-.025M.495-56.348a.247.247 0 01-.026.19c-.053.101-.112.063-.165.128a.638.638 0 00-.079.362c-.169.058-.01.227-.015.35-.002.05-.041.105-.045.161a.764.764 0 00.068.37c.097.198.268.413.435.544.19.148.365.572.608.631.177.042.384-.104.543-.143.18-.043.397.01.571-.053.222-.079.127-.337.288-.45.104-.074.287-.01.406-.051a.607.607 0 00.376-.46c.016-.082.01-.145.039-.221.039-.103.111-.16.09-.293-.01-.062-.052-.12-.064-.187-.022-.114.002-.224 0-.337-.003-.2.017-.379-.078-.55-.38-.688-1.236-.929-1.975-.789-.18.034-.287.126-.442.207-.17.088-.139.166-.318.224-.081.026-.216.124-.215.224.003.117.006.053.013.171-.021.011-.021-.005-.03-.025"/></g><g><path d="M69.439-48.695a.247.247 0 01-.026.19c-.053.101-.112.063-.165.128a.638.638 0 00-.079.362c-.169.058-.01.227-.015.35-.002.05-.041.105-.045.161a.764.764 0 00.068.37c.097.198.268.413.435.544.19.148.365.572.608.631.177.042.384-.104.543-.143.18-.043.397.01.571-.053.222-.079.127-.337.288-.45.104-.074.287-.01.406-.051a.607.607 0 00.376-.46c.016-.082.01-.145.039-.221.039-.103.111-.16.09-.293-.01-.062-.052-.12-.064-.187-.022-.114.002-.224 0-.337-.003-.2.017-.379-.078-.55-.38-.688-1.236-.929-1.975-.789-.18.034-.287.126-.442.207-.17.088-.139.166-.318.224-.081.026-.216.124-.215.224.001.115.005.051.012.169-.021.011-.021-.005-.03-.025M61.778-48.695a.247.247 0 01-.026.19c-.053.101-.112.063-.165.128a.638.638 0 00-.079.362c-.169.058-.009.227-.015.35-.002.05-.041.105-.045.161a.764.764 0 00.068.37c.097.198.268.413.435.544.19.148.365.572.608.631.177.042.384-.104.543-.143.18-.043.397.01.571-.053.222-.079.127-.337.288-.45.104-.074.287-.01.406-.051a.607.607 0 00.376-.46c.016-.082.01-.145.039-.221.039-.103.111-.16.09-.293-.01-.062-.052-.12-.064-.187-.022-.114.002-.224 0-.337-.003-.2.017-.379-.078-.55-.38-.688-1.236-.929-1.975-.789-.18.034-.287.126-.442.207-.17.088-.139.166-.318.224-.081.026-.216.124-.215.224.001.115.005.051.012.169-.021.011-.021-.005-.03-.025M54.118-48.695a.247.247 0 01-.026.19c-.053.101-.112.063-.165.128a.638.638 0 00-.079.362c-.169.058-.009.227-.015.35-.002.05-.041.105-.045.161a.764.764 0 00.068.37c.097.198.268.413.435.544.19.148.365.572.608.631.177.042.384-.104.543-.143.18-.043.397.01.571-.053.222-.079.127-.337.288-.45.104-.074.287-.01.406-.051a.607.607 0 00.376-.46c.016-.082.01-.145.039-.221.039-.103.111-.16.09-.293-.01-.062-.052-.12-.064-.187-.022-.114.002-.224 0-.337-.003-.2.017-.379-.078-.55-.38-.688-1.236-.929-1.975-.789-.18.034-.287.126-.442.207-.17.088-.139.166-.318.224-.081.026-.216.124-.215.224.001.115.005.051.012.169-.021.011-.021-.005-.03-.025M46.458-48.695a.247.247 0 01-.026.19c-.053.101-.112.063-.165.128a.638.638 0 00-.079.362c-.169.058-.009.227-.015.35-.002.05-.041.105-.045.161a.764.764 0 00.068.37c.097.198.268.413.435.544.19.148.365.572.608.631.177.042.384-.104.543-.143.18-.043.397.01.571-.053.222-.079.127-.337.288-.45.104-.074.287-.01.406-.051a.607.607 0 00.376-.46c.016-.082.01-.145.039-.221.039-.103.111-.16.09-.293-.01-.062-.052-.12-.064-.187-.022-.114.002-.224 0-.337-.003-.2.017-.379-.078-.55-.38-.688-1.236-.929-1.975-.789-.18.034-.287.126-.442.207-.17.088-.139.166-.318.224-.081.026-.216.124-.215.224.001.115.005.051.012.169-.021.011-.021-.005-.03-.025M38.797-48.695a.247.247 0 01-.026.19c-.053.101-.112.063-.165.128a.638.638 0 00-.079.362c-.169.058-.009.227-.015.35-.002.05-.041.105-.045.161a.764.764 0 00.068.37c.097.198.268.413.435.544.19.148.365.572.608.631.177.042.384-.104.543-.143.18-.043.397.01.571-.053.222-.079.127-.337.288-.45.104-.074.287-.01.406-.051a.607.607 0 00.376-.46c.016-.082.01-.145.039-.221.039-.103.111-.16.09-.293-.01-.062-.052-.12-.064-.187-.022-.114.002-.224 0-.337-.003-.2.017-.379-.078-.55-.38-.688-1.236-.929-1.975-.789-.18.034-.287.126-.442.207-.17.088-.139.166-.318.224-.081.026-.216.124-.215.224.001.115.005.051.012.169-.021.011-.021-.005-.03-.025M31.137-48.695a.247.247 0 01-.026.19c-.053.101-.112.063-.165.128a.638.638 0 00-.079.362c-.169.058-.009.227-.015.35-.002.05-.041.105-.045.161a.764.764 0 00.068.37c.097.198.268.413.435.544.19.148.365.572.608.631.177.042.384-.104.543-.143.18-.043.397.01.571-.053.222-.079.127-.337.288-.45.104-.074.287-.01.406-.051a.607.607 0 00.376-.46c.016-.082.01-.145.039-.221.039-.103.111-.16.09-.293-.01-.062-.052-.12-.064-.187-.022-.114.002-.224 0-.337-.003-.2.017-.379-.078-.55-.38-.688-1.236-.929-1.975-.789-.18.034-.287.126-.442.207-.17.088-.139.166-.318.224-.081.026-.216.124-.215.224.001.115.005.051.012.169-.021.011-.021-.005-.03-.025M23.477-48.695a.247.247 0 01-.026.19c-.053.101-.112.063-.165.128a.638.638 0 00-.079.362c-.169.058-.009.227-.015.35-.002.05-.041.105-.045.161a.764.764 0 00.068.37c.097.198.268.413.435.544.19.148.365.572.608.631.177.042.384-.104.543-.143.18-.043.397.01.571-.053.222-.079.127-.337.288-.45.104-.074.287-.01.406-.051a.607.607 0 00.376-.46c.016-.082.01-.145.039-.221.039-.103.111-.16.09-.293-.01-.062-.052-.12-.064-.187-.022-.114.002-.224 0-.337-.003-.2.017-.379-.078-.55-.38-.688-1.236-.929-1.975-.789-.18.034-.287.126-.442.207-.17.088-.139.166-.318.224-.081.026-.216.124-.215.224.001.115.005.051.012.169-.021.011-.021-.005-.03-.025M15.816-48.695a.247.247 0 01-.026.19c-.053.101-.112.063-.165.128a.638.638 0 00-.079.362c-.169.058-.009.227-.015.35-.002.05-.041.105-.045.161a.764.764 0 00.068.37c.097.198.268.413.435.544.19.148.365.572.608.631.177.042.384-.104.543-.143.18-.043.397.01.571-.053.222-.079.127-.337.288-.45.104-.074.287-.01.406-.051a.607.607 0 00.376-.46c.016-.082.01-.145.039-.221.039-.103.111-.16.09-.293-.01-.062-.052-.12-.064-.187-.022-.114.002-.224 0-.337-.003-.2.017-.379-.078-.55-.38-.688-1.236-.929-1.975-.789-.18.034-.287.126-.442.207-.17.088-.139.166-.318.224-.081.026-.216.124-.215.224.001.115.005.051.012.169-.021.011-.021-.005-.03-.025M8.156-48.695a.247.247 0 01-.026.19c-.053.101-.112.063-.165.128a.638.638 0 00-.079.362c-.169.058-.009.227-.015.35-.002.05-.041.105-.045.161a.764.764 0 00.068.37c.097.198.268.413.435.544.19.148.365.572.608.631.177.042.384-.104.543-.143.18-.043.397.01.571-.053.222-.079.127-.337.288-.45.104-.074.287-.01.406-.051a.607.607 0 00.376-.46c.016-.082.01-.145.039-.221.039-.103.111-.16.09-.293-.01-.062-.052-.12-.064-.187-.022-.114.002-.224 0-.337-.003-.2.017-.379-.078-.55-.38-.688-1.236-.929-1.975-.789-.18.034-.287.126-.442.207-.17.088-.139.166-.318.224-.081.026-.216.124-.215.224.001.115.005.051.012.169-.021.011-.021-.005-.03-.025M.495-48.695a.247.247 0 01-.026.19c-.053.101-.112.063-.165.128a.638.638 0 00-.079.362c-.169.058-.01.227-.015.35-.002.05-.041.105-.045.161a.764.764 0 00.068.37c.097.198.268.413.435.544.19.148.365.572.608.631.177.042.384-.104.543-.143.18-.043.397.01.571-.053.222-.079.127-.337.288-.45.104-.074.287-.01.406-.051a.607.607 0 00.376-.46c.016-.082.01-.145.039-.221.039-.103.111-.16.09-.293-.01-.062-.052-.12-.064-.187-.022-.114.002-.224 0-.337-.003-.2.017-.379-.078-.55-.38-.688-1.236-.929-1.975-.789-.18.034-.287.126-.442.207-.17.088-.139.166-.318.224-.081.026-.216.124-.215.224.001.115.005.051.012.169-.021.011-.021-.005-.03-.025"/></g><g><path d="M69.439-41.042a.247.247 0 01-.026.19c-.053.101-.112.063-.165.128a.638.638 0 00-.079.362c-.169.058-.01.227-.015.35-.002.05-.041.105-.045.161a.764.764 0 00.068.37c.097.198.268.413.435.544.19.148.365.572.608.631.177.042.384-.104.543-.143.18-.043.397.01.571-.053.222-.079.127-.337.288-.45.104-.074.287-.01.406-.051a.607.607 0 00.376-.46c.016-.082.01-.145.039-.221.039-.103.111-.16.09-.293-.01-.062-.052-.12-.064-.187-.022-.114.002-.224 0-.337-.003-.2.017-.379-.078-.55-.38-.688-1.236-.929-1.975-.789-.18.034-.287.126-.442.207-.17.088-.139.166-.318.224-.081.026-.216.124-.215.224.001.115.005.051.012.169-.021.011-.021-.005-.03-.025M61.778-41.042a.247.247 0 01-.026.19c-.053.101-.112.063-.165.128a.638.638 0 00-.079.362c-.169.058-.009.227-.015.35-.002.05-.041.105-.045.161a.764.764 0 00.068.37c.097.198.268.413.435.544.19.148.365.572.608.631.177.042.384-.104.543-.143.18-.043.397.01.571-.053.222-.079.127-.337.288-.45.104-.074.287-.01.406-.051a.607.607 0 00.376-.46c.016-.082.01-.145.039-.221.039-.103.111-.16.09-.293-.01-.062-.052-.12-.064-.187-.022-.114.002-.224 0-.337-.003-.2.017-.379-.078-.55-.38-.688-1.236-.929-1.975-.789-.18.034-.287.126-.442.207-.17.088-.139.166-.318.224-.081.026-.216.124-.215.224.001.115.005.051.012.169-.021.011-.021-.005-.03-.025M54.118-41.042a.247.247 0 01-.026.19c-.053.101-.112.063-.165.128a.638.638 0 00-.079.362c-.169.058-.009.227-.015.35-.002.05-.041.105-.045.161a.764.764 0 00.068.37c.097.198.268.413.435.544.19.148.365.572.608.631.177.042.384-.104.543-.143.18-.043.397.01.571-.053.222-.079.127-.337.288-.45.104-.074.287-.01.406-.051a.607.607 0 00.376-.46c.016-.082.01-.145.039-.221.039-.103.111-.16.09-.293-.01-.062-.052-.12-.064-.187-.022-.114.002-.224 0-.337-.003-.2.017-.379-.078-.55-.38-.688-1.236-.929-1.975-.789-.18.034-.287.126-.442.207-.17.088-.139.166-.318.224-.081.026-.216.124-.215.224.001.115.005.051.012.169-.021.011-.021-.005-.03-.025M46.458-41.042a.247.247 0 01-.026.19c-.053.101-.112.063-.165.128a.638.638 0 00-.079.362c-.169.058-.009.227-.015.35-.002.05-.041.105-.045.161a.764.764 0 00.068.37c.097.198.268.413.435.544.19.148.365.572.608.631.177.042.384-.104.543-.143.18-.043.397.01.571-.053.222-.079.127-.337.288-.45.104-.074.287-.01.406-.051a.607.607 0 00.376-.46c.016-.082.01-.145.039-.221.039-.103.111-.16.09-.293-.01-.062-.052-.12-.064-.187-.022-.114.002-.224 0-.337-.003-.2.017-.379-.078-.55-.38-.688-1.236-.929-1.975-.789-.18.034-.287.126-.442.207-.17.088-.139.166-.318.224-.081.026-.216.124-.215.224.001.115.005.051.012.169-.021.011-.021-.005-.03-.025M38.797-41.042a.247.247 0 01-.026.19c-.053.101-.112.063-.165.128a.638.638 0 00-.079.362c-.169.058-.009.227-.015.35-.002.05-.041.105-.045.161a.764.764 0 00.068.37c.097.198.268.413.435.544.19.148.365.572.608.631.177.042.384-.104.543-.143.18-.043.397.01.571-.053.222-.079.127-.337.288-.45.104-.074.287-.01.406-.051a.607.607 0 00.376-.46c.016-.082.01-.145.039-.221.039-.103.111-.16.09-.293-.01-.062-.052-.12-.064-.187-.022-.114.002-.224 0-.337-.003-.2.017-.379-.078-.55-.38-.688-1.236-.929-1.975-.789-.18.034-.287.126-.442.207-.17.088-.139.166-.318.224-.081.026-.216.124-.215.224.001.115.005.051.012.169-.021.011-.021-.005-.03-.025M31.137-41.042a.247.247 0 01-.026.19c-.053.101-.112.063-.165.128a.638.638 0 00-.079.362c-.169.058-.009.227-.015.35-.002.05-.041.105-.045.161a.764.764 0 00.068.37c.097.198.268.413.435.544.19.148.365.572.608.631.177.042.384-.104.543-.143.18-.043.397.01.571-.053.222-.079.127-.337.288-.45.104-.074.287-.01.406-.051a.607.607 0 00.376-.46c.016-.082.01-.145.039-.221.039-.103.111-.16.09-.293-.01-.062-.052-.12-.064-.187-.022-.114.002-.224 0-.337-.003-.2.017-.379-.078-.55-.38-.688-1.236-.929-1.975-.789-.18.034-.287.126-.442.207-.17.088-.139.166-.318.224-.081.026-.216.124-.215.224.001.115.005.051.012.169-.021.011-.021-.005-.03-.025M23.477-41.042a.247.247 0 01-.026.19c-.053.101-.112.063-.165.128a.638.638 0 00-.079.362c-.169.058-.009.227-.015.35-.002.05-.041.105-.045.161a.764.764 0 00.068.37c.097.198.268.413.435.544.19.148.365.572.608.631.177.042.384-.104.543-.143.18-.043.397.01.571-.053.222-.079.127-.337.288-.45.104-.074.287-.01.406-.051a.607.607 0 00.376-.46c.016-.082.01-.145.039-.221.039-.103.111-.16.09-.293-.01-.062-.052-.12-.064-.187-.022-.114.002-.224 0-.337-.003-.2.017-.379-.078-.55-.38-.688-1.236-.929-1.975-.789-.18.034-.287.126-.442.207-.17.088-.139.166-.318.224-.081.026-.216.124-.215.224.001.115.005.051.012.169-.021.011-.021-.005-.03-.025M15.816-41.042a.247.247 0 01-.026.19c-.053.101-.112.063-.165.128a.638.638 0 00-.079.362c-.169.058-.009.227-.015.35-.002.05-.041.105-.045.161a.764.764 0 00.068.37c.097.198.268.413.435.544.19.148.365.572.608.631.177.042.384-.104.543-.143.18-.043.397.01.571-.053.222-.079.127-.337.288-.45.104-.074.287-.01.406-.051a.607.607 0 00.376-.46c.016-.082.01-.145.039-.221.039-.103.111-.16.09-.293-.01-.062-.052-.12-.064-.187-.022-.114.002-.224 0-.337-.003-.2.017-.379-.078-.55-.38-.688-1.236-.929-1.975-.789-.18.034-.287.126-.442.207-.17.088-.139.166-.318.224-.081.026-.216.124-.215.224.001.115.005.051.012.169-.021.011-.021-.005-.03-.025M8.156-41.042a.247.247 0 01-.026.19c-.053.101-.112.063-.165.128a.638.638 0 00-.079.362c-.169.058-.009.227-.015.35-.002.05-.041.105-.045.161a.764.764 0 00.068.37c.097.198.268.413.435.544.19.148.365.572.608.631.177.042.384-.104.543-.143.18-.043.397.01.571-.053.222-.079.127-.337.288-.45.104-.074.287-.01.406-.051a.607.607 0 00.376-.46c.016-.082.01-.145.039-.221.039-.103.111-.16.09-.293-.01-.062-.052-.12-.064-.187-.022-.114.002-.224 0-.337-.003-.2.017-.379-.078-.55-.38-.688-1.236-.929-1.975-.789-.18.034-.287.126-.442.207-.17.088-.139.166-.318.224-.081.026-.216.124-.215.224.001.115.005.051.012.169-.02.012-.021-.004-.03-.024M.495-41.042a.247.247 0 01-.026.19c-.053.101-.112.063-.165.128a.638.638 0 00-.079.362c-.169.058-.01.227-.015.35-.002.05-.041.105-.045.161a.764.764 0 00.068.37c.097.198.268.413.435.544.19.148.365.572.608.631.177.042.384-.104.543-.143.18-.043.397.01.571-.053.222-.079.127-.337.288-.45.104-.074.287-.01.406-.051a.607.607 0 00.376-.46c.016-.082.01-.145.039-.221.039-.103.111-.16.09-.293-.01-.062-.052-.12-.064-.187-.022-.114.002-.224 0-.337-.003-.2.017-.379-.078-.55-.38-.688-1.236-.929-1.975-.789-.18.034-.287.126-.442.207-.17.088-.139.166-.318.224-.081.026-.216.124-.215.224.001.115.005.051.012.169-.021.011-.021-.005-.03-.025"/></g><g><path d="M69.439-33.39a.247.247 0 01-.026.19c-.053.101-.112.063-.165.128a.638.638 0 00-.079.362c-.169.058-.01.227-.015.35-.002.05-.041.105-.045.161a.764.764 0 00.068.37c.097.198.268.413.435.544.19.148.365.572.608.631.177.042.384-.104.543-.143.18-.043.397.01.571-.053.222-.079.127-.337.288-.45.104-.074.287-.01.406-.051a.607.607 0 00.376-.46c.016-.082.01-.145.039-.221.039-.103.111-.16.09-.293-.01-.062-.052-.12-.064-.187-.022-.114.002-.224 0-.337-.003-.2.017-.379-.078-.55-.38-.688-1.236-.929-1.975-.789-.18.034-.287.126-.442.207-.17.088-.139.166-.318.224-.081.026-.216.124-.215.224.001.115.005.051.012.169-.021.011-.021-.005-.03-.025M61.778-33.39a.247.247 0 01-.026.19c-.053.101-.112.063-.165.128a.638.638 0 00-.079.362c-.169.058-.009.227-.015.35-.002.05-.041.105-.045.161a.764.764 0 00.068.37c.097.198.268.413.435.544.19.148.365.572.608.631.177.042.384-.104.543-.143.18-.043.397.01.571-.053.222-.079.127-.337.288-.45.104-.074.287-.01.406-.051a.607.607 0 00.376-.46c.016-.082.01-.145.039-.221.039-.103.111-.16.09-.293-.01-.062-.052-.12-.064-.187-.022-.114.002-.224 0-.337-.003-.2.017-.379-.078-.55-.38-.688-1.236-.929-1.975-.789-.18.034-.287.126-.442.207-.17.088-.139.166-.318.224-.081.026-.216.124-.215.224.001.115.005.051.012.169-.021.011-.021-.005-.03-.025M54.118-33.39a.247.247 0 01-.026.19c-.053.101-.112.063-.165.128a.638.638 0 00-.079.362c-.169.058-.009.227-.015.35-.002.05-.041.105-.045.161a.764.764 0 00.068.37c.097.198.268.413.435.544.19.148.365.572.608.631.177.042.384-.104.543-.143.18-.043.397.01.571-.053.222-.079.127-.337.288-.45.104-.074.287-.01.406-.051a.607.607 0 00.376-.46c.016-.082.01-.145.039-.221.039-.103.111-.16.09-.293-.01-.062-.052-.12-.064-.187-.022-.114.002-.224 0-.337-.003-.2.017-.379-.078-.55-.38-.688-1.236-.929-1.975-.789-.18.034-.287.126-.442.207-.17.088-.139.166-.318.224-.081.026-.216.124-.215.224.001.115.005.051.012.169-.021.011-.021-.005-.03-.025M46.458-33.39a.247.247 0 01-.026.19c-.053.101-.112.063-.165.128a.638.638 0 00-.079.362c-.169.058-.009.227-.015.35-.002.05-.041.105-.045.161a.764.764 0 00.068.37c.097.198.268.413.435.544.19.148.365.572.608.631.177.042.384-.104.543-.143.18-.043.397.01.571-.053.222-.079.127-.337.288-.45.104-.074.287-.01.406-.051a.607.607 0 00.376-.46c.016-.082.01-.145.039-.221.039-.103.111-.16.09-.293-.01-.062-.052-.12-.064-.187-.022-.114.002-.224 0-.337-.003-.2.017-.379-.078-.55-.38-.688-1.236-.929-1.975-.789-.18.034-.287.126-.442.207-.17.088-.139.166-.318.224-.081.026-.216.124-.215.224.001.115.005.051.012.169-.021.011-.021-.005-.03-.025M38.797-33.39a.247.247 0 01-.026.19c-.053.101-.112.063-.165.128a.638.638 0 00-.079.362c-.169.058-.009.227-.015.35-.002.05-.041.105-.045.161a.764.764 0 00.068.37c.097.198.268.413.435.544.19.148.365.572.608.631.177.042.384-.104.543-.143.18-.043.397.01.571-.053.222-.079.127-.337.288-.45.104-.074.287-.01.406-.051a.607.607 0 00.376-.46c.016-.082.01-.145.039-.221.039-.103.111-.16.09-.293-.01-.062-.052-.12-.064-.187-.022-.114.002-.224 0-.337-.003-.2.017-.379-.078-.55-.38-.688-1.236-.929-1.975-.789-.18.034-.287.126-.442.207-.17.088-.139.166-.318.224-.081.026-.216.124-.215.224.001.115.005.051.012.169-.021.011-.021-.005-.03-.025M31.137-33.39a.247.247 0 01-.026.19c-.053.101-.112.063-.165.128a.638.638 0 00-.079.362c-.169.058-.009.227-.015.35-.002.05-.041.105-.045.161a.764.764 0 00.068.37c.097.198.268.413.435.544.19.148.365.572.608.631.177.042.384-.104.543-.143.18-.043.397.01.571-.053.222-.079.127-.337.288-.45.104-.074.287-.01.406-.051a.607.607 0 00.376-.46c.016-.082.01-.145.039-.221.039-.103.111-.16.09-.293-.01-.062-.052-.12-.064-.187-.022-.114.002-.224 0-.337-.003-.2.017-.379-.078-.55-.38-.688-1.236-.929-1.975-.789-.18.034-.287.126-.442.207-.17.088-.139.166-.318.224-.081.026-.216.124-.215.224.001.115.005.051.012.169-.021.011-.021-.005-.03-.025M23.477-33.39a.247.247 0 01-.026.19c-.053.101-.112.063-.165.128a.638.638 0 00-.079.362c-.169.058-.009.227-.015.35-.002.05-.041.105-.045.161a.764.764 0 00.068.37c.097.198.268.413.435.544.19.148.365.572.608.631.177.042.384-.104.543-.143.18-.043.397.01.571-.053.222-.079.127-.337.288-.45.104-.074.287-.01.406-.051a.607.607 0 00.376-.46c.016-.082.01-.145.039-.221.039-.103.111-.16.09-.293-.01-.062-.052-.12-.064-.187-.022-.114.002-.224 0-.337-.003-.2.017-.379-.078-.55-.38-.688-1.236-.929-1.975-.789-.18.034-.287.126-.442.207-.17.088-.139.166-.318.224-.081.026-.216.124-.215.224.001.115.005.051.012.169-.021.011-.021-.005-.03-.025M15.816-33.39a.247.247 0 01-.026.19c-.053.101-.112.063-.165.128a.638.638 0 00-.079.362c-.169.058-.009.227-.015.35-.002.05-.041.105-.045.161a.764.764 0 00.068.37c.097.198.268.413.435.544.19.148.365.572.608.631.177.042.384-.104.543-.143.18-.043.397.01.571-.053.222-.079.127-.337.288-.45.104-.074.287-.01.406-.051a.607.607 0 00.376-.46c.016-.082.01-.145.039-.221.039-.103.111-.16.09-.293-.01-.062-.052-.12-.064-.187-.022-.114.002-.224 0-.337-.003-.2.017-.379-.078-.55-.38-.688-1.236-.929-1.975-.789-.18.034-.287.126-.442.207-.17.088-.139.166-.318.224-.081.026-.216.124-.215.224.001.115.005.051.012.169-.021.011-.021-.005-.03-.025M8.156-33.39a.247.247 0 01-.026.19c-.053.101-.112.063-.165.128a.638.638 0 00-.079.362c-.169.058-.009.227-.015.35-.002.05-.041.105-.045.161a.764.764 0 00.068.37c.097.198.268.413.435.544.19.148.365.572.608.631.177.042.384-.104.543-.143.18-.043.397.01.571-.053.222-.079.127-.337.288-.45.104-.074.287-.01.406-.051a.607.607 0 00.376-.46c.016-.082.01-.145.039-.221.039-.103.111-.16.09-.293-.01-.062-.052-.12-.064-.187-.022-.114.002-.224 0-.337-.003-.2.017-.379-.078-.55-.38-.688-1.236-.929-1.975-.789-.18.034-.287.126-.442.207-.17.088-.139.166-.318.224-.081.026-.216.124-.215.224.001.115.005.051.012.169-.021.011-.021-.005-.03-.025M.495-33.39a.247.247 0 01-.026.19c-.053.101-.112.063-.165.128a.638.638 0 00-.079.362c-.169.058-.01.227-.015.35-.002.05-.041.105-.045.161a.764.764 0 00.068.37c.097.198.268.413.435.544.19.148.365.572.608.631.177.042.384-.104.543-.143.18-.043.397.01.571-.053.222-.079.127-.337.288-.45.104-.074.287-.01.406-.051a.607.607 0 00.376-.46c.016-.082.01-.145.039-.221.039-.103.111-.16.09-.293-.01-.062-.052-.12-.064-.187-.022-.114.002-.224 0-.337-.003-.2.017-.379-.078-.55-.38-.688-1.236-.929-1.975-.789-.18.034-.287.126-.442.207-.17.088-.139.166-.318.224-.081.026-.216.124-.215.224.003.117.006.053.013.171-.021.011-.021-.005-.03-.025"/></g><g><path d="M69.439-25.736a.247.247 0 01-.026.19c-.053.101-.112.063-.165.128a.638.638 0 00-.079.362c-.169.058-.01.227-.015.35-.002.05-.041.105-.045.161a.764.764 0 00.068.37c.097.198.268.413.435.544.19.148.365.572.608.631.177.042.384-.104.543-.143.18-.043.397.01.571-.053.222-.079.127-.337.288-.45.104-.074.287-.01.406-.051a.607.607 0 00.376-.46c.016-.082.01-.145.039-.221.039-.103.111-.16.09-.293-.01-.062-.052-.12-.064-.187-.022-.114.002-.224 0-.337-.003-.2.017-.379-.078-.55-.38-.688-1.236-.929-1.975-.789-.18.034-.287.126-.442.207-.17.088-.139.166-.318.224-.081.026-.216.124-.215.224.001.115.005.051.012.169-.021.011-.021-.005-.03-.025M61.778-25.736a.247.247 0 01-.026.19c-.053.101-.112.063-.165.128a.638.638 0 00-.079.362c-.169.058-.009.227-.015.35-.002.05-.041.105-.045.161a.764.764 0 00.068.37c.097.198.268.413.435.544.19.148.365.572.608.631.177.042.384-.104.543-.143.18-.043.397.01.571-.053.222-.079.127-.337.288-.45.104-.074.287-.01.406-.051a.607.607 0 00.376-.46c.016-.082.01-.145.039-.221.039-.103.111-.16.09-.293-.01-.062-.052-.12-.064-.187-.022-.114.002-.224 0-.337-.003-.2.017-.379-.078-.55-.38-.688-1.236-.929-1.975-.789-.18.034-.287.126-.442.207-.17.088-.139.166-.318.224-.081.026-.216.124-.215.224.001.115.005.051.012.169-.021.011-.021-.005-.03-.025M54.118-25.736a.247.247 0 01-.026.19c-.053.101-.112.063-.165.128a.638.638 0 00-.079.362c-.169.058-.009.227-.015.35-.002.05-.041.105-.045.161a.764.764 0 00.068.37c.097.198.268.413.435.544.19.148.365.572.608.631.177.042.384-.104.543-.143.18-.043.397.01.571-.053.222-.079.127-.337.288-.45.104-.074.287-.01.406-.051a.607.607 0 00.376-.46c.016-.082.01-.145.039-.221.039-.103.111-.16.09-.293-.01-.062-.052-.12-.064-.187-.022-.114.002-.224 0-.337-.003-.2.017-.379-.078-.55-.38-.688-1.236-.929-1.975-.789-.18.034-.287.126-.442.207-.17.088-.139.166-.318.224-.081.026-.216.124-.215.224.001.115.005.051.012.169-.021.011-.021-.005-.03-.025M46.458-25.736a.247.247 0 01-.026.19c-.053.101-.112.063-.165.128a.638.638 0 00-.079.362c-.169.058-.009.227-.015.35-.002.05-.041.105-.045.161a.764.764 0 00.068.37c.097.198.268.413.435.544.19.148.365.572.608.631.177.042.384-.104.543-.143.18-.043.397.01.571-.053.222-.079.127-.337.288-.45.104-.074.287-.01.406-.051a.607.607 0 00.376-.46c.016-.082.01-.145.039-.221.039-.103.111-.16.09-.293-.01-.062-.052-.12-.064-.187-.022-.114.002-.224 0-.337-.003-.2.017-.379-.078-.55-.38-.688-1.236-.929-1.975-.789-.18.034-.287.126-.442.207-.17.088-.139.166-.318.224-.081.026-.216.124-.215.224.001.115.005.051.012.169-.021.011-.021-.005-.03-.025M38.797-25.736a.247.247 0 01-.026.19c-.053.101-.112.063-.165.128a.638.638 0 00-.079.362c-.169.058-.009.227-.015.35-.002.05-.041.105-.045.161a.764.764 0 00.068.37c.097.198.268.413.435.544.19.148.365.572.608.631.177.042.384-.104.543-.143.18-.043.397.01.571-.053.222-.079.127-.337.288-.45.104-.074.287-.01.406-.051a.607.607 0 00.376-.46c.016-.082.01-.145.039-.221.039-.103.111-.16.09-.293-.01-.062-.052-.12-.064-.187-.022-.114.002-.224 0-.337-.003-.2.017-.379-.078-.55-.38-.688-1.236-.929-1.975-.789-.18.034-.287.126-.442.207-.17.088-.139.166-.318.224-.081.026-.216.124-.215.224.001.115.005.051.012.169-.021.011-.021-.005-.03-.025M31.137-25.736a.247.247 0 01-.026.19c-.053.101-.112.063-.165.128a.638.638 0 00-.079.362c-.169.058-.009.227-.015.35-.002.05-.041.105-.045.161a.764.764 0 00.068.37c.097.198.268.413.435.544.19.148.365.572.608.631.177.042.384-.104.543-.143.18-.043.397.01.571-.053.222-.079.127-.337.288-.45.104-.074.287-.01.406-.051a.607.607 0 00.376-.46c.016-.082.01-.145.039-.221.039-.103.111-.16.09-.293-.01-.062-.052-.12-.064-.187-.022-.114.002-.224 0-.337-.003-.2.017-.379-.078-.55-.38-.688-1.236-.929-1.975-.789-.18.034-.287.126-.442.207-.17.088-.139.166-.318.224-.081.026-.216.124-.215.224.001.115.005.051.012.169-.021.011-.021-.005-.03-.025M23.477-25.736a.247.247 0 01-.026.19c-.053.101-.112.063-.165.128a.638.638 0 00-.079.362c-.169.058-.009.227-.015.35-.002.05-.041.105-.045.161a.764.764 0 00.068.37c.097.198.268.413.435.544.19.148.365.572.608.631.177.042.384-.104.543-.143.18-.043.397.01.571-.053.222-.079.127-.337.288-.45.104-.074.287-.01.406-.051a.607.607 0 00.376-.46c.016-.082.01-.145.039-.221.039-.103.111-.16.09-.293-.01-.062-.052-.12-.064-.187-.022-.114.002-.224 0-.337-.003-.2.017-.379-.078-.55-.38-.688-1.236-.929-1.975-.789-.18.034-.287.126-.442.207-.17.088-.139.166-.318.224-.081.026-.216.124-.215.224.001.115.005.051.012.169-.021.011-.021-.005-.03-.025M15.816-25.736a.247.247 0 01-.026.19c-.053.101-.112.063-.165.128a.638.638 0 00-.079.362c-.169.058-.009.227-.015.35-.002.05-.041.105-.045.161a.764.764 0 00.068.37c.097.198.268.413.435.544.19.148.365.572.608.631.177.042.384-.104.543-.143.18-.043.397.01.571-.053.222-.079.127-.337.288-.45.104-.074.287-.01.406-.051a.607.607 0 00.376-.46c.016-.082.01-.145.039-.221.039-.103.111-.16.09-.293-.01-.062-.052-.12-.064-.187-.022-.114.002-.224 0-.337-.003-.2.017-.379-.078-.55-.38-.688-1.236-.929-1.975-.789-.18.034-.287.126-.442.207-.17.088-.139.166-.318.224-.081.026-.216.124-.215.224.001.115.005.051.012.169-.021.011-.021-.005-.03-.025M8.156-25.736a.247.247 0 01-.026.19c-.053.101-.112.063-.165.128a.638.638 0 00-.079.362c-.169.058-.009.227-.015.35-.002.05-.041.105-.045.161a.764.764 0 00.068.37c.097.198.268.413.435.544.19.148.365.572.608.631.177.042.384-.104.543-.143.18-.043.397.01.571-.053.222-.079.127-.337.288-.45.104-.074.287-.01.406-.051a.607.607 0 00.376-.46c.016-.082.01-.145.039-.221.039-.103.111-.16.09-.293-.01-.062-.052-.12-.064-.187-.022-.114.002-.224 0-.337-.003-.2.017-.379-.078-.55-.38-.688-1.236-.929-1.975-.789-.18.034-.287.126-.442.207-.17.088-.139.166-.318.224-.081.026-.216.124-.215.224.001.115.005.051.012.169-.021.011-.021-.005-.03-.025M.495-25.736a.247.247 0 01-.026.19c-.053.101-.112.063-.165.128a.638.638 0 00-.079.362c-.169.058-.01.227-.015.35-.002.05-.041.105-.045.161a.764.764 0 00.068.37c.097.198.268.413.435.544.19.148.365.572.608.631.177.042.384-.104.543-.143.18-.043.397.01.571-.053.222-.079.127-.337.288-.45.104-.074.287-.01.406-.051a.607.607 0 00.376-.46c.016-.082.01-.145.039-.221.039-.103.111-.16.09-.293-.01-.062-.052-.12-.064-.187-.022-.114.002-.224 0-.337-.003-.2.017-.379-.078-.55-.38-.688-1.236-.929-1.975-.789-.18.034-.287.126-.442.207-.17.088-.139.166-.318.224-.081.026-.216.124-.215.224.001.115.005.051.012.169-.021.011-.021-.005-.03-.025"/></g><g><path d="M69.439-18.084a.247.247 0 01-.026.19c-.053.101-.112.063-.165.128a.638.638 0 00-.079.362c-.169.058-.01.227-.015.35-.002.05-.041.105-.045.161a.764.764 0 00.068.37c.097.198.268.413.435.544.19.148.365.572.608.631.177.042.384-.104.543-.143.18-.043.397.01.571-.053.222-.079.127-.337.288-.45.104-.074.287-.01.406-.051a.607.607 0 00.376-.46c.016-.082.01-.145.039-.221.039-.103.111-.16.09-.293-.01-.062-.052-.12-.064-.187-.022-.114.002-.224 0-.337-.003-.2.017-.379-.078-.55-.38-.688-1.236-.929-1.975-.789-.18.034-.287.126-.442.207-.17.088-.139.166-.318.224-.081.026-.216.124-.215.224.001.115.005.051.012.169-.021.011-.021-.005-.03-.025M61.778-18.084a.247.247 0 01-.026.19c-.053.101-.112.063-.165.128a.638.638 0 00-.079.362c-.169.058-.009.227-.015.35-.002.05-.041.105-.045.161a.764.764 0 00.068.37c.097.198.268.413.435.544.19.148.365.572.608.631.177.042.384-.104.543-.143.18-.043.397.01.571-.053.222-.079.127-.337.288-.45.104-.074.287-.01.406-.051a.607.607 0 00.376-.46c.016-.082.01-.145.039-.221.039-.103.111-.16.09-.293-.01-.062-.052-.12-.064-.187-.022-.114.002-.224 0-.337-.003-.2.017-.379-.078-.55-.38-.688-1.236-.929-1.975-.789-.18.034-.287.126-.442.207-.17.088-.139.166-.318.224-.081.026-.216.124-.215.224.001.115.005.051.012.169-.021.011-.021-.005-.03-.025M54.118-18.084a.247.247 0 01-.026.19c-.053.101-.112.063-.165.128a.638.638 0 00-.079.362c-.169.058-.009.227-.015.35-.002.05-.041.105-.045.161a.764.764 0 00.068.37c.097.198.268.413.435.544.19.148.365.572.608.631.177.042.384-.104.543-.143.18-.043.397.01.571-.053.222-.079.127-.337.288-.45.104-.074.287-.01.406-.051a.607.607 0 00.376-.46c.016-.082.01-.145.039-.221.039-.103.111-.16.09-.293-.01-.062-.052-.12-.064-.187-.022-.114.002-.224 0-.337-.003-.2.017-.379-.078-.55-.38-.688-1.236-.929-1.975-.789-.18.034-.287.126-.442.207-.17.088-.139.166-.318.224-.081.026-.216.124-.215.224.001.115.005.051.012.169-.021.011-.021-.005-.03-.025M46.458-18.084a.247.247 0 01-.026.19c-.053.101-.112.063-.165.128a.638.638 0 00-.079.362c-.169.058-.009.227-.015.35-.002.05-.041.105-.045.161a.764.764 0 00.068.37c.097.198.268.413.435.544.19.148.365.572.608.631.177.042.384-.104.543-.143.18-.043.397.01.571-.053.222-.079.127-.337.288-.45.104-.074.287-.01.406-.051a.607.607 0 00.376-.46c.016-.082.01-.145.039-.221.039-.103.111-.16.09-.293-.01-.062-.052-.12-.064-.187-.022-.114.002-.224 0-.337-.003-.2.017-.379-.078-.55-.38-.688-1.236-.929-1.975-.789-.18.034-.287.126-.442.207-.17.088-.139.166-.318.224-.081.026-.216.124-.215.224.001.115.005.051.012.169-.021.011-.021-.005-.03-.025M38.797-18.084a.247.247 0 01-.026.19c-.053.101-.112.063-.165.128a.638.638 0 00-.079.362c-.169.058-.009.227-.015.35-.002.05-.041.105-.045.161a.764.764 0 00.068.37c.097.198.268.413.435.544.19.148.365.572.608.631.177.042.384-.104.543-.143.18-.043.397.01.571-.053.222-.079.127-.337.288-.45.104-.074.287-.01.406-.051a.607.607 0 00.376-.46c.016-.082.01-.145.039-.221.039-.103.111-.16.09-.293-.01-.062-.052-.12-.064-.187-.022-.114.002-.224 0-.337-.003-.2.017-.379-.078-.55-.38-.688-1.236-.929-1.975-.789-.18.034-.287.126-.442.207-.17.088-.139.166-.318.224-.081.026-.216.124-.215.224.001.115.005.051.012.169-.021.011-.021-.005-.03-.025M31.137-18.084a.247.247 0 01-.026.19c-.053.101-.112.063-.165.128a.638.638 0 00-.079.362c-.169.058-.009.227-.015.35-.002.05-.041.105-.045.161a.764.764 0 00.068.37c.097.198.268.413.435.544.19.148.365.572.608.631.177.042.384-.104.543-.143.18-.043.397.01.571-.053.222-.079.127-.337.288-.45.104-.074.287-.01.406-.051a.607.607 0 00.376-.46c.016-.082.01-.145.039-.221.039-.103.111-.16.09-.293-.01-.062-.052-.12-.064-.187-.022-.114.002-.224 0-.337-.003-.2.017-.379-.078-.55-.38-.688-1.236-.929-1.975-.789-.18.034-.287.126-.442.207-.17.088-.139.166-.318.224-.081.026-.216.124-.215.224.001.115.005.051.012.169-.021.011-.021-.005-.03-.025M23.477-18.084a.247.247 0 01-.026.19c-.053.101-.112.063-.165.128a.638.638 0 00-.079.362c-.169.058-.009.227-.015.35-.002.05-.041.105-.045.161a.764.764 0 00.068.37c.097.198.268.413.435.544.19.148.365.572.608.631.177.042.384-.104.543-.143.18-.043.397.01.571-.053.222-.079.127-.337.288-.45.104-.074.287-.01.406-.051a.607.607 0 00.376-.46c.016-.082.01-.145.039-.221.039-.103.111-.16.09-.293-.01-.062-.052-.12-.064-.187-.022-.114.002-.224 0-.337-.003-.2.017-.379-.078-.55-.38-.688-1.236-.929-1.975-.789-.18.034-.287.126-.442.207-.17.088-.139.166-.318.224-.081.026-.216.124-.215.224.001.115.005.051.012.169-.021.011-.021-.005-.03-.025M15.816-18.084a.247.247 0 01-.026.19c-.053.101-.112.063-.165.128a.638.638 0 00-.079.362c-.169.058-.009.227-.015.35-.002.05-.041.105-.045.161a.764.764 0 00.068.37c.097.198.268.413.435.544.19.148.365.572.608.631.177.042.384-.104.543-.143.18-.043.397.01.571-.053.222-.079.127-.337.288-.45.104-.074.287-.01.406-.051a.607.607 0 00.376-.46c.016-.082.01-.145.039-.221.039-.103.111-.16.09-.293-.01-.062-.052-.12-.064-.187-.022-.114.002-.224 0-.337-.003-.2.017-.379-.078-.55-.38-.688-1.236-.929-1.975-.789-.18.034-.287.126-.442.207-.17.088-.139.166-.318.224-.081.026-.216.124-.215.224.001.115.005.051.012.169-.021.011-.021-.005-.03-.025M8.156-18.084a.247.247 0 01-.026.19c-.053.101-.112.063-.165.128a.638.638 0 00-.079.362c-.169.058-.009.227-.015.35-.002.05-.041.105-.045.161a.764.764 0 00.068.37c.097.198.268.413.435.544.19.148.365.572.608.631.177.042.384-.104.543-.143.18-.043.397.01.571-.053.222-.079.127-.337.288-.45.104-.074.287-.01.406-.051a.607.607 0 00.376-.46c.016-.082.01-.145.039-.221.039-.103.111-.16.09-.293-.01-.062-.052-.12-.064-.187-.022-.114.002-.224 0-.337-.003-.2.017-.379-.078-.55-.38-.688-1.236-.929-1.975-.789-.18.034-.287.126-.442.207-.17.088-.139.166-.318.224-.081.026-.216.124-.215.224.001.115.005.051.012.169-.021.011-.021-.005-.03-.025M.495-18.084a.247.247 0 01-.026.19c-.053.101-.112.063-.165.128a.638.638 0 00-.079.362c-.169.058-.01.227-.015.35-.002.05-.041.105-.045.161a.764.764 0 00.068.37c.097.198.268.413.435.544.19.148.365.572.608.631.177.042.384-.104.543-.143.18-.043.397.01.571-.053.222-.079.127-.337.288-.45.104-.074.287-.01.406-.051a.607.607 0 00.376-.46c.016-.082.01-.145.039-.221.039-.103.111-.16.09-.293-.01-.062-.052-.12-.064-.187-.022-.114.002-.224 0-.337-.003-.2.017-.379-.078-.55-.38-.688-1.236-.929-1.975-.789-.18.034-.287.126-.442.207-.17.088-.139.166-.318.224-.081.026-.216.124-.215.224.003.117.006.052.013.17-.021.011-.021-.005-.03-.025"/></g><g><path d="M69.439-10.431a.247.247 0 01-.026.19c-.053.101-.112.063-.165.128a.638.638 0 00-.079.362c-.169.059-.01.228-.015.351-.002.05-.041.105-.045.161a.764.764 0 00.068.37c.097.198.268.413.435.544.19.148.365.572.608.631.177.042.384-.104.543-.143.18-.043.397.01.571-.053.222-.079.127-.337.288-.45.104-.074.287-.01.406-.051a.607.607 0 00.376-.46c.016-.082.01-.145.039-.221.039-.103.111-.16.09-.293-.01-.062-.052-.12-.064-.187-.022-.114.002-.224 0-.337-.003-.2.017-.379-.078-.55-.38-.688-1.236-.929-1.975-.789-.18.034-.287.126-.442.207-.17.088-.139.166-.318.224-.081.026-.216.124-.215.224.001.115.005.051.012.169-.021.011-.021-.005-.03-.025M61.778-10.431a.247.247 0 01-.026.19c-.053.101-.112.063-.165.128a.638.638 0 00-.079.362c-.169.058-.009.227-.015.35-.002.05-.041.105-.045.161a.764.764 0 00.068.37c.097.198.268.413.435.544.19.148.365.572.608.631.177.042.384-.104.543-.143.18-.043.397.01.571-.053.222-.079.127-.337.288-.45.104-.074.287-.01.406-.051a.607.607 0 00.376-.46c.016-.082.01-.145.039-.221.039-.103.111-.16.09-.293-.01-.062-.052-.12-.064-.187-.022-.114.002-.224 0-.337-.003-.2.017-.379-.078-.55-.38-.688-1.236-.929-1.975-.789-.18.034-.287.126-.442.207-.17.088-.139.166-.318.224-.081.026-.216.124-.215.224.001.115.005.051.012.169-.021.011-.021-.005-.03-.025M54.118-10.431a.247.247 0 01-.026.19c-.053.101-.112.063-.165.128a.638.638 0 00-.079.362c-.169.058-.009.227-.015.35-.002.05-.041.105-.045.161a.764.764 0 00.068.37c.097.198.268.413.435.544.19.148.365.572.608.631.177.042.384-.104.543-.143.18-.043.397.01.571-.053.222-.079.127-.337.288-.45.104-.074.287-.01.406-.051a.607.607 0 00.376-.46c.016-.082.01-.145.039-.221.039-.103.111-.16.09-.293-.01-.062-.052-.12-.064-.187-.022-.114.002-.224 0-.337-.003-.2.017-.379-.078-.55-.38-.688-1.236-.929-1.975-.789-.18.034-.287.126-.442.207-.17.088-.139.166-.318.224-.081.026-.216.124-.215.224.001.115.005.051.012.169-.021.011-.021-.005-.03-.025M46.458-10.431a.247.247 0 01-.026.19c-.053.101-.112.063-.165.128a.638.638 0 00-.079.362c-.169.058-.009.227-.015.35-.002.05-.041.105-.045.161a.764.764 0 00.068.37c.097.198.268.413.435.544.19.148.365.572.608.631.177.042.384-.104.543-.143.18-.043.397.01.571-.053.222-.079.127-.337.288-.45.104-.074.287-.01.406-.051a.607.607 0 00.376-.46c.016-.082.01-.145.039-.221.039-.103.111-.16.09-.293-.01-.062-.052-.12-.064-.187-.022-.114.002-.224 0-.337-.003-.2.017-.379-.078-.55-.38-.688-1.236-.929-1.975-.789-.18.034-.287.126-.442.207-.17.088-.139.166-.318.224-.081.026-.216.124-.215.224.001.115.005.051.012.169-.021.011-.021-.005-.03-.025M38.797-10.431a.247.247 0 01-.026.19c-.053.101-.112.063-.165.128a.638.638 0 00-.079.362c-.169.058-.009.227-.015.35-.002.05-.041.105-.045.161a.764.764 0 00.068.37c.097.198.268.413.435.544.19.148.365.572.608.631.177.042.384-.104.543-.143.18-.043.397.01.571-.053.222-.079.127-.337.288-.45.104-.074.287-.01.406-.051a.607.607 0 00.376-.46c.016-.082.01-.145.039-.221.039-.103.111-.16.09-.293-.01-.062-.052-.12-.064-.187-.022-.114.002-.224 0-.337-.003-.2.017-.379-.078-.55-.38-.688-1.236-.929-1.975-.789-.18.034-.287.126-.442.207-.17.088-.139.166-.318.224-.081.026-.216.124-.215.224.001.115.005.051.012.169-.021.011-.021-.005-.03-.025M31.137-10.431a.247.247 0 01-.026.19c-.053.101-.112.063-.165.128a.638.638 0 00-.079.362c-.169.058-.009.227-.015.35-.002.05-.041.105-.045.161a.764.764 0 00.068.37c.097.198.268.413.435.544.19.148.365.572.608.631.177.042.384-.104.543-.143.18-.043.397.01.571-.053.222-.079.127-.337.288-.45.104-.074.287-.01.406-.051a.607.607 0 00.376-.46c.016-.082.01-.145.039-.221.039-.103.111-.16.09-.293-.01-.062-.052-.12-.064-.187-.022-.114.002-.224 0-.337-.003-.2.017-.379-.078-.55-.38-.688-1.236-.929-1.975-.789-.18.034-.287.126-.442.207-.17.088-.139.166-.318.224-.081.026-.216.124-.215.224.001.115.005.051.012.169-.021.011-.021-.005-.03-.025M23.477-10.431a.247.247 0 01-.026.19c-.053.101-.112.063-.165.128a.638.638 0 00-.079.362c-.169.058-.009.227-.015.35-.002.05-.041.105-.045.161a.764.764 0 00.068.37c.097.198.268.413.435.544.19.148.365.572.608.631.177.042.384-.104.543-.143.18-.043.397.01.571-.053.222-.079.127-.337.288-.45.104-.074.287-.01.406-.051a.607.607 0 00.376-.46c.016-.082.01-.145.039-.221.039-.103.111-.16.09-.293-.01-.062-.052-.12-.064-.187-.022-.114.002-.224 0-.337-.003-.2.017-.379-.078-.55-.38-.688-1.236-.929-1.975-.789-.18.034-.287.126-.442.207-.17.088-.139.166-.318.224-.081.026-.216.124-.215.224.001.115.005.051.012.169-.021.011-.021-.005-.03-.025M15.816-10.431a.247.247 0 01-.026.19c-.053.101-.112.063-.165.128a.638.638 0 00-.079.362c-.169.058-.009.227-.015.35-.002.05-.041.105-.045.161a.764.764 0 00.068.37c.097.198.268.413.435.544.19.148.365.572.608.631.177.042.384-.104.543-.143.18-.043.397.01.571-.053.222-.078.128-.336.289-.449.104-.074.287-.01.406-.051a.607.607 0 00.376-.46c.016-.082.01-.145.039-.221.039-.103.111-.16.09-.293-.01-.062-.052-.12-.064-.187-.022-.114.002-.224 0-.337-.003-.2.017-.379-.078-.55-.38-.688-1.236-.929-1.975-.789-.18.034-.287.126-.442.207-.17.088-.139.166-.318.224-.081.026-.216.124-.215.224.001.115.005.051.012.169-.021.011-.021-.005-.03-.025M8.156-10.431a.247.247 0 01-.026.19c-.053.101-.112.063-.165.128a.641.641 0 00-.079.363c-.169.058-.01.227-.015.35-.003.049-.041.105-.045.161a.764.764 0 00.068.37c.097.198.268.413.435.544.19.148.365.572.608.631.177.042.384-.105.543-.143.18-.043.397.01.571-.053.222-.079.127-.337.288-.45.104-.074.287-.01.406-.051a.607.607 0 00.376-.46c.016-.082.01-.145.039-.221.039-.103.111-.16.09-.293-.01-.062-.052-.12-.064-.187-.022-.114.002-.224 0-.337-.003-.2.017-.379-.078-.55-.38-.688-1.236-.929-1.975-.789-.18.034-.287.126-.442.207-.17.088-.139.166-.318.224-.081.026-.216.124-.215.224.001.115.005.051.012.169-.021.011-.021-.005-.03-.025M.495-10.431a.247.247 0 01-.026.19c-.053.101-.112.063-.165.128a.641.641 0 00-.079.363c-.169.058-.01.227-.015.35-.002.05-.041.105-.045.161a.764.764 0 00.068.37c.097.198.268.413.435.544.19.148.365.572.608.631.178.042.384-.105.543-.143.181-.043.398.01.572-.053.222-.079.127-.337.288-.45.104-.074.287-.01.406-.051a.607.607 0 00.376-.46c.016-.082.01-.144.039-.22.039-.103.111-.16.09-.293-.01-.062-.052-.12-.064-.187-.022-.114.002-.224 0-.337-.003-.2.017-.379-.078-.55-.38-.688-1.236-.929-1.975-.789-.18.034-.287.126-.442.207-.17.088-.139.166-.318.224-.081.026-.216.124-.215.224.001.115.005.051.012.169-.021.011-.021-.005-.03-.025"/></g></g><g fill="#FFF"><path d="M69.439-2.778a.242.242 0 01-.026.19c-.052.101-.113.063-.165.128a.63.63 0 00-.079.362c-.169.058-.01.227-.015.35-.002.05-.041.105-.045.161a.764.764 0 00.068.37c.097.198.268.413.435.544.19.148.365.572.608.631.177.042.384-.104.543-.143.18-.043.397.01.571-.053.222-.079.127-.337.288-.45.104-.074.287-.01.406-.051.2-.07.339-.263.376-.46.016-.082.01-.145.039-.221.038-.103.111-.16.09-.293-.01-.062-.051-.12-.064-.187-.021-.114.002-.224 0-.337-.003-.2.017-.379-.078-.55-.38-.688-1.236-.929-1.975-.789-.18.034-.287.126-.442.207-.17.088-.139.166-.318.224-.081.026-.215.124-.215.224.002.115.005.051.012.169-.021.011-.021-.005-.03-.025M61.778-2.778a.247.247 0 01-.026.19c-.052.101-.112.063-.165.128a.638.638 0 00-.079.362c-.169.058-.01.227-.015.35-.002.05-.041.105-.045.161a.764.764 0 00.068.37c.097.198.268.413.435.544.19.148.365.572.608.631.178.042.384-.104.544-.143.18-.043.397.01.571-.053.222-.079.127-.337.288-.45.104-.074.287-.01.406-.051a.607.607 0 00.376-.46c.016-.082.01-.145.039-.221.039-.103.111-.16.09-.293-.01-.062-.052-.12-.064-.187-.022-.114.002-.224 0-.337-.003-.2.017-.379-.078-.55-.38-.688-1.236-.929-1.975-.789-.18.034-.287.126-.442.207-.17.088-.139.166-.318.224-.081.028-.216.125-.215.225.001.115.005.051.012.169-.021.011-.021-.005-.03-.025M54.118-2.778a.247.247 0 01-.026.19c-.052.101-.112.063-.165.128a.638.638 0 00-.079.362c-.169.058-.01.227-.015.35-.002.05-.041.105-.045.161a.764.764 0 00.068.37c.097.198.268.413.435.544.19.148.365.572.608.631.178.042.384-.104.543-.143.18-.043.397.01.571-.053.222-.079.127-.337.288-.45.104-.074.287-.01.406-.051a.607.607 0 00.376-.46c.016-.082.01-.145.039-.221.039-.103.111-.16.09-.293-.01-.062-.052-.12-.064-.187-.022-.114.002-.224 0-.337-.003-.2.017-.379-.078-.55-.38-.688-1.236-.929-1.975-.789-.18.034-.287.126-.442.207-.17.088-.139.166-.318.224-.08.028-.215.125-.214.225.001.115.005.051.012.169-.021.011-.021-.005-.03-.025M46.458-2.778a.247.247 0 01-.026.19c-.053.101-.112.063-.165.128a.638.638 0 00-.079.362c-.169.058-.01.227-.015.35-.002.05-.041.105-.045.161a.764.764 0 00.068.37c.097.198.268.413.435.544.19.148.365.572.608.631.177.042.384-.104.543-.143.18-.043.397.01.571-.053.222-.079.127-.337.288-.45.104-.074.287-.01.406-.051a.607.607 0 00.376-.46c.016-.082.01-.145.039-.221.039-.103.111-.16.09-.293-.01-.062-.052-.12-.064-.187-.022-.114.002-.224 0-.337-.003-.2.017-.379-.078-.55-.38-.688-1.236-.929-1.975-.789-.18.034-.287.126-.442.207-.17.088-.139.166-.318.224-.081.028-.216.125-.215.225.001.115.005.051.012.169-.021.011-.021-.005-.03-.025M38.797-2.778a.247.247 0 01-.026.19c-.053.101-.112.063-.165.128a.638.638 0 00-.079.362c-.169.058-.01.227-.015.35-.002.05-.041.105-.045.161a.764.764 0 00.068.37c.097.198.268.413.435.544.19.148.365.572.608.631.178.042.384-.104.544-.143.18-.043.397.01.571-.053.222-.079.127-.337.288-.45.104-.074.287-.01.406-.051a.607.607 0 00.376-.46c.016-.082.01-.145.039-.221.039-.103.111-.16.09-.293-.01-.062-.052-.12-.064-.187-.022-.114.002-.224 0-.337-.003-.2.017-.379-.078-.55-.38-.688-1.236-.929-1.975-.789-.18.034-.287.126-.442.207-.17.088-.139.166-.318.224-.081.028-.216.125-.215.225.001.115.005.051.012.169-.021.011-.021-.005-.03-.025M31.137-2.778a.247.247 0 01-.026.19c-.053.101-.112.063-.165.128a.638.638 0 00-.079.362c-.169.058-.01.227-.015.35-.002.05-.041.105-.045.161a.764.764 0 00.068.37c.097.198.268.413.435.544.19.148.365.572.608.631.177.042.384-.104.543-.143.18-.043.397.01.571-.053.222-.079.127-.337.288-.45.104-.074.287-.01.406-.051a.607.607 0 00.376-.46c.016-.082.01-.145.039-.221.039-.103.111-.16.09-.293-.01-.062-.052-.12-.064-.187-.022-.114.002-.224 0-.337-.003-.2.017-.379-.078-.55-.38-.688-1.236-.929-1.975-.789-.18.034-.287.126-.442.207-.17.088-.139.166-.318.224-.081.028-.215.125-.214.225.001.115.005.051.012.169-.021.011-.021-.005-.03-.025M23.477-2.778a.247.247 0 01-.026.19c-.053.101-.112.063-.165.128a.638.638 0 00-.079.362c-.169.058-.01.227-.015.35-.002.05-.041.105-.045.161a.764.764 0 00.068.37c.097.198.268.413.435.544.19.148.365.572.608.631.177.042.384-.104.543-.143.18-.043.397.01.571-.053.222-.079.127-.337.288-.45.104-.074.287-.01.406-.051a.607.607 0 00.376-.46c.016-.082.01-.145.039-.221.039-.103.111-.16.09-.293-.01-.062-.052-.12-.064-.187-.022-.114.002-.224 0-.337-.003-.2.017-.379-.078-.55-.38-.688-1.236-.929-1.975-.789-.18.034-.287.126-.442.207-.17.088-.139.166-.318.224-.081.026-.216.124-.215.224.001.115.005.051.012.169-.021.011-.021-.005-.03-.025M15.816-2.778a.247.247 0 01-.026.19c-.053.101-.112.063-.165.128a.638.638 0 00-.079.362c-.169.058-.01.227-.015.35-.002.05-.041.105-.045.161a.764.764 0 00.068.37c.097.198.268.413.435.544.19.148.365.572.608.631.177.042.384-.104.543-.143.18-.043.397.01.571-.053.222-.079.127-.337.288-.45.104-.074.287-.01.406-.051a.607.607 0 00.376-.46c.016-.082.01-.145.039-.221.039-.103.111-.16.09-.293-.01-.062-.052-.12-.064-.187-.022-.114.002-.224 0-.337-.003-.2.017-.379-.078-.55-.38-.688-1.236-.929-1.975-.789-.18.034-.287.126-.442.207-.17.088-.139.166-.318.224-.081.026-.216.124-.215.224.001.115.005.051.012.169-.02.012-.021-.004-.03-.024M8.156-2.778a.247.247 0 01-.026.19c-.053.101-.112.063-.165.128a.638.638 0 00-.079.362c-.169.058-.01.227-.015.35-.003.05-.041.105-.045.161a.764.764 0 00.068.37c.097.198.268.413.435.544.19.148.365.572.608.631.177.042.384-.104.543-.143.18-.043.397.01.571-.053.222-.079.127-.337.288-.45.104-.074.287-.01.406-.051a.607.607 0 00.376-.46c.016-.082.01-.145.039-.221.039-.103.111-.16.09-.293-.01-.062-.052-.12-.064-.187-.022-.114.002-.224 0-.337-.003-.2.017-.379-.078-.55-.38-.688-1.236-.929-1.975-.789-.179.036-.286.128-.441.209-.17.088-.139.166-.318.224-.082.026-.216.123-.215.223.001.115.005.051.011.169-.02.011-.021-.005-.03-.025M.495-2.778a.242.242 0 01-.026.19c-.052.101-.113.063-.165.128a.63.63 0 00-.079.362c-.169.058-.01.227-.015.35-.002.05-.041.105-.045.161a.764.764 0 00.068.37c.097.198.268.413.435.544.19.148.365.572.608.631.178.042.384-.104.543-.143.181-.043.398.01.572-.052.222-.079.127-.337.288-.45.104-.074.287-.01.406-.051.2-.07.339-.263.376-.46.016-.082.01-.145.039-.221.038-.103.111-.16.09-.293-.01-.062-.051-.12-.064-.187-.021-.114.002-.224 0-.337-.003-.2.017-.379-.078-.55-.38-.688-1.236-.929-1.975-.789-.18.035-.286.127-.442.208-.17.088-.139.166-.318.224-.081.026-.215.123-.215.223.002.115.005.051.012.169-.021.011-.022-.005-.031-.025"/></g></g></pattern><path fill="#F16032" stroke="#010101" stroke-width=".31" d="M110.792 199.203a2.435 2.435 0 00-.56-3.402L71.33 167.879a2.435 2.435 0 00-3.402.561h0a2.433 2.433 0 00.561 3.402l38.903 27.922a2.436 2.436 0 003.4-.561h0z"/><path fill="#F16032" stroke="#010101" stroke-width=".301" d="M104.933 182.338c.979-.921 1.069-2.423.196-3.351l-31.033-32.973c-.872-.928-2.376-.933-3.357-.006h0c-.979.922-1.069 2.423-.196 3.351l31.032 32.973c.874.927 2.376.93 3.358.006h0z"/><path fill="#F16032" stroke="#010101" stroke-width=".31" d="M195.802 99.639a2.442 2.442 0 000-3.451l-33.859-33.86a2.443 2.443 0 00-3.451.002h0a2.44 2.44 0 000 3.448l33.861 33.86a2.439 2.439 0 003.449.001h0z"/><path fill="#F16032" stroke="#010101" stroke-width=".304" d="M193.854 116.922c.981-.922 1.057-2.437.167-3.38l-31.569-33.546c-.888-.945-2.403-.962-3.386-.038h0c-.98.921-1.057 2.438-.168 3.379l31.572 33.549c.889.942 2.403.958 3.384.036h0z"/><path fill="#F16032" stroke="#010101" stroke-width=".249" d="M176.894 119.397c1.133-.729 1.671-1.912 1.201-2.642l-16.701-25.979c-.472-.729-1.771-.731-2.902-.005h0c-1.135.727-1.672 1.912-1.203 2.642l16.703 25.98c.468.73 1.769.732 2.902.004h0z"/><path fill="#F16032" stroke="#010101" stroke-width=".295" d="M166.174 140.867c.95-.951 1.028-2.421.166-3.283l-30.588-30.588c-.86-.86-2.333-.785-3.283.166h0c-.953.952-1.027 2.422-.167 3.283l30.587 30.588c.862.861 2.331.787 3.285-.166h0z"/><path fill="#F16032" stroke="#010101" stroke-width=".232" d="M100.187 159.734c1.152-.701 1.767-1.785 1.378-2.432l-13.886-22.879c-.392-.646-1.64-.6-2.792.099h0c-1.152.7-1.767 1.788-1.378 2.432l13.887 22.88c.388.645 1.639.6 2.791-.1h0z"/><path fill="#2E3192" stroke="#B0E0E6" stroke-width=".31" d="M231.701 47.122c-5.037 2.587-45.461-10.659-45.461-10.659s10.346 34.801 12.541 44.521 2.195 24.142 2.195 24.142c-.314 6.584-2.822 8.465-7.839 14.108s-11.601 4.703-14.735 4.076-37.624-8.779-47.97-11.601c-10.346-2.821-21.633-.313-25.709 2.508-4.076 2.821-6.271 10.66-6.271 10.66-5.329 22.888 17.244 68.975 17.244 68.975-1.882 5.017-8.151 10.034-8.151 10.034S84.031 142.435 93.75 123.31c9.72-19.125 25.709-18.811 32.607-18.812 6.899.001 50.478 12.855 57.688 12.541 7.213-.313 11.914 3.135 8.152-17.558s-12.541-48.283-13.48-54.867c-.941-6.583 2.821-10.346 2.821-10.346s4.702-5.955 10.659-5.017c5.957.94 31.666 10.032 40.758 13.796 1.75.724.431 3.21-1.254 4.075z"/><path fill="#2E3192" stroke="#B0E0E6" stroke-width=".31" d="M247.691 62.485c-20.379 12.228-35.43 6.584-43.58 5.957-8.152-.628-33.233-11.914-39.191-12.854-5.957-.94-10.659 5.017-10.659 5.017s-3.762 3.762-2.822 10.346c.941 6.584 9.719 34.174 13.481 54.866 3.763 20.693-.939 17.245-8.152 17.559-7.21.313-50.79-12.541-57.688-12.541-6.897.001-22.888-.313-32.606 18.812-9.72 19.124 2.508 54.554 2.508 54.554s16.931 14.422 15.363 9.092c0 0-18.498-39.19-13.168-62.078 0 0 2.195-7.838 6.271-10.659 4.076-2.822 15.363-5.33 25.709-2.509 10.347 2.822 44.835 10.974 47.97 11.601 3.135.628 9.719 1.567 14.735-4.076 5.016-5.644 7.524-7.524 7.838-14.108 0 0-.001-14.423-2.195-24.142s-12.541-44.521-12.541-44.521 38.026 12.381 42.014 12.541c7.838.313 22.572 4.389 34.487-2.508 11.911-6.9 12.226-10.349 12.226-10.349z"/><path fill="#F16032" stroke="#010101" stroke-width=".306" d="M144.07 146.353c.951-.95.972-2.477.044-3.404l-33.007-33.007c-.93-.931-2.455-.908-3.406.043h0c-.953.952-.971 2.478-.043 3.406l33.007 33.007c.929.927 2.452.908 3.405-.045h0z"/><path fill="#F16032" stroke="#010101" stroke-width=".324" d="M158.492 147.606c.951-.95.881-2.567-.158-3.607l-36.991-36.991c-1.04-1.039-2.658-1.11-3.609-.16h0c-.952.953-.881 2.568.16 3.609l36.991 36.99c1.038 1.04 2.654 1.114 3.607.159h0z"/><path fill="#F16032" stroke="#010101" stroke-width=".249" d="M124.391 141.251c.865-1.034 1.03-2.322.36-2.879L101.1 118.521c-.664-.56-1.907-.176-2.771.856h0c-.867 1.033-1.029 2.322-.363 2.879l23.652 19.851c.666.559 1.907.176 2.773-.856h0z"/><path fill="#F16032" stroke="#010101" stroke-width=".31" d="M232.798 72.36a2.44 2.44 0 000-3.448l-33.86-33.86a2.442 2.442 0 00-3.45-.001h0a2.442 2.442 0 00.001 3.45l33.86 33.86a2.438 2.438 0 003.449-.001h0z"/><path fill="#F16032" stroke="#010101" stroke-width=".296" d="M213.923 74.26c1.064-.828 1.313-2.283.558-3.258l-26.87-34.57c-.756-.972-2.23-1.09-3.295-.263h0c-1.064.827-1.313 2.285-.558 3.257l26.87 34.571c.756.972 2.231 1.09 3.295.263h0z"/></svg>