<svg xmlns="http://www.w3.org/2000/svg" xmlns:xlink="http://www.w3.org/1999/xlink" width="266pt" height="176pt" viewBox="0 0 266 176"><g class="graph" font-family="Times-Roman" font-size="14"><path fill="none" d="M-2 178V-2h270v180H-2z"/><g class="node"><circle cx="237" cy="83" r="24" fill="#fff" stroke="#000" stroke-width="3"/><text x="237" y="90" font-family="Bitstream Vera Sans" font-size="22pt" text-anchor="middle">1</text></g><g class="node"><circle cx="187" cy="135" r="24" fill="#fff" stroke="#000" stroke-width="3"/><text x="187" y="142" font-family="Bitstream Vera Sans" font-size="22pt" text-anchor="middle">2</text></g><g class="edge"><path fill="none" stroke="#000" stroke-width="3" d="M220 100c-5 6-11 12-16 17"/></g><g class="node"><circle cx="109" cy="147" r="24" fill="#fff" stroke="#000" stroke-width="3"/><text x="109" y="154" font-family="Bitstream Vera Sans" font-size="22pt" text-anchor="middle">3</text></g><g class="edge"><path fill="none" stroke="#000" stroke-width="3" d="M163 139c-10 1-21 3-30 4"/></g><g class="node"><circle cx="170" cy="58" r="24" fill="#fff" stroke="#000" stroke-width="3"/><text x="170" y="65" font-family="Bitstream Vera Sans" font-size="22pt" text-anchor="middle">5</text></g><g class="edge"><path fill="none" stroke="#000" stroke-width="3" d="M182 111c-2-9-5-20-7-29"/></g><g class="node"><circle cx="92" cy="70" r="24" fill="#fff" stroke="#000" stroke-width="3"/><text x="92" y="77" font-family="Bitstream Vera Sans" font-size="22pt" text-anchor="middle">4</text></g><g class="edge"><path fill="none" stroke="#000" stroke-width="3" d="M104 123c-2-9-5-20-7-29"/></g><g class="edge"><path fill="none" stroke="#000" stroke-width="3" d="M116 66c10-1 21-3 30-4"/></g><g class="edge"><path fill="none" stroke="#000" stroke-width="3" d="M193 66l21 9"/></g><g class="node"><circle cx="29" cy="29" r="24" fill="#fff" stroke="#000" stroke-width="3"/><text x="29" y="36" font-family="Bitstream Vera Sans" font-size="22pt" text-anchor="middle">6</text></g><g class="edge"><path fill="none" stroke="#000" stroke-width="3" d="M49 42c7 5 16 10 23 15"/></g></g></svg>