<svg xmlns="http://www.w3.org/2000/svg" xmlns:cc="http://web.resource.org/cc/" xmlns:svg="http://www.w3.org/2000/svg" width="190" height="150" version="1.0"><g><path fill="#000001" stroke="#000" stroke-dashoffset="10" stroke-linecap="round" stroke-width="1.001" d="M46.5 52a6.5 6.5 0 11-13 0 6.5 6.5 0 1113 0zM121.5 52a6.5 6.5 0 11-13 0 6.5 6.5 0 1113 0zM121.5 127a6.5 6.5 0 11-13 0 6.5 6.5 0 1113 0zM46.5 127a6.5 6.5 0 11-13 0 6.5 6.5 0 1113 0zM81.5 17a6.5 6.5 0 11-13 0 6.5 6.5 0 1113 0zM156.5 17a6.5 6.5 0 11-13 0 6.5 6.5 0 1113 0zM156.5 92a6.5 6.5 0 11-13 0 6.5 6.5 0 1113 0zM81.5 92a6.5 6.5 0 11-13 0 6.5 6.5 0 1113 0z"/><path fill="none" stroke="#000" stroke-width="2" d="M115 127l35-35M40 127l35-35M40 52l35-35M115 52l35-35"/><text x="20.67" y="141.83" font-family="Bitstream Vera Sans" font-size="12" font-weight="400" text-anchor="middle" style="text-align:center"><tspan x="20.67" y="141.83">000</tspan></text><text x="134.205" y="141.83" font-family="Bitstream Vera Sans" font-size="12" font-weight="400" text-anchor="middle" style="text-align:center"><tspan x="134.205" y="141.83">001</tspan></text><text x="20.67" y="56.368" font-family="Bitstream Vera Sans" font-size="12" font-weight="400" text-anchor="middle" style="text-align:center"><tspan x="20.67" y="56.368">010</tspan></text><text x="89.342" y="110.906" font-family="Bitstream Vera Sans" font-size="12" font-weight="400" text-anchor="middle" style="text-align:center"><tspan x="89.342" y="110.906">100</tspan></text><text x="134.652" y="56.368" font-family="Bitstream Vera Sans" font-size="12" font-weight="400" text-anchor="middle" style="text-align:center"><tspan x="134.652" y="56.368">011</tspan></text><text x="170.143" y="21.374" font-family="Bitstream Vera Sans" font-size="12" font-weight="400" text-anchor="middle" style="text-align:center"><tspan x="170.143" y="21.374">111</tspan></text><text x="170.143" y="96.368" font-family="Bitstream Vera Sans" font-size="12" font-weight="400" text-anchor="middle" style="text-align:center"><tspan x="170.143" y="96.368">101</tspan></text><text x="54.342" y="15.906" font-family="Bitstream Vera Sans" font-size="12" font-weight="400" text-anchor="middle" style="text-align:center"><tspan x="54.342" y="15.906">110</tspan></text><path fill="none" stroke="#000" stroke-width="2" d="M40 127h75M115 127V52M115 52H40M40 52v75M75 92V17M75 17h75M150 17v75M150 92H75"/></g></svg>