<?xml version="1.0" encoding="UTF-8" standalone="no"?>
<svg
   xmlns:dc="http://purl.org/dc/elements/1.1/"
   xmlns:cc="http://creativecommons.org/ns#"
   xmlns:rdf="http://www.w3.org/1999/02/22-rdf-syntax-ns#"
   xmlns:svg="http://www.w3.org/2000/svg"
   xmlns="http://www.w3.org/2000/svg"
   xmlns:sodipodi="http://sodipodi.sourceforge.net/DTD/sodipodi-0.dtd"
   xmlns:inkscape="http://www.inkscape.org/namespaces/inkscape"
   viewBox="0 0 468.10001 274.93799"
   version="1.1"
   id="svg335"
   sodipodi:docname="111-coding.svg"
   width="468.10001"
   height="274.93799"
   inkscape:version="1.0.1 (3bc2e813f5, 2020-09-07)">
  <metadata
     id="metadata339">
    <rdf:RDF>
      <cc:Work
         rdf:about="">
        <dc:format>image/svg+xml</dc:format>
        <dc:type
           rdf:resource="http://purl.org/dc/dcmitype/StillImage" />
      </cc:Work>
    </rdf:RDF>
  </metadata>
  <sodipodi:namedview
     pagecolor="#ffffff"
     bordercolor="#666666"
     borderopacity="1"
     objecttolerance="10"
     gridtolerance="10"
     guidetolerance="10"
     inkscape:pageopacity="0"
     inkscape:pageshadow="2"
     inkscape:window-width="1920"
     inkscape:window-height="1016"
     id="namedview337"
     showgrid="false"
     inkscape:zoom="0.856"
     inkscape:cx="254.457"
     inkscape:cy="-26.31094"
     inkscape:window-x="0"
     inkscape:window-y="27"
     inkscape:window-maximized="1"
     inkscape:current-layer="g333" />
  <defs
     id="defs19">
    <linearGradient
       id="a"
       x1="505.00699"
       y1="194.72501"
       x2="505.00699"
       y2="719.20502"
       gradientUnits="userSpaceOnUse">
      <stop
         offset="0"
         stop-color="#fff"
         id="stop2" />
      <stop
         offset="0.093"
         stop-color="#fff"
         stop-opacity="0.864"
         id="stop4" />
      <stop
         offset="0.284"
         stop-color="#fff"
         stop-opacity="0.605"
         id="stop6" />
      <stop
         offset="0.466"
         stop-color="#fff"
         stop-opacity="0.389"
         id="stop8" />
      <stop
         offset="0.633"
         stop-color="#fff"
         stop-opacity="0.221"
         id="stop10" />
      <stop
         offset="0.784"
         stop-color="#fff"
         stop-opacity="0.1"
         id="stop12" />
      <stop
         offset="0.911"
         stop-color="#fff"
         stop-opacity="0.026"
         id="stop14" />
      <stop
         offset="1"
         stop-color="#fff"
         stop-opacity="0"
         id="stop16" />
    </linearGradient>
  </defs>
  <title
     id="title21">111-coding</title>
  <g
     style="isolation:isolate"
     id="g333"
     transform="translate(-245.543,-432.853)">
    <polygon
       points="196.043,701.562 427.014,201.676 583,201.676 813.971,701.562 "
       style="opacity:0.43;mix-blend-mode:overlay;fill:url(#a)"
       id="polygon153"
       transform="translate(-3.1216345,37.389096)" />
    <path
       d="m 310.7,435.853 h 337.778 a 17.113,17.113 0 0 1 17.113,17.113 v 222.887 h -372 V 452.965 A 17.113,17.113 0 0 1 310.7,435.853 Z"
       style="fill:#d2dce6"
       id="path161" />
    <path
       d="m 310.7,435.853 h 337.778 a 17.113,17.113 0 0 1 17.113,17.113 v 222.887 h -372 V 452.965 A 17.113,17.113 0 0 1 310.7,435.853 Z"
       style="fill:none;stroke:#283035;stroke-width:6px;stroke-linecap:round;stroke-linejoin:round"
       id="path163" />
    <rect
       x="387.591"
       y="398.13599"
       width="184"
       height="316"
       transform="rotate(90,479.591,556.136)"
       style="fill:#ff5c5c"
       id="rect165" />
    <line
       x1="505.00699"
       y1="618.78101"
       x2="557.00702"
       y2="618.78101"
       style="opacity:0.3;fill:#ffffff;stroke:#ffffff;stroke-width:6px;stroke-linecap:round;stroke-linejoin:round"
       id="line167" />
    <g
       style="opacity:0.3"
       id="g173">
      <path
         d="m 631.78,561.585 a 4.464,4.464 0 0 1 4.547,3.143 v -11.455 a 12.25,12.25 0 0 0 -3.38,-0.492 h -1.167 q -3.774,0 -3.773,3.773 v 1.346 c 0,2.427 1.257,3.685 3.773,3.685 z"
         style="fill:#ffffff"
         id="path169" />
      <path
         d="m 636.327,616.494 a 4.472,4.472 0 0 1 -4.547,3.12 q -3.774,0 -3.773,3.772 v 1.348 q 0,3.772 3.773,3.773 h 1.167 a 12.25,12.25 0 0 0 3.38,-0.492 z"
         style="fill:#ffffff"
         id="path171" />
    </g>
    <rect
       x="387.591"
       y="398.13599"
       width="184"
       height="316"
       transform="rotate(90,479.591,556.136)"
       style="fill:none;stroke:#283035;stroke-width:6px;stroke-linecap:round;stroke-linejoin:round"
       id="rect175" />
    <path
       d="m 252.543,676 h 454.1 a 4,4 0 0 1 4,4 v 4.791 a 20,20 0 0 1 -20,20 h -422.1 a 20,20 0 0 1 -20,-20 V 680 a 4,4 0 0 1 4,-4 z"
       style="fill:#e5e5e5"
       id="path177" />
    <path
       d="m 690.639,695.787 h -422.1 A 19.986,19.986 0 0 1 248.778,678.7 3.957,3.957 0 0 0 248.543,680 v 4.791 a 20,20 0 0 0 20,20 h 422.1 a 20,20 0 0 0 20,-20 V 680 a 3.957,3.957 0 0 0 -0.235,-1.3 19.986,19.986 0 0 1 -19.769,17.087 z"
       style="fill:#cfd1d0"
       id="path179" />
    <path
       d="m 252.543,676 h 454.1 a 4,4 0 0 1 4,4 v 4.791 a 20,20 0 0 1 -20,20 h -422.1 a 20,20 0 0 1 -20,-20 V 680 a 4,4 0 0 1 4,-4 z"
       style="fill:none;stroke:#283035;stroke-width:6px;stroke-linecap:round;stroke-linejoin:round"
       id="path181" />
    <path
       d="m 437.591,675.853 h 84 v 0 a 8,8 0 0 1 -8,8 h -68 a 8,8 0 0 1 -8,-8 z"
       style="fill:#686b6d"
       id="path183" />
    <path
       d="m 437.591,675.853 h 84 v 0 a 8,8 0 0 1 -8,8 h -68 a 8,8 0 0 1 -8,-8 z"
       style="fill:none;stroke:#283035;stroke-width:4px;stroke-linecap:round;stroke-linejoin:round"
       id="path185" />
    <circle
       cx="478.80399"
       cy="449.61899"
       r="8"
       style="fill:#686b6d"
       id="circle187" />
    <circle
       cx="478.80399"
       cy="449.61899"
       r="8"
       style="fill:none;stroke:#283035;stroke-width:4px;stroke-linecap:round;stroke-linejoin:round"
       id="circle189" />
    <path
       d="M 252.926,700.963"
       style="fill:none;stroke:#212728;stroke-width:6px;stroke-linecap:round;stroke-linejoin:round"
       id="path219" />
    <rect
       x="367.00699"
       y="499.78101"
       width="168"
       height="134"
       rx="8.0080004"
       style="opacity:0.14;mix-blend-mode:multiply"
       id="rect227" />
    <rect
       x="359.17401"
       y="492.78101"
       width="168"
       height="134"
       rx="8.0080004"
       style="fill:#353f49"
       id="rect229" />
    <rect
       x="359.17401"
       y="492.78101"
       width="168"
       height="134"
       rx="8.0080004"
       style="fill:none;stroke:#283035;stroke-width:4px;stroke-linecap:round;stroke-linejoin:round"
       id="rect231" />
    <path
       d="m 367.181,492.781 h 151.985 a 8.008,8.008 0 0 1 8.008,8.008 v 11.992 h -168 v -11.992 a 8.008,8.008 0 0 1 8.007,-8.008 z"
       style="fill:#eaeeef"
       id="path233" />
    <path
       d="m 367.181,492.781 h 151.985 a 8.008,8.008 0 0 1 8.008,8.008 v 11.992 h -168 v -11.992 a 8.008,8.008 0 0 1 8.007,-8.008 z"
       style="fill:none;stroke:#283035;stroke-width:4px;stroke-linecap:round;stroke-linejoin:round"
       id="path235" />
    <circle
       cx="373.50699"
       cy="502.78101"
       r="3.125"
       style="opacity:0.35;fill:#283035"
       id="circle237" />
    <circle
       cx="383.34"
       cy="502.78101"
       r="3.125"
       style="opacity:0.35;fill:#283035"
       id="circle239" />
    <circle
       cx="392.67401"
       cy="502.78101"
       r="3.125"
       style="opacity:0.35;fill:#283035"
       id="circle241" />
    <line
       x1="367.00699"
       y1="519.78101"
       x2="378.00699"
       y2="519.78101"
       style="fill:none;stroke:#46bb86;stroke-width:3px;stroke-miterlimit:10"
       id="line243" />
    <line
       x1="382.00699"
       y1="519.78101"
       x2="412.00699"
       y2="519.78101"
       style="fill:none;stroke:#46bb86;stroke-width:3px;stroke-miterlimit:10"
       id="line245" />
    <line
       x1="367.00699"
       y1="527.78101"
       x2="412.00699"
       y2="527.78101"
       style="fill:none;stroke:#389abe;stroke-width:3px;stroke-miterlimit:10"
       id="line247" />
    <line
       x1="376.00699"
       y1="535.78101"
       x2="398.00699"
       y2="535.78101"
       style="fill:none;stroke:#e5c689;stroke-width:3px;stroke-miterlimit:10"
       id="line249" />
    <line
       x1="402.00699"
       y1="535.78101"
       x2="426.00699"
       y2="535.78101"
       style="fill:none;stroke:#f2f3f4;stroke-width:3px;stroke-miterlimit:10"
       id="line251" />
    <line
       x1="388.00699"
       y1="543.78101"
       x2="434.00699"
       y2="543.78101"
       style="fill:none;stroke:#f2f3f4;stroke-width:3px;stroke-miterlimit:10"
       id="line253" />
    <line
       x1="388.00699"
       y1="551.78101"
       x2="422.00699"
       y2="551.78101"
       style="fill:none;stroke:#ffa49f;stroke-width:3px;stroke-miterlimit:10"
       id="line255" />
    <line
       x1="376.00699"
       y1="559.78101"
       x2="426.00699"
       y2="559.78101"
       style="fill:none;stroke:#f2f3f4;stroke-width:3px;stroke-miterlimit:10"
       id="line257" />
    <line
       x1="367.00699"
       y1="566.78101"
       x2="394.00699"
       y2="566.78101"
       style="fill:none;stroke:#389abe;stroke-width:3px;stroke-miterlimit:10"
       id="line259" />
    <g
       style="opacity:0.3"
       id="g263">
      <path
         d="m 599.643,605.522 c 0,-3.952 -1.528,-6.736 -4.582,-8.443 -2.156,-1.168 -3.054,-2.067 -3.054,-4.132 v -3.5 c 0,-2.425 1.078,-2.964 2.964,-4.222 3.144,-1.347 4.672,-4.221 4.672,-8.533 v -7.636 c 0,-6.108 2.245,-10.6 5.479,-12.486 a 15.02,15.02 0 0 1 8.264,-2.785 h 1.168 q 3.772,0 3.773,3.773 v 1.342 c 0,2.425 -1.258,3.683 -3.773,3.683 -3.5,0 -5.21,2.515 -5.21,7.635 v 9.432 a 11.959,11.959 0 0 1 -6.557,11.139 l -0.809,0.269 v 0.18 a 7.017,7.017 0 0 1 2.515,1.348 c 2.246,1.346 4.851,4.491 4.851,9.97 v 10.51 c 0,5.03 1.707,7.546 5.21,7.546 q 3.772,0 3.773,3.772 v 1.348 q 0,3.772 -3.773,3.773 h -1.168 a 15.02,15.02 0 0 1 -8.264,-2.785 c -3.234,-1.886 -5.479,-6.467 -5.479,-12.486 z"
         style="fill:#ffffff"
         id="path261" />
    </g>
    <path
       d="M 161.665,650.076"
       style="fill:none;stroke:#212728;stroke-linecap:round;stroke-miterlimit:10"
       id="path265" />
  </g>
</svg>
