<?xml version="1.0" encoding="UTF-8" standalone="no"?>
<svg
   xmlns:dc="http://purl.org/dc/elements/1.1/"
   xmlns:cc="http://creativecommons.org/ns#"
   xmlns:rdf="http://www.w3.org/1999/02/22-rdf-syntax-ns#"
   xmlns:svg="http://www.w3.org/2000/svg"
   xmlns="http://www.w3.org/2000/svg"
   xmlns:sodipodi="http://sodipodi.sourceforge.net/DTD/sodipodi-0.dtd"
   xmlns:inkscape="http://www.inkscape.org/namespaces/inkscape"
   version="1.1"
   id="Layer_1"
   x="0px"
   y="0px"
   viewBox="0 0 557.45898 458.91821"
   xml:space="preserve"
   sodipodi:docname="Security.svg"
   width="557.45898"
   height="458.91821"
   inkscape:version="1.0.1 (3bc2e813f5, 2020-09-07)"><metadata
   id="metadata305"><rdf:RDF><cc:Work
       rdf:about=""><dc:format>image/svg+xml</dc:format><dc:type
         rdf:resource="http://purl.org/dc/dcmitype/StillImage" /></cc:Work></rdf:RDF></metadata><defs
   id="defs303" /><sodipodi:namedview
   pagecolor="#ffffff"
   bordercolor="#666666"
   borderopacity="1"
   objecttolerance="10"
   gridtolerance="10"
   guidetolerance="10"
   inkscape:pageopacity="0"
   inkscape:pageshadow="2"
   inkscape:window-width="1920"
   inkscape:window-height="1016"
   id="namedview301"
   showgrid="false"
   inkscape:zoom="1.0808081"
   inkscape:cx="281.4795"
   inkscape:cy="217.80523"
   inkscape:window-x="0"
   inkscape:window-y="27"
   inkscape:window-maximized="1"
   inkscape:current-layer="Layer_1" />
<style
   type="text/css"
   id="style2">
	.st0{fill:#F5F7F7;}
	.st1{fill:#E2E2E2;}
	.st2{fill:#C4E0EC;}
	.st3{fill:#FFFFFF;}
	.st4{fill:#FFD46C;}
	.st5{fill:#E1B248;}
	.st6{fill:#FFE09D;}
	.st7{fill:none;stroke:#11426E;stroke-width:6.0249;stroke-linecap:round;stroke-miterlimit:10;}
	.st8{fill:#11426E;}
	.st9{fill:#E29E62;}
	.st10{fill:#C98855;}
	.st11{fill:#FBB47E;}
	.st12{fill:#C07D52;}
	.st13{fill:#12426D;}
	.st14{fill:#78A567;}
	.st15{fill:#6E945F;}
	.st16{fill:#92BA81;}
	.st17{fill:#FBD8AE;}
	.st18{fill:#91C67D;}
	.st19{fill:#C3E1B2;}
	.st20{fill:#74A1D1;}
	.st21{fill:#527B9B;}
	.st22{fill:#93BDE5;}
	.st23{fill:#3C586A;}
	.st24{fill:#334E5C;}
	.st25{fill:#FBBA99;}
	.st26{fill:#FFEBD8;}
	.st27{fill:#FDCFAF;}
	.st28{fill:#BB7C51;}
</style>
<g
   id="Coin_3"
   transform="translate(-24.520499,-178.19477)">
	<path
   id="XMLID_201_"
   class="st0"
   d="m 518.5,611.8 h -6.9 l -4.5,5.5 0.9,8.8 c 0,0 2.4,5.6 4.7,7.2 2.3,1.6 11.2,0 11.2,0 l 4.2,-7.2 -0.3,-5.2 -2.4,-5.7 z" />
	<path
   id="XMLID_200_"
   class="st1"
   d="m 518.5,611.8 c 0,0 -15.3,10.3 2,22.2 l -5.3,0.9 -6.1,-3.6 -1.2,-7 -0.7,-6.9 4.5,-5.5 h 6.8 z" />
	<g
   id="XMLID_212_">
		<g
   id="XMLID_239_">
			<path
   id="XMLID_246_"
   class="st2"
   d="m 521.5,634.3 c -2,0 -4,-0.9 -5.8,-2.6 -2,-1.9 -3.4,-4.7 -4,-7.8 -1.3,-6.6 1.7,-12.7 6.5,-13.6 4.9,-0.9 9.9,3.7 11.1,10.2 1.3,6.6 -1.7,12.7 -6.5,13.6 -0.4,0.2 -0.9,0.2 -1.3,0.2 z m -2,-21.2 c -0.2,0 -0.5,0 -0.7,0.1 -3.3,0.6 -5.2,5.3 -4.3,10.2 0.5,2.5 1.6,4.7 3.2,6.2 1.4,1.4 3.1,2 4.6,1.7 3.3,-0.6 5.2,-5.3 4.3,-10.2 -0.9,-4.5 -4,-8 -7.1,-8 z" />
		</g>
		<g
   id="XMLID_219_">
			<path
   id="XMLID_181_"
   class="st2"
   d="m 515.8,634.3 c -2,0 -4,-0.9 -5.8,-2.6 -2,-1.9 -3.4,-4.7 -4,-7.8 -1.3,-6.6 1.7,-12.7 6.5,-13.6 h 0.3 5.7 c 0.8,0 1.4,0.6 1.4,1.4 0,0.8 -0.6,1.4 -1.4,1.4 H 513 c -3.2,0.7 -5.1,5.4 -4.1,10.2 0.5,2.5 1.6,4.7 3.2,6.2 1.4,1.4 3.1,2 4.6,1.7 h 0.3 5.7 c 0.8,0 1.4,0.6 1.4,1.4 0,0.8 -0.6,1.4 -1.4,1.4 H 517 c -0.4,0.3 -0.8,0.3 -1.2,0.3 z" />
		</g>
	</g>
</g>
<g
   id="Safe"
   transform="translate(-24.520499,-178.19477)">
	<polygon
   id="XMLID_207_"
   class="st0"
   points="513.8,606.9 504.8,614.7 494.4,617.1 374.9,617.1 361.3,609.1 355.9,600.8 355.9,509.2 359.5,499.4 364.7,493.9 376.5,488.2 386,489 499.9,489 511.4,496.4 517.9,507.6 517.9,597.6 " />
	<path
   id="XMLID_206_"
   class="st1"
   d="m 476.2,528.7 -3.5,3.9 -4,-3.9 -5.9,-1.9 -3.3,2.9 V 572 l 4.9,3.9 5.1,-3.9 1,-14.3 5.8,1.3 5.6,-1.9 4.2,-8.3 5,-8.1 c -0.2,0 1.8,-13 -14.9,-12 z" />
	<polygon
   id="XMLID_205_"
   class="st1"
   points="496,633.2 496,617.1 455.2,618.5 455.2,633.2 " />
	<polygon
   id="XMLID_204_"
   class="st1"
   points="415.4,633.2 415.4,617.1 374.6,618.5 374.6,633.2 " />
	<polygon
   id="XMLID_203_"
   class="st0"
   points="496,633.2 494.4,617.1 455.2,618.5 482.7,624.2 " />
	<polygon
   id="XMLID_202_"
   class="st0"
   points="415.4,633.2 413.8,617.1 374.6,618.5 402.1,624.2 " />
	<path
   id="XMLID_199_"
   class="st3"
   d="m 415.4,604.8 c 0,0 93.6,-3.9 90.8,-69.5 l 0.9,43.5 -4.5,20.6 -9.6,6.5 -43.5,0.8 z" />
	<path
   id="XMLID_198_"
   class="st3"
   d="m 464.3,489 c 0,0 19.5,0.6 23.6,10.4 l 8.1,2.1 9.4,9.8 V 539 c 0,0 0.4,-15.9 12.6,-20.7 l 0.6,-13.2 -10.4,-11.5 -6.4,-3.3 z" />
	<circle
   id="XMLID_197_"
   class="st3"
   cx="480.70001"
   cy="539"
   r="4.4000001" />
	<polygon
   id="XMLID_196_"
   class="st3"
   points="459,571.1 459,527.8 462.7,526.8 462.7,574.1 " />
	<g
   id="XMLID_210_">
		<g
   id="XMLID_274_">
			<path
   id="XMLID_275_"
   class="st2"
   d="M 494.4,619.4 H 379 c -14.2,0 -25.8,-11.6 -25.8,-25.8 v -81.1 c 0,-14.2 11.6,-25.8 25.8,-25.8 h 115.4 c 14.2,0 25.8,11.6 25.8,25.8 v 81.1 c -0.1,14.2 -11.6,25.8 -25.8,25.8 z M 379,491.3 c -11.7,0 -21.2,9.5 -21.2,21.2 v 81.1 c 0,11.7 9.5,21.2 21.2,21.2 h 115.4 c 11.7,0 21.2,-9.5 21.2,-21.2 v -81.1 c 0,-11.7 -9.5,-21.2 -21.2,-21.2 z" />
		</g>
		<g
   id="XMLID_270_">
			<path
   id="XMLID_271_"
   class="st2"
   d="M 487.1,609 H 386.3 C 374,609 364,599 364,586.7 v -67.2 c 0,-12.3 10,-22.3 22.3,-22.3 h 100.8 c 12.3,0 22.3,10 22.3,22.3 v 67.2 c 0,12.3 -10,22.3 -22.3,22.3 z M 386.3,501.7 c -9.8,0 -17.8,8 -17.8,17.8 v 67.2 c 0,9.8 8,17.8 17.8,17.8 h 100.8 c 9.8,0 17.8,-8 17.8,-17.8 v -67.2 c 0,-9.8 -8,-17.8 -17.8,-17.8 z" />
		</g>
		<g
   id="XMLID_266_">
			<path
   id="XMLID_267_"
   class="st2"
   d="m 480.7,551.5 c -6.9,0 -12.6,-5.6 -12.6,-12.6 0,-6.9 5.6,-12.6 12.6,-12.6 6.9,0 12.6,5.6 12.6,12.6 -0.1,7 -5.7,12.6 -12.6,12.6 z m 0,-20.5 c -4.4,0 -8,3.6 -8,8 0,4.4 3.6,8 8,8 4.4,0 8,-3.6 8,-8 0,-4.4 -3.6,-8 -8,-8 z" />
		</g>
		<g
   id="XMLID_261_">
			<g
   id="XMLID_262_">
				<path
   id="XMLID_263_"
   class="st2"
   d="m 464.3,578 c -4.2,0 -7.6,-3.4 -7.6,-7.6 v -38.5 c 0,-4.2 3.4,-7.6 7.6,-7.6 4.2,0 7.6,3.4 7.6,7.6 v 38.5 c 0.1,4.1 -3.4,7.6 -7.6,7.6 z m 0,-49.2 c -1.7,0 -3.1,1.4 -3.1,3.1 v 38.5 c 0,1.7 1.4,3.1 3.1,3.1 1.7,0 3.1,-1.4 3.1,-3.1 v -38.5 c 0,-1.8 -1.4,-3.1 -3.1,-3.1 z" />
			</g>
		</g>
		<g
   id="XMLID_258_">
			<path
   id="XMLID_109_"
   class="st2"
   d="m 476.2,561.3 c -3.6,0 -6.7,-1.5 -6.8,-1.6 -1.1,-0.6 -1.6,-1.9 -1,-3 0.6,-1.1 1.9,-1.6 3,-1 v 0 c 0,0 4.6,2.2 8,0.4 2.2,-1.2 3.6,-4 4.1,-8.4 0.1,-1.2 1.3,-2.1 2.5,-2 1.2,0.1 2.1,1.3 2,2.5 -0.7,5.9 -2.9,9.9 -6.5,11.8 -1.8,1 -3.6,1.3 -5.3,1.3 z" />
		</g>
		<g
   id="XMLID_249_">
			<g
   id="XMLID_256_">
				<path
   id="XMLID_108_"
   class="st2"
   d="m 455.2,637.1 c -1.3,0 -2.3,-1 -2.3,-2.3 v -17.5 c 0,-1.3 1,-2.3 2.3,-2.3 1.3,0 2.3,1 2.3,2.3 v 17.5 c 0,1.3 -1,2.3 -2.3,2.3 z" />
			</g>
			<g
   id="XMLID_251_">
				<path
   id="XMLID_107_"
   class="st2"
   d="m 496,637.1 c -1.3,0 -2.3,-1 -2.3,-2.3 v -17.5 c 0,-1.3 1,-2.3 2.3,-2.3 1.3,0 2.3,1 2.3,2.3 v 17.5 c 0,1.3 -1.1,2.3 -2.3,2.3 z" />
			</g>
		</g>
		<g
   id="XMLID_232_">
			<g
   id="XMLID_244_">
				<path
   id="XMLID_106_"
   class="st2"
   d="m 374.9,637.1 c -1.3,0 -2.3,-1 -2.3,-2.3 v -17.5 c 0,-1.3 1,-2.3 2.3,-2.3 1.3,0 2.3,1 2.3,2.3 v 17.5 c -0.1,1.3 -1.1,2.3 -2.3,2.3 z" />
			</g>
			<g
   id="XMLID_235_">
				<path
   id="XMLID_105_"
   class="st2"
   d="m 415.6,637.1 c -1.3,0 -2.3,-1 -2.3,-2.3 v -17.5 c 0,-1.3 1,-2.3 2.3,-2.3 1.3,0 2.3,1 2.3,2.3 v 17.5 c 0,1.3 -1,2.3 -2.3,2.3 z" />
			</g>
		</g>
		<g
   id="XMLID_221_">
			<path
   id="XMLID_104_"
   class="st2"
   d="m 469.7,601.3 h -35.4 c -0.8,0 -1.4,-0.6 -1.4,-1.4 0,-0.8 0.6,-1.4 1.4,-1.4 h 35.4 c 0.8,0 1.4,0.6 1.4,1.4 0,0.8 -0.6,1.4 -1.4,1.4 z" />
		</g>
		<g
   id="XMLID_214_">
			<path
   id="XMLID_103_"
   class="st2"
   d="m 483.8,601.3 h -7.7 c -0.8,0 -1.4,-0.6 -1.4,-1.4 0,-0.8 0.6,-1.4 1.4,-1.4 h 7.7 c 0.8,0 1.4,0.6 1.4,1.4 0,0.8 -0.6,1.4 -1.4,1.4 z" />
		</g>
		<g
   id="XMLID_211_">
			<path
   id="XMLID_102_"
   class="st2"
   d="m 480.7,506.5 h -57.3 c -0.8,0 -1.4,-0.6 -1.4,-1.4 0,-0.8 0.6,-1.4 1.4,-1.4 h 57.3 c 0.8,0 1.4,0.6 1.4,1.4 0,0.8 -0.6,1.4 -1.4,1.4 z" />
		</g>
	</g>
</g>
<g
   id="Coins_2"
   transform="translate(-24.520499,-178.19477)">
	<rect
   id="XMLID_188_"
   x="136.5"
   y="571.09998"
   class="st0"
   width="24.700001"
   height="62.900002" />
	<polygon
   id="XMLID_187_"
   class="st1"
   points="162.3,635.4 162.3,571 153.5,571.1 153.5,635.4 " />
	<rect
   id="XMLID_186_"
   x="136.5"
   y="571"
   class="st3"
   width="6"
   height="63.900002" />
	<g
   id="XMLID_2_">
		<g
   id="XMLID_3_">
			<path
   id="XMLID_4_"
   class="st2"
   d="m 163.5,637.1 h -29.2 v -68.3 h 29.2 z m -24.7,-4.6 H 159 v -59.2 h -20.2 z" />
		</g>
		<g
   id="XMLID_5_">
			<g
   id="XMLID_6_">
				<g
   id="XMLID_7_">
					<path
   id="XMLID_99_"
   class="st2"
   d="m 161.2,585.8 h -24.7 c -1.3,0 -2.3,-1 -2.3,-2.3 0,-1.3 1,-2.3 2.3,-2.3 h 24.7 c 1.3,0 2.3,1 2.3,2.3 0,1.2 -1,2.3 -2.3,2.3 z" />
				</g>
				<g
   id="XMLID_8_">
					<path
   id="XMLID_98_"
   class="st2"
   d="m 161.2,596.1 h -24.7 c -1.3,0 -2.3,-1 -2.3,-2.3 0,-1.3 1,-2.3 2.3,-2.3 h 24.7 c 1.3,0 2.3,1 2.3,2.3 0,1.3 -1,2.3 -2.3,2.3 z" />
				</g>
			</g>
			<g
   id="XMLID_9_">
				<g
   id="XMLID_10_">
					<path
   id="XMLID_97_"
   class="st2"
   d="m 161.2,607.1 h -24.7 c -1.3,0 -2.3,-1 -2.3,-2.3 0,-1.3 1,-2.3 2.3,-2.3 h 24.7 c 1.3,0 2.3,1 2.3,2.3 0,1.3 -1,2.3 -2.3,2.3 z" />
				</g>
				<g
   id="XMLID_11_">
					<path
   id="XMLID_96_"
   class="st2"
   d="m 161.2,617.5 h -24.7 c -1.3,0 -2.3,-1 -2.3,-2.3 0,-1.3 1,-2.3 2.3,-2.3 h 24.7 c 1.3,0 2.3,1 2.3,2.3 0,1.3 -1,2.3 -2.3,2.3 z" />
				</g>
			</g>
		</g>
	</g>
</g>
<g
   id="Coins"
   transform="translate(-24.520499,-178.19477)">
	<polygon
   id="XMLID_195_"
   class="st0"
   points="279.4,634.8 306.3,634.8 306.3,608.3 280.5,608.3 280.5,581.7 254.7,581.7 254.7,634.8 " />
	<rect
   id="XMLID_194_"
   x="254.7"
   y="582.09998"
   class="st1"
   width="7.9000001"
   height="51.900002" />
	<polygon
   id="XMLID_193_"
   class="st1"
   points="280.5,633.9 280.5,608 288.8,606.7 288.8,633.9 " />
	<polygon
   id="XMLID_192_"
   class="st3"
   points="280.5,634.5 280.5,581.7 271.3,581.6 271.3,634.5 " />
	<polygon
   id="XMLID_191_"
   class="st3"
   points="306.3,635.4 306.3,609.5 297.5,608 297.5,635.4 " />
	<g
   id="XMLID_12_">
		<g
   id="XMLID_13_">
			<path
   id="XMLID_14_"
   class="st2"
   d="m 281.6,637.1 h -29.2 v -57.7 h 29.2 z m -24.7,-4.6 h 20.2 V 584 h -20.2 z" />
		</g>
		<g
   id="XMLID_15_">
			<path
   id="XMLID_16_"
   class="st2"
   d="M 307.7,637.1 H 278.5 V 606 h 29.2 z M 283,632.5 h 20.2 v -22 H 283 Z" />
		</g>
		<g
   id="XMLID_17_">
			<g
   id="XMLID_18_">
				<g
   id="XMLID_19_">
					<path
   id="XMLID_91_"
   class="st2"
   d="m 279.4,594.7 h -24.7 c -1.3,0 -2.3,-1 -2.3,-2.3 0,-1.3 1,-2.3 2.3,-2.3 h 24.7 c 1.3,0 2.3,1 2.3,2.3 -0.1,1.3 -1.1,2.3 -2.3,2.3 z" />
				</g>
				<g
   id="XMLID_20_">
					<path
   id="XMLID_90_"
   class="st2"
   d="m 279.4,605.1 h -24.7 c -1.3,0 -2.3,-1 -2.3,-2.3 0,-1.3 1,-2.3 2.3,-2.3 h 24.7 c 1.3,0 2.3,1 2.3,2.3 0,1.3 -1.1,2.3 -2.3,2.3 z" />
				</g>
			</g>
			<g
   id="XMLID_21_">
				<g
   id="XMLID_22_">
					<path
   id="XMLID_89_"
   class="st2"
   d="m 279.4,616.1 h -24.7 c -1.3,0 -2.3,-1 -2.3,-2.3 0,-1.3 1,-2.3 2.3,-2.3 h 24.7 c 1.3,0 2.3,1 2.3,2.3 0,1.3 -1.1,2.3 -2.3,2.3 z" />
				</g>
				<g
   id="XMLID_23_">
					<path
   id="XMLID_88_"
   class="st2"
   d="m 279.4,626.4 h -24.7 c -1.3,0 -2.3,-1 -2.3,-2.3 0,-1.3 1,-2.3 2.3,-2.3 h 24.7 c 1.3,0 2.3,1 2.3,2.3 -0.1,1.3 -1.1,2.3 -2.3,2.3 z" />
				</g>
			</g>
		</g>
		<g
   id="XMLID_24_">
			<path
   id="XMLID_87_"
   class="st2"
   d="m 301.9,619.6 h -20.3 c -1.3,0 -2.3,-1 -2.3,-2.3 0,-1.3 1,-2.3 2.3,-2.3 h 20.3 c 1.3,0 2.3,1 2.3,2.3 0,1.3 -1,2.3 -2.3,2.3 z" />
		</g>
	</g>
</g>
<g
   id="Coin_2"
   transform="translate(-24.520499,-178.19477)">
	<polygon
   id="XMLID_185_"
   class="st0"
   points="114.6,615.2 112.2,620.9 113.4,629.6 117.6,632.8 125.3,632.8 130.1,629.6 132.7,623.7 132.7,617.3 128.5,612.2 119.6,612.2 " />
	<polygon
   id="XMLID_184_"
   class="st1"
   points="126.4,615.2 127.3,622.7 125.3,628.4 119.6,632.8 122.5,633.9 130.1,629.6 132.7,623.7 132.7,617.3 128.5,612.2 124.2,612.2 " />
	<g
   id="XMLID_25_">
		<g
   id="XMLID_26_">
			<path
   id="XMLID_27_"
   class="st2"
   d="m 118.7,634.3 c -0.4,0 -0.9,0 -1.3,-0.1 -4.9,-0.9 -7.8,-7 -6.5,-13.6 1.3,-6.6 6.2,-11.1 11.1,-10.2 4.9,0.9 7.8,7 6.6,13.6 v 0 c -0.6,3.1 -2,5.9 -4,7.8 -1.9,1.6 -3.9,2.5 -5.9,2.5 z m 1.9,-21.2 c -3,0 -6.1,3.5 -7,8 -0.9,4.9 1,9.6 4.3,10.2 1.5,0.3 3.1,-0.3 4.6,-1.7 1.6,-1.5 2.7,-3.7 3.2,-6.2 v 0 c 0.9,-4.9 -1,-9.6 -4.3,-10.3 -0.3,0 -0.5,0 -0.8,0 z" />
		</g>
		<g
   id="XMLID_28_">
			<path
   id="XMLID_84_"
   class="st2"
   d="m 124.3,634.3 c -0.4,0 -0.8,0 -1.2,-0.1 h -5.5 c -0.8,0 -1.4,-0.6 -1.4,-1.4 0,-0.8 0.6,-1.4 1.4,-1.4 h 5.9 c 1.5,0.3 3.1,-0.3 4.6,-1.7 1.6,-1.5 2.7,-3.7 3.2,-6.2 0.9,-4.9 -1,-9.5 -4.1,-10.2 h -5.5 c -0.8,0 -1.4,-0.6 -1.4,-1.4 0,-0.8 0.6,-1.4 1.4,-1.4 h 5.9 c 4.9,0.9 7.8,7 6.5,13.6 -0.6,3.1 -2,5.9 -4,7.8 -1.7,1.5 -3.7,2.4 -5.8,2.4 z" />
		</g>
	</g>
</g>
<g
   id="Coin"
   transform="translate(-24.520499,-178.19477)">
	<polygon
   id="XMLID_190_"
   class="st0"
   points="232.6,617.3 231.7,624.2 234,629.9 240,632.4 245.1,632.9 251.2,628.5 254.7,621.7 252.4,615.2 246.1,612.2 242.8,611.3 236.9,613.8 " />
	<path
   id="XMLID_189_"
   class="st1"
   d="m 247.6,613.8 4.8,1.4 1.7,4.9 -1,5.1 -4.3,5.8 -3.7,2 H 241 l -2.5,-2 c 0,-0.1 12.2,-5.6 9.1,-17.2 z" />
	<g
   id="XMLID_29_">
		<g
   id="XMLID_30_">
			<path
   id="XMLID_31_"
   class="st2"
   d="m 237.7,632.7 c -1.4,0 -2.6,-0.3 -3.8,-1 -4.2,-2.6 -4.8,-9.3 -1.3,-15 3.5,-5.7 9.8,-8.2 14,-5.6 2.1,1.3 3.4,3.7 3.6,6.6 0.2,2.8 -0.6,5.8 -2.3,8.4 -1.6,2.7 -4,4.8 -6.5,5.9 -1.2,0.4 -2.5,0.7 -3.7,0.7 z m 5.2,-19.9 c -2.6,0 -5.8,2 -7.8,5.3 -2.6,4.3 -2.5,9.4 0.4,11.1 1.3,0.8 3,0.8 4.9,0 2,-0.9 3.8,-2.5 5.2,-4.7 v 0 c 1.3,-2.2 2,-4.6 1.9,-6.8 -0.1,-2 -0.9,-3.5 -2.2,-4.3 -0.9,-0.4 -1.6,-0.6 -2.4,-0.6 z" />
		</g>
		<g
   id="XMLID_32_">
			<path
   id="XMLID_81_"
   class="st2"
   d="m 242.9,634.6 c -1.3,0 -2.5,-0.3 -3.6,-0.9 l -5.2,-2 c -0.7,-0.3 -1.1,-1.1 -0.8,-1.9 0.3,-0.7 1.1,-1.1 1.9,-0.8 l 5.5,2.1 c 2.8,1.7 7.4,-0.4 10.1,-4.7 2.6,-4.2 2.5,-9.2 -0.3,-11 l -5.2,-2 c -0.7,-0.3 -1.1,-1.1 -0.8,-1.9 0.3,-0.7 1.1,-1.1 1.9,-0.8 l 5.5,2.1 c 4.2,2.6 4.8,9.3 1.3,15 -2.5,4.4 -6.6,6.8 -10.3,6.8 z" />
		</g>
	</g>
</g>
<g
   id="Hair_3_"
   transform="translate(-24.520499,-178.19477)">
	<g
   id="XMLID_215_">
		<polygon
   id="XMLID_216_"
   class="st4"
   points="226.9,280.2 230.4,255.8 226.6,235.6 225.1,221.8 228.8,205.6 238,190.3 254.4,182.4 278.9,183 316.1,198.5 327.1,192.2 343.3,186.3 381.5,185.6 406.6,197 425.5,216.1 436.2,244 445.8,269.2 445.5,286.9 446.9,302.5 444.5,330.2 436.5,357.3 424.8,413.9 425.6,437.9 435.2,453.2 414.9,462 401.2,458.4 389.9,453.7 379.1,457.6 368.3,460.4 357.9,463.6 337.7,463.2 312,456.9 292.6,434.3 257.7,440.6 228.2,438 206.8,427.4 191.9,409.1 185.9,378.6 194.3,339.1 213.6,301.5 " />
	</g>
	<g
   id="XMLID_175_">
		<path
   id="XMLID_213_"
   class="st5"
   d="m 374.9,461.6 -25.3,3.9 -37.6,-8.6 -9,-9.4 -10.5,-13.2 -19.1,4.5 -15.8,1.8 -26.2,0.5 -24.7,-13.7 -10.6,-17.5 c 3.2,-77.7 46.9,-98.5 46.9,-98.5 l 11.3,8.3 87.4,20.8 29.9,5.7 13.1,-8 c -31.7,102.4 5.2,115.5 5.2,115.5 z" />
	</g>
	<g
   id="XMLID_173_">
		<path
   id="XMLID_174_"
   class="st5"
   d="m 310.9,218.3 c 0,0 28,49.1 77.2,32.7 0,0 9.7,33.8 36.2,36.4 L 404,288 390.7,279.8 379.8,265.3 356,263.9 331.8,252.7 322.5,243 311,222.9 Z" />
	</g>
	<g
   id="XMLID_171_">
		<path
   id="XMLID_172_"
   class="st5"
   d="m 242.3,237.4 c 0,0 51.8,-3.7 71.3,-29.2 0,0 -14.9,47.1 -71.3,29.2 z" />
	</g>
	<g
   id="XMLID_169_">
		<path
   id="XMLID_170_"
   class="st6"
   d="m 230.7,301 c 19.8,-25.2 -1.9,-63.2 -1.9,-63.2 l -0.1,25.4 -1.7,16.9 -11.6,18.5 -15,19.6 -11.7,40 2.3,46.1 c 0,0.1 7.9,-62.8 39.7,-103.3 z" />
	</g>
	<g
   id="XMLID_167_">
		<path
   id="XMLID_168_"
   class="st6"
   d="m 316.7,201.1 c 0,0 46.8,-26 91.3,26.3 44.5,52.3 4.3,150.1 4.3,150.1 0,0 -30,97.8 22.9,75.7 l -9.7,-18.9 6.7,-56.5 14.2,-80.1 -10.2,-53.7 -10.7,-27.9 -25.7,-23.5 -23.7,-7 -22.7,-0.3 -26.3,6.9 z" />
	</g>
	<g
   id="XMLID_165_">
		<path
   id="XMLID_166_"
   class="st6"
   d="m 228.8,240 c 0,0 -5.8,-57.9 87.9,-38.8 l -8.9,-6.9 -29,-11.1 -17.8,-1.7 -11.7,2.6 -11.4,6.4 -6.2,9.7 -3.9,10 -2.7,11.8 z" />
	</g>
	<g
   id="XMLID_163_">
		<path
   id="XMLID_164_"
   class="st7"
   d="M 214.8,342.2" />
	</g>
	<g
   id="XMLID_159_">
		<path
   id="XMLID_160_"
   class="st8"
   d="m 208.6,432.5 c -15.8,-10.7 -24.5,-28.8 -25.7,-53.7 v -0.3 c 1.9,-36.6 19.3,-65.5 29.6,-82.8 2.4,-4 4.4,-7.4 5.8,-10.1 6.8,-13.4 5.7,-46.4 5.7,-48.2 -0.2,-2.7 -3.4,-41.8 16.7,-52.8 19.8,-10.9 39.6,-8.2 75.2,10.5 4.6,-2.7 19.3,-10.5 38.1,-13.1 20.8,-2.9 50.5,0.4 73.9,32.3 l 0.1,0.1 c 0.4,0.6 9.7,14.7 15.7,39.6 5.6,22.9 9.4,59.5 -4.3,104.1 -24.7,80.3 -3.1,92.2 -3,92.3 l 4.6,2 -3.9,3.1 c -0.2,0.2 -17.6,13.9 -35.7,8.6 -4.1,-1.2 -8.2,-3.4 -12.2,-6.9 -5.1,2.1 -20.1,7.5 -37.6,8.7 -27.7,1.9 -48.5,-7.8 -60.5,-28 -8.7,2.6 -38.8,10.4 -65.3,2.6 -6,-1.8 -11.8,-4.3 -17.2,-8 z m 86.6,0.4 c 10.6,19.8 29.4,28.9 55.8,27.1 20.2,-1.4 37.5,-8.9 37.6,-9 l 1.9,-0.8 1.5,1.5 c 14.1,14.1 31.2,5.8 38.2,1.5 -2.4,-2.6 -5.3,-7.2 -7.1,-15.2 -4,-18.2 -0.5,-45.6 10.5,-81.4 C 458.7,275 424.2,219.9 423,218 c -17.3,-23.6 -40.2,-33.7 -67.9,-29.9 -21.1,2.9 -37.2,13 -37.4,13.1 l -1.5,0.9 -1.5,-0.8 c -34.9,-18.5 -52.8,-21.3 -71,-11.3 -16.9,9.3 -13.7,46.7 -13.6,47.1 v 0.2 c 0.1,1.5 1.4,36.1 -6.3,51.2 -1.5,2.9 -3.6,6.4 -6,10.5 -10.1,16.8 -26.9,44.9 -28.8,79.9 1.2,22.8 8.9,39.3 23.1,48.9 29.9,20.4 79.1,4.1 79.6,3.9 l 2.4,-0.8 z" />
	</g>
	<g
   id="XMLID_157_">
		<path
   id="XMLID_158_"
   class="st8"
   d="m 350.6,254 c 1,0.3 2.1,-0.2 2.4,-1.2 0.4,-1 -0.2,-2.2 -1.2,-2.5 -17.8,-6.3 -28.1,-29.5 -28.2,-29.8 -0.4,-1 -1.6,-1.5 -2.6,-1 -1,0.4 -1.5,1.6 -1,2.6 0.4,1 11.1,25.1 30.6,31.9 -0.1,0 0,0 0,0 z" />
	</g>
	<g
   id="XMLID_155_">
		<path
   id="XMLID_156_"
   class="st8"
   d="m 360.1,256.6 c 2.5,0.7 9.1,2.1 16.1,-0.9 1,-0.4 1.5,-1.6 1,-2.6 -0.4,-1 -1.6,-1.5 -2.6,-1 -7.2,3.1 -14.1,0.5 -14.2,0.5 -1,-0.4 -2.2,0.1 -2.6,1.1 -0.4,1 0.1,2.2 1.1,2.6 0.2,0 0.6,0.1 1.2,0.3 z" />
	</g>
	<g
   id="XMLID_153_">
		<path
   id="XMLID_154_"
   class="st8"
   d="m 235.3,217.6 c 0.9,0.3 1.9,-0.1 2.3,-1 v 0 c 0.5,-0.9 13.1,-23.1 52.6,-13.4 1.1,0.3 2.1,-0.4 2.4,-1.5 0.3,-1.1 -0.4,-2.1 -1.5,-2.4 -42.6,-10.4 -56.5,14.4 -57,15.4 -0.5,1 -0.2,2.2 0.8,2.7 0.1,0.1 0.3,0.2 0.4,0.2 z" />
	</g>
	<g
   id="XMLID_150_">
		<path
   id="XMLID_151_"
   class="st8"
   d="m 422.9,242.2 c 0.4,0.1 0.7,0.1 1.1,0 1.1,-0.3 1.7,-1.4 1.4,-2.5 -0.1,-0.4 -11.1,-37 -46.1,-42 -1.1,-0.2 -2.1,0.6 -2.3,1.7 -0.2,1.1 0.6,2.1 1.7,2.3 32.5,4.7 42.8,38.9 42.9,39.2 0.1,0.6 0.7,1.1 1.3,1.3 z" />
	</g>
	<g
   id="XMLID_148_">
		<path
   id="XMLID_149_"
   class="st8"
   d="m 431.1,264 c 0.4,0.1 0.8,0.1 1.2,0 1,-0.3 1.6,-1.4 1.3,-2.5 l -4,-12.9 c -0.3,-1 -1.4,-1.6 -2.5,-1.3 -1,0.3 -1.6,1.4 -1.3,2.5 l 4,12.9 c 0.2,0.6 0.7,1.1 1.3,1.3 z" />
	</g>
	<g
   id="XMLID_146_">
		<path
   id="XMLID_147_"
   class="st8"
   d="m 399.7,442.1 c 0.7,0.2 1.4,0 2,-0.5 0.8,-0.8 0.8,-2 0,-2.8 -0.3,-0.3 -18.8,-20.9 8.6,-80.4 0.5,-1 0,-2.2 -1,-2.6 -1,-0.5 -2.2,0 -2.6,1 -28.7,62.4 -8.7,83.9 -7.8,84.8 0.2,0.2 0.5,0.4 0.8,0.5 z" />
	</g>
</g>
<g
   id="Key"
   transform="translate(-24.520499,-178.19477)">
	<path
   id="XMLID_259_"
   class="st9"
   d="m 109,306.2 c -29,-1.4 -53.6,21.5 -55,51.2 -1.4,29.7 20.9,54.8 49.9,56.2 29,1.4 53.6,-21.5 55,-51.2 1.4,-29.7 -20.9,-54.9 -49.9,-56.2 z m -4.7,93.6 c -23,-1.1 -40.6,-22.5 -39.6,-43.8 1,-21.4 20.8,-40.4 43.8,-39.3 23,1.1 40.4,21.9 39.3,43.3 -1,21.3 -20.6,40.9 -43.5,39.8 z" />
	<g
   id="XMLID_209_">
		<polygon
   id="XMLID_69_"
   class="st9"
   points="33.9,356.4 27.2,364.6 28.1,374.1 34.5,380.4 42.1,381.5 51.8,376.8 53.3,370.5 49.5,358.7 40.8,354.9 " />
		<polygon
   id="XMLID_68_"
   class="st9"
   points="544.1,285.3 550.1,285.5 552.8,288 555.4,280.7 564.1,275.4 574.5,276.3 578.5,283.4 577.9,295 571.1,301.2 562.6,301.9 557.7,298.3 553.5,292.8 550.1,296.8 535.8,299.5 543.7,352 530.4,354 527.3,340 519.6,332 509.3,327.7 499.5,329.1 490.9,334.1 486.1,340.5 483.5,350.6 484.7,360.9 471.3,362.9 463.8,310.5 167.5,355.2 164.1,355.8 160.1,351.2 160.3,347.6 164.7,343.1 484.1,294.8 " />
		<path
   id="XMLID_67_"
   class="st10"
   d="m 30.6,361.4 9.2,3.9 7.3,4.1 4.8,7.4 c 0,0 -13.8,14.9 -23.7,-2.6 -0.1,-0.1 -3.4,-10.9 2.4,-12.8 z" />
		<path
   id="XMLID_66_"
   class="st10"
   d="m 57.3,379.8 c -0.4,-0.7 8.9,6.8 14.9,2.4 0,0 25.6,29.3 58.1,10.1 0,0 17.1,-11.7 17.8,-39.4 0,0 -1.9,-12.4 7.6,-14.6 l 4.5,9.5 -1.4,14.7 -5,20.3 c 0,0 -15,28.4 -45.5,27.8 0.1,-0.1 -31.9,4.6 -51,-30.8 z" />
		<path
   id="XMLID_65_"
   class="st11"
   d="m 78,312.9 c 0,0 9.2,-3.3 14.5,5.7 0,0 30.3,-7.6 41.1,7.8 0,0 11.3,6 13.6,-2.7 -0.1,0 -22.5,-30 -69.2,-10.8 z" />
		<path
   id="XMLID_64_"
   class="st10"
   d="m 298.1,322.9 c 0,0 4.9,8.6 30.1,8 l -160.7,24.2 -7.4,-4.1 0.2,-3.5 4.4,-4.5 z" />
		<path
   id="XMLID_62_"
   class="st11"
   d="m 442.5,301.1 c 0,0 20,0.7 21.3,9.4 l 79.1,-12 7.2,-1.7 2.7,-8.8 -8.6,-2.8 z" />
		<path
   id="XMLID_61_"
   class="st11"
   d="m 554,284.6 c 0,0 18.8,-5.1 21,14.1 l 4.4,-6.3 -0.9,-8.9 -4,-7.2 -10.3,-0.9 -8.8,5.3 z" />
		<polygon
   id="XMLID_60_"
   class="st12"
   points="537.7,311.8 535.8,299.5 463.8,310.5 465.2,322.7 " />
		<path
   id="XMLID_59_"
   class="st12"
   d="m 478.1,361.6 c 0,0 -12.3,-27.9 25.7,-34.2 0,0 -23.5,0.7 -19.1,33.4 z" />
		<path
   id="XMLID_58_"
   class="st11"
   d="m 515.6,315.1 c 0,0 18.2,-5.5 22.3,37.8 l 5.8,-0.9 -6.1,-40.2 z" />
		<g
   id="XMLID_217_">
			<g
   id="XMLID_241_">
				<g
   id="XMLID_242_">
					<path
   id="XMLID_243_"
   class="st13"
   d="m 103.5,413.9 c -10.9,-0.5 -21.4,-4.2 -30.3,-10.8 -12,-8.8 -19.8,-21.8 -22.1,-36.5 -2.2,-14.7 1.4,-29.4 10.3,-41.4 8.8,-12 21.8,-19.8 36.5,-22.1 14.7,-2.2 29.4,1.4 41.4,10.3 12,8.8 19.8,21.8 22.1,36.5 2.2,14.7 -1.4,29.4 -10.3,41.4 -8.8,12 -21.8,19.8 -36.5,22.1 v 0 c -3.7,0.5 -7.4,0.7 -11.1,0.5 z m 5.3,-106.8 c -3.4,-0.2 -6.8,0 -10.2,0.5 -13.5,2 -25.4,9.2 -33.5,20.2 -8.1,11 -11.5,24.5 -9.4,38 2,13.5 9.2,25.4 20.2,33.5 11,8.1 24.5,11.5 38,9.4 v 0 c 13.5,-2 25.4,-9.2 33.5,-20.2 8.1,-11 11.5,-24.5 9.4,-38 -2,-13.5 -9.2,-25.4 -20.3,-33.5 -8.1,-6 -17.8,-9.4 -27.7,-9.9 z m -4.7,95 c -8.6,-0.4 -16.8,-3.3 -23.9,-8.5 -9.5,-7 -15.6,-17.2 -17.4,-28.8 -1.8,-11.6 1.1,-23.2 8.1,-32.6 7,-9.5 17.2,-15.6 28.8,-17.4 24,-3.6 46.4,12.9 50,36.9 1.8,11.6 -1.1,23.2 -8.1,32.6 -7,9.4 -17.2,15.6 -28.8,17.4 -2.9,0.4 -5.8,0.6 -8.7,0.4 z m 4.1,-83.1 c -2.6,-0.1 -5.2,0 -7.8,0.4 v 0 c -21.4,3.2 -36.2,23.3 -33,44.8 1.6,10.4 7.1,19.5 15.6,25.8 8.5,6.2 18.8,8.8 29.2,7.2 21.4,-3.2 36.2,-23.3 33,-44.8 -2.9,-18.9 -18.7,-32.6 -37,-33.4 z" />
				</g>
			</g>
			<g
   id="XMLID_237_">
				<path
   id="XMLID_238_"
   class="st13"
   d="m 39.4,383.9 c -3.1,-0.1 -6,-1.2 -8.5,-3 -3.4,-2.5 -5.6,-6.1 -6.2,-10.3 -1.3,-8.6 4.6,-16.6 13.2,-17.9 8.6,-1.3 16.6,4.6 17.9,13.2 v 0 c 0.6,4.1 -0.4,8.3 -2.9,11.7 -2.5,3.4 -6.1,5.6 -10.3,6.2 -1.2,0.1 -2.2,0.2 -3.2,0.1 z m 1.3,-26.8 c -0.7,0 -1.5,0 -2.2,0.1 -6.1,0.9 -10.2,6.6 -9.3,12.6 0.4,2.9 2,5.5 4.4,7.3 2.4,1.8 5.3,2.5 8.2,2 2.9,-0.4 5.5,-2 7.3,-4.4 1.8,-2.4 2.5,-5.3 2,-8.2 v 0 c -0.8,-5.2 -5.3,-9.1 -10.4,-9.4 z" />
			</g>
			<g
   id="XMLID_233_">
				<path
   id="XMLID_234_"
   class="st13"
   d="m 565.4,304.3 c -3.1,-0.1 -6,-1.2 -8.5,-3 -3.4,-2.5 -5.6,-6.1 -6.2,-10.3 -0.6,-4.1 0.4,-8.3 2.9,-11.7 2.5,-3.4 6.1,-5.6 10.3,-6.2 4.2,-0.6 8.3,0.4 11.7,2.9 3.4,2.5 5.6,6.1 6.2,10.3 1.3,8.6 -4.6,16.6 -13.2,17.9 -1.2,0.1 -2.2,0.2 -3.2,0.1 z m 1.3,-26.7 c -0.7,0 -1.5,0 -2.2,0.1 -2.9,0.4 -5.5,2 -7.3,4.4 -1.8,2.4 -2.5,5.3 -2,8.2 0.4,2.9 2,5.5 4.4,7.3 2.4,1.8 5.3,2.5 8.2,2 6.1,-0.9 10.2,-6.6 9.3,-12.6 -0.4,-2.9 -2,-5.5 -4.4,-7.3 -1.7,-1.3 -3.8,-2 -6,-2.1 z" />
			</g>
			<g
   id="XMLID_228_">
				<g
   id="XMLID_229_">
					<path
   id="XMLID_230_"
   class="st13"
   d="m 165.2,357.7 c -4,-0.2 -7.4,-3.1 -8,-7.2 -0.3,-2.2 0.2,-4.5 1.6,-6.3 1.4,-1.8 3.3,-3 5.6,-3.4 l 381.1,-57.7 c 2.2,-0.3 4.5,0.2 6.3,1.6 1.8,1.3 3,3.3 3.4,5.6 0.4,2.3 -0.2,4.5 -1.6,6.3 -1.3,1.8 -3.3,3 -5.6,3.4 l -381.1,57.7 c -0.6,0 -1.1,0.1 -1.7,0 z m 381.8,-70 c -0.3,0 -0.5,0 -0.8,0 L 165,345.4 c -1,0.2 -1.9,0.7 -2.6,1.5 -0.6,0.8 -0.9,1.9 -0.7,2.9 0.3,2.1 2.3,3.6 4.4,3.3 l 381.1,-57.7 c 1,-0.2 1.9,-0.7 2.6,-1.5 0.6,-0.8 0.9,-1.9 0.7,-2.9 -0.2,-1 -0.7,-1.9 -1.5,-2.6 -0.5,-0.4 -1.3,-0.7 -2,-0.7 z" />
				</g>
			</g>
			<g
   id="XMLID_224_">
				<path
   id="XMLID_225_"
   class="st13"
   d="m 469.4,365.6 -8.6,-57 77,-11.6 8.6,57 -17.9,2.7 -1.3,-8.7 c -0.8,-5.5 -3.8,-10.3 -8.2,-13.6 -4.5,-3.3 -10,-4.7 -15.5,-3.8 -11.3,1.7 -19.2,12.3 -17.5,23.7 l 1.3,8.7 z m -3.4,-53.2 7.3,47.9 8.8,-1.3 -0.6,-4.1 c -2.1,-13.8 7.5,-26.8 21.3,-28.9 6.7,-1 13.4,0.6 18.9,4.7 5.5,4 9,9.9 10,16.6 l 0.6,4.1 8.8,-1.3 -7.3,-47.9 z" />
			</g>
			<g
   id="XMLID_222_">
				<path
   id="XMLID_36_"
   class="st13"
   d="m 465.1,325 c -1.1,-0.1 -2,-0.9 -2.2,-2 -0.2,-1.3 0.7,-2.4 1.9,-2.6 l 72.4,-11 c 1.3,-0.2 2.4,0.7 2.6,1.9 0.2,1.3 -0.7,2.4 -1.9,2.6 l -72.4,11 c -0.1,0.1 -0.2,0.1 -0.4,0.1 z" />
			</g>
			<g
   id="XMLID_220_">
				<path
   id="XMLID_49_"
   class="st13"
   d="m 562.5,303.9 c -0.8,0 -1.5,-0.5 -1.9,-1.2 -0.6,-1.1 -0.2,-2.5 0.9,-3.1 0.5,-0.3 11.2,-6.5 7.2,-22.9 -0.3,-1.2 0.4,-2.5 1.7,-2.8 1.2,-0.3 2.5,0.4 2.8,1.7 4.9,19.9 -9.3,27.9 -9.4,28 -0.5,0.2 -0.9,0.3 -1.3,0.3 z" />
			</g>
			<g
   id="XMLID_218_">
				<path
   id="XMLID_50_"
   class="st13"
   d="m 50.4,379 c -1,0 -1.9,-0.8 -2.1,-1.8 -2.8,-13.3 -19.4,-13.7 -19.6,-13.7 -1.3,0 -2.3,-1.1 -2.3,-2.3 0,-1.3 1.1,-2.3 2.3,-2.3 7.1,0.1 21.1,3.8 24,17.3 0.3,1.2 -0.5,2.5 -1.8,2.7 -0.1,0.1 -0.3,0.1 -0.5,0.1 z" />
			</g>
		</g>
	</g>
</g>
<g
   id="Left_Arm"
   transform="translate(-24.520499,-178.19477)">
	<path
   id="XMLID_80_"
   class="st14"
   d="m 302.5,352.7 c 0,0 -25.8,-5.3 -41.9,18.9 0,0 -24.2,11.6 -24.9,19.8 l -20.8,-14.5 -13.2,-16 -8.6,4.3 -10.2,0.2 c 0,0 18.3,59 59.8,59.5 0,0 55.4,-30.4 59.8,-72.2 z" />
	<path
   id="XMLID_79_"
   class="st15"
   d="m 189.8,365.3 c 0,0 19.7,43.7 52.9,48.7 0,0 35.9,-14.5 59.8,-61.3 0,0 -5.7,49 -59.8,72.2 0,0 -35.9,6.9 -59.8,-59.5 z" />
	<path
   id="XMLID_78_"
   class="st16"
   d="m 235.8,391.4 c 0,0 19.6,-12.8 34,-11.7 0,0 4.4,-18.6 32.7,-27 0,0 -25.7,-6.6 -39.9,16.1 l -9.7,7 c 0,0 -17.1,8.7 -17.1,15.6 z" />
	<path
   id="XMLID_63_"
   class="st17"
   d="m 182.9,365.3 -6.9,-7 -2.8,-8.7 v -10.5 l 7.7,-11.3 c 0,0 3.9,-1.9 5.8,-2.1 1.9,-0.2 15.1,2.1 15.1,2.1 l 12,11.3 v 6.7 l 1.9,7.1 -1.2,5.4 -5.8,3.4 -7,-0.8 c 0.1,0 -5,5.4 -18.8,4.4 z" />
	<g
   id="g178">
		<path
   id="XMLID_34_"
   class="st13"
   d="m 241.3,427.2 c -43,0 -59.9,-58.7 -60.6,-61.2 l -0.9,-3.2 3.3,0.3 c 10.4,0.9 17.3,-4 17.4,-4 l 2.1,-1.5 1.2,2.3 c 7.8,14.4 24.6,24.9 30.7,28.3 4.3,-8.2 20.3,-16 24.2,-17.8 16.5,-26.1 44,-19.9 44.3,-19.9 l 2.4,0.6 -0.7,2.3 c -18.4,59.9 -59.6,73.2 -61.3,73.7 l -0.6,0.1 c -0.5,0 -1,0 -1.5,0 z m -55.2,-59.4 c 4,11.9 21,54.8 55.3,54.8 0.3,0 0.6,0 0.9,0 3.5,-1.2 40,-15.2 57.2,-68.1 -6.7,-0.8 -25.1,-0.9 -37.2,18.8 l -0.4,0.6 -0.6,0.3 c -8.6,3.9 -22.4,12.1 -23.2,17.6 l -0.5,3.2 -2.9,-1.4 c -1,-0.5 -23,-11.7 -33.8,-29.4 -2.7,1.3 -8,3.5 -14.8,3.6 z" />
	</g>
	<g
   id="g181">
		<path
   id="XMLID_52_"
   class="st13"
   d="m 182.9,367.6 c -0.5,0 -1.1,-0.2 -1.5,-0.6 -0.2,-0.2 -19,-17 -7.4,-35.4 4.5,-7.1 12.1,-9.9 21,-7.7 10.6,2.6 20.4,11.7 21,19.4 0.3,3.8 -2.1,7.2 -6.5,9.4 -6.2,3.1 -15.9,3.4 -21.3,-1.5 -0.9,-0.8 -1,-2.3 -0.2,-3.2 0.8,-1 2.3,-1 3.2,-0.2 3.8,3.4 11.4,3.1 16.2,0.8 1.5,-0.8 4.1,-2.4 3.9,-4.9 -0.4,-5.2 -8.1,-13 -17.5,-15.3 -4.9,-1.2 -11.7,-1.2 -16,5.7 -9.5,15.1 5.8,28.9 6.5,29.5 1,0.8 1,2.3 0.2,3.2 -0.4,0.6 -1,0.8 -1.6,0.8 z" />
	</g>
	<g
   id="g184">
		<path
   id="XMLID_53_"
   class="st13"
   d="m 207.2,364 c -3.2,0 -6,-0.9 -6.2,-0.9 -1.2,-0.4 -1.9,-1.7 -1.5,-2.9 0.4,-1.2 1.7,-1.9 2.9,-1.5 v 0 c 1.8,0.6 7.1,1.6 9.5,-0.8 2,-2.1 1.9,-6.9 -0.4,-13.6 -0.4,-1.2 0.2,-2.5 1.4,-2.9 1.2,-0.4 2.5,0.2 2.9,1.4 3,8.7 2.7,14.8 -0.7,18.3 -2.1,2.3 -5.2,2.9 -7.9,2.9 z" />
	</g>
</g>
<g
   id="Body"
   transform="translate(-24.520499,-178.19477)">
	<path
   id="XMLID_77_"
   class="st18"
   d="m 324.8,353.4 -14,-0.7 -17.4,5.9 -10.9,8.5 -6.6,17.1 -3.1,19.3 V 414 l -6.3,10.9 -6.9,6.2 c 0,0 20.9,28.9 74,35.2 0,0 9.7,-12.7 14.7,-40.4 0,0 30.5,-31.7 -5.5,-64.3 l -13.4,-7.2 z" />
	<path
   id="XMLID_76_"
   class="st19"
   d="m 312.3,360.9 c 0,0 -24.4,0.1 -31.6,44.3 0,0 -4.7,22.8 -22.9,26 0,0 13.2,-9.9 13.2,-27.6 0,0 2.7,-47 38,-50.8 z" />
	<g
   id="g190">
		<path
   id="XMLID_54_"
   class="st13"
   d="m 332.9,468.7 -1.2,-0.1 c -51.1,-2.5 -74.8,-34.8 -75.8,-36.2 l -1.8,-2.6 3,-1 c 0.1,0 9.9,-3.8 11.6,-25.6 0,-1.5 0.3,-40.8 29.9,-50.6 0.3,-0.1 31.3,-10.2 49.7,13.3 26.4,28.3 4.5,56.3 0.5,60.9 -1.5,23.3 -14.6,40.1 -15.2,40.8 z m -71.6,-36.9 c 6,7 28.6,29.7 69.4,32.2 2.7,-3.8 12.5,-18.9 13.6,-38.1 v -0.8 l 0.6,-0.6 c 1.1,-1.1 25.8,-27.7 0,-55.3 l -0.1,-0.2 c -16.4,-21.1 -44.4,-12 -44.7,-11.9 -26.4,8.8 -26.8,46.1 -26.8,46.4 -1.4,18.2 -8.1,25.5 -12,28.3 z" />
	</g>
	<g
   id="g193">
		<path
   id="XMLID_57_"
   class="st13"
   d="m 297.5,405.5 c -1.2,0 -2.2,-0.9 -2.3,-2 -2.6,-23.9 17.4,-39.4 18.2,-40.1 1,-0.8 2.4,-0.6 3.2,0.4 0.8,1 0.6,2.4 -0.4,3.2 -0.2,0.1 -18.8,14.6 -16.5,35.9 0.1,1.3 -0.8,2.4 -2,2.5 -0.1,0.1 -0.2,0.1 -0.2,0.1 z" />
	</g>
</g>
<g
   id="Neck"
   transform="translate(-24.520499,-178.19477)">
	<path
   id="XMLID_75_"
   class="st17"
   d="m 314,332.9 -5.7,23.2 6.9,9.3 12.4,3.3 9.6,-1.6 10,-28.3 c 0,0.1 -14.1,-11.4 -33.2,-5.9 z" />
	<g
   id="g198">
		<path
   id="XMLID_72_"
   class="st13"
   d="m 326.9,371.1 c -4.3,0 -8.2,-0.9 -11.5,-2.8 -7.4,-4.2 -9.3,-11.4 -9.4,-11.7 l -0.1,-0.6 6,-23.6 c 0.3,-1.2 1.6,-2 2.8,-1.7 1.2,0.3 2,1.6 1.7,2.8 l -5.7,22.4 c 0.5,1.5 2.4,5.8 7.1,8.4 4.6,2.6 10.7,2.9 18.1,0.9 l 9.3,-25 c 0.4,-1.2 1.8,-1.8 3,-1.4 1.2,0.4 1.8,1.8 1.4,3 l -10.1,27.1 -1.1,0.3 c -4.3,1.3 -8.1,1.9 -11.5,1.9 z" />
	</g>
</g>
<g
   id="Right_Leg"
   transform="translate(-24.520499,-178.19477)">
	<path
   id="XMLID_74_"
   class="st20"
   d="m 197.4,495.2 c 0,0 -25.8,55.8 -21.4,97.7 l 17.2,5.6 16.8,1.3 5,-3 0.6,-33.6 c 0,0 4.2,-17.1 4.8,-19.2 0.6,-2.1 7.5,-16.4 7.5,-16.4 l 12.4,-10.7 23.3,-9.9 20.1,-3.3 c 0,0 28.3,-33.4 -15.7,-61.1 -0.1,-0.2 -48.6,21.6 -70.6,52.6 z" />
	<path
   id="XMLID_73_"
   class="st21"
   d="m 177.6,569 -1.7,23.9 c 0,0 18.3,12.8 39,3.9 l 0.7,-25.7 c 0.1,0 -15.5,9.9 -38,-2.1 z" />
	<path
   id="XMLID_33_"
   class="st21"
   d="m 208.7,572.4 c 0,0 -8.6,-64.9 64.6,-81.4 l 17.7,-2 -7.4,14.5 -20.1,3.3 -16.8,6.9 -18.9,13.7 c 0,0 -8.8,12 -12.2,43.6 z" />
	<path
   id="XMLID_112_"
   class="st22"
   d="m 186.4,572.4 c 0,0 4.2,-77.4 63.3,-121.3 l -23.7,15.3 -18.1,16.5 -10.5,12.3 c 0,0 -21.7,42 -19.7,73.9 z" />
	<path
   id="XMLID_113_"
   class="st23"
   d="m 143.3,632.9 c 0,0 15.7,-40 66.7,-33.1 l 7.6,11.5 5.6,23.5 h -76.8 z" />
	<path
   id="XMLID_114_"
   class="st24"
   d="m 182.9,600.3 c 0,0 12,0.2 18.9,32.9 l 21.4,1.6 -3.4,-17.9 -9.8,-17.1 h -9.4 z" />
	<g
   id="g208">
		<path
   id="XMLID_116_"
   class="st13"
   d="m 201.8,601.7 c -13.7,0 -26.2,-6.4 -26.9,-6.7 l -1.3,-0.6 V 593 c 0.6,-58.1 21.5,-98.4 21.7,-98.8 l 0.2,-0.3 c 29.7,-38.7 71.1,-53.9 71.6,-54.1 1.2,-0.4 2.5,0.2 2.9,1.4 0.4,1.2 -0.2,2.5 -1.4,2.9 -0.4,0.1 -40.5,15 -69.4,52.4 -1.4,2.8 -20.1,40.7 -21,95.1 4.6,2.1 21.1,8.7 34.4,3.8 -0.3,-9.9 -0.5,-60.5 19.2,-75.1 1,-0.8 25.5,-18.8 51.7,-18.9 0,0 0,0 0,0 1.3,0 2.3,1 2.3,2.3 0,1.3 -1,2.3 -2.3,2.3 -24.7,0.1 -48.8,17.8 -49,18 -19.6,14.4 -17.4,72.3 -17.3,72.8 l 0.1,1.6 -1.4,0.6 c -4.6,1.9 -9.4,2.7 -14.1,2.7 z" />
	</g>
	<g
   id="g211">
		<path
   id="XMLID_117_"
   class="st13"
   d="m 142.6,637.1 c -0.2,0 -0.5,0 -0.7,-0.1 -1.2,-0.4 -1.9,-1.7 -1.5,-2.9 0.1,-0.3 10.9,-34 46.7,-36.6 h 23.8 l 0.7,0.6 c 0.5,0.5 12.6,12.3 13.9,36.5 0.1,1.3 -0.9,2.3 -2.2,2.4 -1.3,0.1 -2.3,-0.9 -2.4,-2.2 -1,-19.4 -9.6,-30.2 -11.9,-32.8 h -21.7 c -32.6,2.3 -42.4,33.1 -42.5,33.4 -0.3,1.1 -1.2,1.7 -2.2,1.7 z" />
	</g>
	<g
   id="g214">
		<path
   id="XMLID_118_"
   class="st13"
   d="m 200.9,577.8 c -15.1,0 -24.8,-9.5 -24.9,-9.6 -0.9,-0.9 -0.9,-2.4 0,-3.3 0.9,-0.9 2.4,-0.9 3.2,0 v 0 c 0.6,0.6 14.6,14.2 35.5,5.3 1.2,-0.5 2.5,0 3,1.2 0.5,1.2 0,2.5 -1.2,3 -5.6,2.5 -10.9,3.4 -15.6,3.4 z" />
	</g>
</g>
<g
   id="Left_Leg"
   transform="translate(-24.520499,-178.19477)">
	<path
   id="XMLID_115_"
   class="st20"
   d="m 268.3,442.4 c 0,0 -8.8,42.3 15.7,61.1 0,0 19.2,80.9 53.7,97.2 l 10.7,-0.7 25.7,-0.3 -19,-30.7 -19.9,-42.5 -6,-21.4 4.7,-17.9 -1.7,-20.8 c 0,0 -33.1,0 -63.9,-24 z" />
	<path
   id="XMLID_119_"
   class="st21"
   d="m 317.4,580.2 c 0,0 30.1,3.4 40.8,-6.1 l 15.8,25.7 -25.7,0.3 -10.7,0.7 -6.6,-4 z" />
	<path
   id="XMLID_120_"
   class="st21"
   d="m 317.4,466.4 c 0,0 7,21.5 -3.5,37.2 0,0 18.7,54 31.8,77.4 l 12.5,-6.9 c 0,0 -24.8,-42.9 -29.1,-69 0,0 8.4,-16.7 3,-38.7 z" />
	<path
   id="XMLID_121_"
   class="st22"
   d="m 278.6,448.5 c 0,0 -6.9,30.4 15.6,50.9 0,0 2.8,41.6 26.8,80.8 0,0 -24.5,-16.1 -37,-76.6 0,0 -23.9,-16.4 -15.7,-61.1 z" />
	<path
   id="XMLID_122_"
   class="st23"
   d="m 305.8,634.8 c 0,0 11.2,-29.9 31.9,-34 l 36.4,-1 7.6,11.5 5.6,23.5 z" />
	<path
   id="XMLID_123_"
   class="st24"
   d="m 348.4,600.1 c 0,0 16.2,10.1 14.3,33.9 l 24.6,0.8 c 0,0 1.9,-16.8 -13.2,-35 z" />
	<g
   id="XMLID_254_">
		<path
   id="XMLID_255_"
   class="st13"
   d="m 336.9,603.1 -0.7,-0.5 C 294.9,570.2 283.3,512.8 281.8,504.8 255.4,482.7 265.5,443 266,441.3 l 0.9,-3.5 2.8,2.3 c 27.4,22.6 62.2,24 62.6,24 h 1.6 l 0.5,1.5 c 6.2,17.7 -1.4,34.5 -3.3,38.3 8.3,41.8 44.4,94.1 44.8,94.6 l 2.4,3.5 z M 269.7,446 c -1.8,10.1 -4.8,39.2 15.7,55.8 l 0.7,0.5 0.1,0.9 c 0.1,0.6 10.6,62.1 52.2,95.3 l 31.3,-0.8 c -8.4,-12.6 -36.3,-56.6 -43.3,-93.6 l -0.2,-0.8 0.4,-0.7 c 0.1,-0.2 9.1,-16.7 3.8,-33.9 -7,-0.6 -35.8,-3.8 -60.7,-22.7 z" />
	</g>
	<g
   id="XMLID_252_">
		<path
   id="XMLID_125_"
   class="st13"
   d="m 387.3,637.1 c -1.2,0 -2.2,-0.9 -2.3,-2.2 -1,-19.4 -9.6,-30.2 -11.9,-32.8 h -21.7 c -32.5,2.3 -42.1,32.1 -42.5,33.4 -0.4,1.2 -1.7,1.9 -2.9,1.5 -1.2,-0.4 -1.9,-1.7 -1.5,-2.9 0.1,-0.3 10.9,-34 46.7,-36.6 H 375 l 0.7,0.6 c 0.5,0.5 12.6,12.3 13.9,36.5 0.1,1.3 -0.9,2.3 -2.2,2.4 -0.1,0.1 -0.1,0.1 -0.1,0.1 z" />
	</g>
	<g
   id="XMLID_250_">
		<path
   id="XMLID_128_"
   class="st13"
   d="m 333.4,584 c -10.8,0 -17.7,-3.1 -18.1,-3.3 -1.2,-0.5 -1.7,-1.9 -1.1,-3 0.5,-1.2 1.9,-1.7 3,-1.1 v 0 c 0.2,0.1 17.7,7.9 40.9,-2.8 1.2,-0.5 2.5,0 3,1.1 0.5,1.2 0,2.5 -1.1,3 -10.2,4.7 -19.3,6.1 -26.6,6.1 z" />
	</g>
</g>
<g
   id="Head_4_"
   transform="translate(-24.520499,-178.19477)">
	<g
   id="XMLID_144_">
		<polygon
   id="XMLID_145_"
   class="st17"
   points="408.6,311.9 409.4,304 405.6,293.9 396.2,288.3 388.2,320.1 398.7,320.5 " />
	</g>
	<g
   id="XMLID_142_">
		<polygon
   id="XMLID_143_"
   class="st17"
   points="241.2,311.5 254.3,320.2 298.6,330.6 356.4,344.1 372.2,346.2 374.2,345.2 382.8,338.3 396.2,288.3 386,276.9 377.8,265.4 353.9,264 327,252.9 307.1,223.1 289.7,235.2 262.2,239 252,243.6 239.1,298.4 " />
	</g>
	<g
   id="XMLID_140_">
		<path
   id="XMLID_141_"
   class="st25"
   d="m 243.6,287.6 c 0,0 -2.5,16.9 12,21.1 14.5,4.2 105.4,24.6 105.4,24.6 0,0 19.2,2.1 25.2,-8.1 l -3.5,13.1 -13.1,8 -13.4,-2.2 -107.2,-25.4 -5,-3.4 -4.8,-7.8 -1,-5.7 z" />
	</g>
	<g
   id="XMLID_138_">
		<path
   id="XMLID_139_"
   class="st25"
   d="m 301,228.2 c 0,0 16,44.5 70.1,46.4 0,0 6.1,15.1 20.3,21.6 l 4.7,-11.5 -18.3,-19.2 -21.8,0.9 -23.2,-11.1 -16.4,-18.3 -7.3,-14 z" />
	</g>
	<g
   id="XMLID_136_">
		<path
   id="XMLID_137_"
   class="st25"
   d="m 250.6,249.2 c 0,0 35.1,3.1 62.7,-15.6 l -6.2,-10.6 -14.5,11.1 -22.2,6.7 -14.5,1 z" />
	</g>
	<g
   id="XMLID_134_">
		<path
   id="XMLID_135_"
   class="st26"
   d="m 283.2,280.8 c 0,0 1.8,-9.9 9.8,-17.7 l -3,26 -4.4,-2.8 z" />
	</g>
	<g
   id="XMLID_132_">
		
			<ellipse
   id="XMLID_133_"
   transform="matrix(0.9958,0.09156718,-0.09156718,0.9958,27.7515,-29.0847)"
   class="st26"
   cx="330.79999"
   cy="287.89999"
   rx="6.8000002"
   ry="3.5999999" />
	</g>
	<g
   id="XMLID_130_">
		
			<ellipse
   id="XMLID_131_"
   transform="matrix(0.9881,0.154,-0.154,0.9881,45.5888,-36.9664)"
   class="st26"
   cx="261.39999"
   cy="275.79999"
   rx="6.8000002"
   ry="3.5999999" />
	</g>
	<g
   id="XMLID_124_">
		<path
   id="XMLID_129_"
   class="st25"
   d="m 289.2,310 c 0,0 39.6,20.1 52,-12.3 l -7.8,5.6 -18.7,5.8 -16.7,0.6 z" />
	</g>
	<g
   id="XMLID_208_">
		<path
   id="XMLID_223_"
   class="st8"
   d="m 402.6,290.6 c 5.8,1.7 12.6,2.2 20.3,0.7 1.6,-0.3 2.7,-1.9 2.4,-3.5 -0.3,-1.6 -1.9,-2.7 -3.5,-2.4 -28.6,5.7 -41.1,-20.9 -41.2,-21.2 l -0.9,-2 -2.2,0.3 c -46.2,5.7 -67.3,-40.1 -67.5,-40.6 l -1.7,-3.8 -3.1,2.8 c -30.7,28.1 -61.4,15.3 -61.7,15.2 -1.5,-0.7 -3.3,0 -4,1.6 -0.7,1.5 0,3.3 1.6,4 1.4,0.6 32.8,13.7 65.3,-13.7 4.9,8.7 19.6,31 45.3,38.5 7.3,2.1 15.5,3.1 24.6,2.2 2.6,4.8 11.1,17.4 26.3,21.9 z" />
	</g>
	<g
   id="XMLID_226_">
		<path
   id="XMLID_227_"
   class="st8"
   d="m 389.1,323.3 c 0.1,0 0.2,0 0.3,0.1 5.1,1 10.2,-0.1 14.5,-3 4.3,-2.9 7.2,-7.3 8.2,-12.4 1,-5.1 -0.1,-10.2 -3,-14.5 -2.9,-4.3 -7.3,-7.2 -12.4,-8.2 -1.6,-0.3 -3.2,0.7 -3.5,2.4 -0.3,1.6 0.7,3.2 2.4,3.5 3.5,0.7 6.5,2.7 8.5,5.6 2,3 2.7,6.5 2,10 -0.7,3.5 -2.7,6.5 -5.6,8.5 -3,2 -6.5,2.7 -10,2 -1.6,-0.3 -3.2,0.7 -3.5,2.4 -0.3,1.7 0.6,3.2 2.1,3.6 z" />
	</g>
	<g
   id="XMLID_231_">
		<path
   id="XMLID_236_"
   class="st8"
   d="m 402,306.9 c 0.3,0.1 0.7,0.1 1,0 1.1,-0.3 1.7,-1.3 1.5,-2.4 -1.8,-7.4 -10.1,-9.4 -10.4,-9.4 -1.1,-0.2 -2.1,0.4 -2.4,1.5 -0.2,1.1 0.4,2.1 1.5,2.4 v 0 c 0.1,0 6.2,1.5 7.4,6.5 0.2,0.7 0.7,1.2 1.4,1.4 z" />
	</g>
	<g
   id="XMLID_240_">
		<path
   id="XMLID_245_"
   class="st8"
   d="m 250.6,322.5 c 0.4,0.1 0.8,0.2 1.1,0.3 l 111.4,26.1 c 11.2,2.6 22.5,-4.4 25.1,-15.6 l 11.2,-47.7 c 0.4,-1.6 -0.6,-3.2 -2.2,-3.6 -1.6,-0.4 -3.2,0.6 -3.6,2.2 l -11.2,47.7 c -1.9,8 -9.9,12.9 -17.8,11.1 L 253.2,316.9 c -8,-1.9 -12.9,-9.9 -11.1,-17.8 l 13.3,-56.9 c 0.4,-1.6 -0.6,-3.2 -2.2,-3.6 -1.6,-0.4 -3.2,0.6 -3.6,2.2 l -13.3,56.9 c -2.6,10.8 3.8,21.7 14.3,24.8 z" />
	</g>
</g>
<g
   id="Face_3_"
   transform="translate(-24.520499,-178.19477)">
	<g
   id="XMLID_247_">
		<circle
   id="XMLID_248_"
   class="st8"
   cx="271.10001"
   cy="263.79999"
   r="6.5999999" />
	</g>
	<g
   id="XMLID_253_">
		<circle
   id="XMLID_257_"
   class="st8"
   cx="324.79999"
   cy="273.89999"
   r="6.5999999" />
	</g>
	<g
   id="XMLID_260_">
		<path
   id="XMLID_264_"
   class="st8"
   d="m 288.5,292.3 c 0.2,0.1 0.3,0.1 0.5,0.1 5.2,1.2 10.5,-2.4 11.8,-8.1 0.4,-1.6 -0.6,-3.3 -2.3,-3.6 -1.6,-0.4 -3.2,0.6 -3.6,2.3 -0.6,2.4 -2.6,4 -4.5,3.5 -2,-0.5 -3.1,-2.8 -2.5,-5.2 0.4,-1.6 -0.6,-3.3 -2.3,-3.6 -1.6,-0.4 -3.2,0.6 -3.6,2.3 -1.3,5.5 1.6,10.9 6.5,12.3 z" />
	</g>
	<g
   id="XMLID_265_">
		<path
   id="XMLID_268_"
   class="st8"
   d="m 290.3,310.8 c 5.1,1.5 32.7,8.4 50.4,-10.9 1.1,-1.2 1,-3.1 -0.2,-4.3 -1.2,-1.1 -3.1,-1 -4.3,0.2 -16.5,18.1 -44.6,9.1 -44.9,9 -1.6,-0.5 -3.3,0.3 -3.8,1.9 -0.5,1.6 0.3,3.3 1.9,3.8 0.3,0.1 0.5,0.1 0.9,0.3 z" />
	</g>
</g>
<g
   id="Shield"
   transform="translate(-24.520499,-178.19477)">
	<path
   id="XMLID_269_"
   class="st9"
   d="m 385.7,350.6 -7.8,-3.5 c 0,0 -39.3,-5.2 -64.1,37.9 0,0 -17.8,34.9 2.8,70.2 l -12.9,46.8 3.1,21.5 9.8,20.7 14,16.3 5.3,2.1 18.7,-1.7 13.9,-4.2 17,-9.4 9.9,-9 23.9,-43.3 14.5,-5.3 L 450,478 c 0,0 36.6,-33.6 13.7,-86.5 l -8.4,-9 -16.3,-10.9 -3,-10.4 -10.8,-14.2 -8.6,-4.4 h -13.7 z" />
	<path
   id="XMLID_272_"
   class="st10"
   d="M 419.9,342.6 333,561.4 c 0,0 -27.4,-21.2 -29.4,-59.4 l 12.9,-46.9 -9.6,-20.9 c 0,0 -13.9,-33.2 24.4,-72 0,0 27.4,-22.1 54.3,-11.7 0.1,0.1 21,-11.4 34.3,-7.9 z" />
	<path
   id="XMLID_273_"
   class="st11"
   d="m 419.9,342.6 c 0,0 15.4,19.3 2.4,48.8 0,0 32.5,10.4 18.6,43.3 -13.9,32.9 -43.2,38.1 -43.2,38.1 0,0 -12.5,52.6 -64.7,88.5 0,0 35.8,5.3 62.3,-23.2 l 23.9,-43.3 14.5,-5.3 8.5,-5.2 c 0,0 28.6,-19.4 28.7,-51.5 0,0 7.7,-44 -32,-61.3 0.1,0.1 -3.4,-21.1 -19,-28.9 z" />
	<polygon
   id="XMLID_276_"
   class="st11"
   points="398.7,362.8 398.7,370.5 405.6,377.9 412.5,377.9 416.6,376.9 420.1,373.7 422.1,368.8 422.1,361.7 412.5,354.9 402.3,357.3 " />
	<path
   id="XMLID_277_"
   class="st27"
   d="m 333.1,561.4 5.6,-14.2 10.4,1.6 13.8,-3.2 20.8,-13.9 28.2,-52.9 14.5,-2 20,-12 c 0,0 23,-22.6 21,-62.2 0,0 15.9,75.6 -48.1,92.3 l -23.9,43.3 c 0,0 -27.2,32.8 -62.3,23.2 z" />
	<path
   id="XMLID_278_"
   class="st28"
   d="m 341.2,356.1 c 0,0 -45.3,49.7 -9.6,92.6 l -13.7,54.9 c 0,0 -0.7,36.8 20.9,43.6 l -5.6,14.2 c 0,0 -28,-24.4 -29.4,-59.4 l 12.9,-46.9 -9.6,-20.9 c -0.1,0.1 -17.8,-38.5 34.1,-78.1 z" />
	<g
   id="XMLID_279_">
		<g
   id="XMLID_280_">
			<path
   id="XMLID_281_"
   class="st13"
   d="m 338.3,564.8 c -1.4,0 -2.3,-0.1 -2.5,-0.1 h -0.4 l -6,-2.4 -0.3,-0.2 c -1.2,-1 -28.3,-23.7 -27.7,-60.2 l 0.1,-0.5 11.9,-46.9 c -3.8,-5.7 -21.7,-36.1 -0.3,-73 21.9,-37.8 55.3,-40.7 72.3,-33.6 3.7,-2.8 16,-10.7 31.7,-7.6 l 0.4,0.1 5.7,2.3 c 13.7,8.4 17.2,22.6 18,27.2 17.2,6.4 39.6,31.4 29.8,74 -9.6,41.6 -43.5,51.5 -50.1,53.1 l -23.7,42.8 c -21.1,23.2 -50.2,25 -58.9,25 z m -1.9,-4.6 c 3.6,0.1 35.4,0.5 57.2,-23.3 l 24.3,-44 1.1,-0.2 c 1.5,-0.3 37.6,-7 47.5,-49.9 10.5,-45.6 -17.5,-65.6 -28.1,-69 l -1.4,-0.5 -0.1,-1.5 c 0,-0.2 -1.8,-16.3 -15.8,-25.1 l -4.9,-1.9 c -16.2,-3.2 -28.6,7.4 -28.7,7.5 l -1.1,1 -1.4,-0.6 c -10.1,-4.8 -44.2,-9.3 -67.7,31.2 -22.1,38.1 0.4,68.6 0.6,68.9 l 0.7,0.9 -12.6,48.6 c -0.4,32.3 23,53.7 25.8,56.1 z" />
		</g>
		<g
   id="XMLID_284_">
			<circle
   id="XMLID_285_"
   class="st13"
   cx="379.5"
   cy="444.20001"
   r="18.200001" />
		</g>
		<g
   id="XMLID_286_">
			<path
   id="XMLID_287_"
   class="st13"
   d="m 380.7,451.4 -3.3,-1.9 -3.7,-0.9 -29.2,40.2 c -2.5,3.5 -1.1,8.4 2.9,10 l 9,3.6 5.9,2.3 c 5.6,2.2 11.7,-1.4 12.5,-7.4 z" />
		</g>
		<g
   id="XMLID_288_">
			<path
   id="XMLID_289_"
   class="st13"
   d="m 347.1,551.1 c -3.7,0 -5.9,-0.5 -6.2,-0.6 l -0.3,-0.1 -5.6,-2.2 c -0.8,-0.4 -19.6,-11.1 -20.7,-44.3 v -0.3 l 0.1,-0.3 14.9,-55.2 c -3.4,-3.3 -13.6,-14.6 -14.9,-33 -1.4,-19.9 8,-41.1 28,-63.1 0.9,-0.9 2.3,-1 3.2,-0.2 0.9,0.9 1,2.3 0.2,3.2 -19.1,21 -28.1,41.1 -26.8,59.7 1.4,19.8 14.3,30.7 14.4,30.8 l 1.1,0.9 L 319,504 c 1.1,29.2 16.6,39.1 18.2,40.1 l 5,2 c 1.8,0.4 19.9,3.8 40.7,-16.8 l 28,-52.7 1.5,0.1 c 0.2,0 17.1,0.8 31.6,-12.7 13.6,-12.7 20.7,-33.5 21.2,-61.9 0,-1.3 1,-2.3 2.3,-2.3 0,0 0,0 0,0 1.3,0 2.3,1.1 2.3,2.3 -0.5,29.7 -8.1,51.7 -22.7,65.2 -13.5,12.5 -28.6,13.8 -33.4,13.9 l -27,50.8 -0.2,0.2 c -16.3,16.2 -31.3,18.9 -39.4,18.9 z" />
		</g>
		<g
   id="XMLID_290_">
			<path
   id="XMLID_291_"
   class="st13"
   d="m 410.2,381.1 c -1.8,0 -3.6,-0.3 -5.3,-1 -3.6,-1.4 -6.4,-4.1 -7.9,-7.7 -1.5,-3.5 -1.6,-7.5 -0.2,-11.1 1.4,-3.6 4.1,-6.4 7.7,-7.9 3.5,-1.5 7.5,-1.6 11.1,-0.2 7.4,2.9 11.1,11.3 8.1,18.7 -1.4,3.6 -4.1,6.4 -7.7,7.9 -1.9,0.9 -3.9,1.3 -5.8,1.3 z m 0,-24.3 c -1.3,0 -2.7,0.3 -3.9,0.8 -2.4,1 -4.3,3 -5.2,5.4 -1,2.4 -0.9,5.1 0.1,7.5 1,2.4 3,4.3 5.4,5.2 2.4,1 5.1,0.9 7.5,-0.1 2.4,-1 4.3,-3 5.2,-5.4 v 0 c 2,-5.1 -0.5,-10.8 -5.5,-12.8 -1.2,-0.4 -2.4,-0.6 -3.6,-0.6 z" />
		</g>
	</g>
</g>
<g
   id="Ground"
   transform="translate(-24.520499,-178.19477)">
	<g
   id="g285">
		<path
   id="XMLID_295_"
   class="st13"
   d="M 87.2,637.1 H 66.5 c -1.3,0 -2.3,-1 -2.3,-2.3 0,-1.3 1,-2.3 2.3,-2.3 h 20.7 c 1.3,0 2.3,1 2.3,2.3 0,1.3 -1,2.3 -2.3,2.3 z" />
	</g>
	<g
   id="g288">
		<path
   id="XMLID_296_"
   class="st13"
   d="M 235.8,637.1 H 96.6 c -1.3,0 -2.3,-1 -2.3,-2.3 0,-1.3 1,-2.3 2.3,-2.3 h 139.1 c 1.3,0 2.3,1 2.3,2.3 0,1.3 -1,2.3 -2.2,2.3 z" />
	</g>
	<g
   id="g291">
		<path
   id="XMLID_297_"
   class="st13"
   d="m 417.8,637.1 h -172 c -1.3,0 -2.3,-1 -2.3,-2.3 0,-1.3 1,-2.3 2.3,-2.3 h 172 c 1.3,0 2.3,1 2.3,2.3 0,1.3 -1,2.3 -2.3,2.3 z" />
	</g>
	<g
   id="g294">
		<path
   id="XMLID_298_"
   class="st13"
   d="m 512.2,637.1 h -85.6 c -1.3,0 -2.3,-1 -2.3,-2.3 0,-1.3 1,-2.3 2.3,-2.3 h 85.6 c 1.3,0 2.3,1 2.3,2.3 0,1.3 -1.1,2.3 -2.3,2.3 z" />
	</g>
	<g
   id="g297">
		<path
   id="XMLID_299_"
   class="st13"
   d="m 539.9,637.1 h -19.7 c -1.3,0 -2.3,-1 -2.3,-2.3 0,-1.3 1,-2.3 2.3,-2.3 h 19.7 c 1.3,0 2.3,1 2.3,2.3 0,1.3 -1.1,2.3 -2.3,2.3 z" />
	</g>
</g>
</svg>
