<?xml version="1.0" encoding="UTF-8" standalone="no"?>
<svg
   xmlns:dc="http://purl.org/dc/elements/1.1/"
   xmlns:cc="http://creativecommons.org/ns#"
   xmlns:rdf="http://www.w3.org/1999/02/22-rdf-syntax-ns#"
   xmlns:svg="http://www.w3.org/2000/svg"
   xmlns="http://www.w3.org/2000/svg"
   xmlns:xlink="http://www.w3.org/1999/xlink"
   xmlns:sodipodi="http://sodipodi.sourceforge.net/DTD/sodipodi-0.dtd"
   xmlns:inkscape="http://www.inkscape.org/namespaces/inkscape"
   version="1.1"
   id="Layer_1"
   x="0px"
   y="0px"
   viewBox="0 0 661.28247 398.57205"
   xml:space="preserve"
   sodipodi:docname="day9-toolbox.svg"
   width="661.28247"
   height="398.57205"
   inkscape:version="1.0.1 (3bc2e813f5, 2020-09-07)"><metadata
   id="metadata249"><rdf:RDF><cc:Work
       rdf:about=""><dc:format>image/svg+xml</dc:format><dc:type
         rdf:resource="http://purl.org/dc/dcmitype/StillImage" /></cc:Work></rdf:RDF></metadata><defs
   id="defs247" /><sodipodi:namedview
   pagecolor="#ffffff"
   bordercolor="#666666"
   borderopacity="1"
   objecttolerance="10"
   gridtolerance="10"
   guidetolerance="10"
   inkscape:pageopacity="0"
   inkscape:pageshadow="2"
   inkscape:window-width="1920"
   inkscape:window-height="1016"
   id="namedview245"
   showgrid="false"
   inkscape:zoom="0.856"
   inkscape:cx="332.6"
   inkscape:cy="129.11411"
   inkscape:window-x="0"
   inkscape:window-y="27"
   inkscape:window-maximized="1"
   inkscape:current-layer="Layer_1" />
<style
   type="text/css"
   id="style2">
	.st0{fill:#383333;}
	.st1{fill:#EEF2F4;}
	.st2{fill:#2B2727;}
	.st3{fill:#72361F;}
	.st4{fill:#5B3318;}
	.st5{fill:#783F21;}
	.st6{opacity:0.4;}
	.st7{clip-path:url(#XMLID_34_);}
	.st8{fill:none;stroke:#300F0F;stroke-width:6;stroke-linecap:round;stroke-linejoin:round;stroke-miterlimit:10;}
	.st9{opacity:0.44;fill:#72361F;enable-background:new    ;}
	.st10{fill:#C9C9C9;}
	.st11{fill:#B5B5B5;}
	.st12{fill:#F45145;}
	.st13{fill:#DB493E;}
	.st14{fill:#AA3930;}
	.st15{fill:#ABABAB;}
	.st16{fill:#3B69A9;}
	.st17{fill:#355E98;}
	.st18{opacity:0.23;fill:#72361F;enable-background:new    ;}
	.st19{fill:#E1E1E1;}
	.st20{fill:#FDC457;}
	.st21{fill:#F2B24C;}
	.st22{fill:#323B40;}
	.st23{fill:#2D363A;}
	.st24{fill:#7D4025;}
	.st25{opacity:8.000000e-02;clip-path:url(#SVGID_2_);}
	.st26{fill:none;stroke:#300F0F;stroke-width:5.8435;stroke-linecap:round;stroke-linejoin:round;stroke-miterlimit:10;}
	.st27{fill:none;stroke:#300F0F;stroke-width:7.8052;stroke-linecap:round;stroke-linejoin:round;stroke-miterlimit:10;}
	.st28{fill:none;stroke:#300F0F;stroke-width:5.3519;stroke-linecap:round;stroke-linejoin:round;stroke-miterlimit:10;}
	.st29{fill:#D98C40;}
	.st30{fill:#C87634;}
	.st31{clip-path:url(#SVGID_4_);}
	.st32{fill:none;stroke:#CF8139;stroke-width:6;stroke-linecap:round;stroke-linejoin:round;stroke-miterlimit:10;}
	.st33{fill:none;stroke:#CF8139;stroke-width:4.9126;stroke-linecap:round;stroke-linejoin:round;stroke-miterlimit:10;}
</style>


<path
   id="XMLID_30_"
   class="st2"
   d="M 618.3,398.57205 H 24.2 c -13.4,0 -24.2,-10.8 -24.2,-24.2 v 0 c 0,-13.4 10.8,-24.2 24.2,-24.2 h 594.1 c 13.4,0 24.2,10.8 24.2,24.2 v 0 c 0,13.3 -10.8,24.2 -24.2,24.2 z" />
<path
   id="XMLID_46_"
   class="st3"
   d="m 538.9,135.47205 v -51.9 c 0,-19.9 -16.1,-36 -36,-36 v 0 c -19.9,0 -36,16.1 -36,36 v 51.8 c 0,33.1 -26.9,60 -60,60 v 0 152 c 0,13.3 10.7,24 24,24 h 144 c 13.3,0 24,-10.7 24,-24 v -152 0 c -33.2,0.1 -60,-26.8 -60,-59.9 z" />
<rect
   id="XMLID_2_"
   x="488.89999"
   y="47.572048"
   class="st3"
   width="16.4"
   height="8.3000002" />
<path
   id="XMLID_43_"
   class="st4"
   d="m 524.9,135.47205 v -51.9 c 0,-19.9 -16.1,-36 -36,-36 v 0 c -19.9,0 -36,16.1 -36,36 v 51.8 c 0,33.1 -26.9,60 -60,60 v 0 152 c 0,13.3 10.7,24 24,24 h 144 c 13.3,0 24,-10.7 24,-24 v -152 0 c -33.2,0.1 -60,-26.8 -60,-59.9 z" />
<path
   id="XMLID_20_"
   class="st4"
   d="m 584.9,195.47205 v 0 c -22.6,0 -42.2,-12.5 -52.5,-30.9 l -55.5,22.4 -28.1,15.6 66.6,10.4 69.5,-13.8 z" />
<circle
   id="XMLID_31_"
   class="st5"
   cx="488.89999"
   cy="84.272064"
   r="12" />
<rect
   id="XMLID_1_"
   x="143.89999"
   y="47.572048"
   class="st3"
   width="14"
   height="3.7" />
<rect
   id="XMLID_28_"
   x="143.89999"
   y="72.272064"
   class="st5"
   width="345.10001"
   height="24" />
<g
   class="st6"
   id="g117"
   transform="translate(-167.4,-277.42795)">
	<defs
   id="defs104">
		<rect
   id="XMLID_32_"
   x="311.29999"
   y="349.70001"
   class="st6"
   width="345.10001"
   height="24" />
	</defs>
	<clipPath
   id="XMLID_34_">
		<use
   xlink:href="#XMLID_32_"
   style="overflow:visible"
   id="use106"
   x="0"
   y="0"
   width="100%"
   height="100%" />
	</clipPath>
	<g
   id="XMLID_82_"
   class="st7"
   clip-path="url(#XMLID_34_)">
		<path
   id="XMLID_11_"
   class="st8"
   d="m 331.5,316.7 c 1.2,8.3 8.1,53.2 41.3,68.7 4,1.9 20.1,9.4 28.7,2.7 11.3,-8.9 -3.1,-33.2 9.3,-48 8,-9.6 23.7,-11 34,-9.3 35.6,5.9 36.3,54.3 70.7,62 21.8,4.9 44.8,-9.3 56.7,-16.7 24.8,-15.3 29.2,-31.7 44,-32 9.1,-0.2 22.5,5.6 39.3,35.3" />
		<path
   id="XMLID_10_"
   class="st8"
   d="m 358.8,336 c -3.8,5.8 -4.4,13 -1.3,18.7 3,5.5 8.3,7.5 10,8 1.8,0.6 8.3,2.3 14,-1.3 5.6,-3.6 8.4,-11.1 6.7,-18.7" />
		<path
   id="XMLID_95_"
   class="st8"
   d="m 422.1,376 c -0.5,-1.4 -4.9,-14.1 2.7,-25.3 0.4,-0.7 6.9,-10.1 15.3,-10.7 11.9,-0.9 26.6,15.9 31.3,43.3" />
		<path
   id="XMLID_96_"
   class="st8"
   d="m 438.1,358 c -3.4,1.7 -4,8.6 -2,13.3 0.4,0.9 2.9,6.6 7.3,6.7 4.3,0.1 8.2,-5.3 8,-10 -0.2,-6.8 -9.1,-12 -13.3,-10 z" />
		<path
   id="XMLID_97_"
   class="st8"
   d="m 495.5,335.4 c 0.3,3.3 1.2,9.6 5.3,16 5.9,9.2 14.3,12.8 17.3,14 2.9,1.2 12.1,4.8 22.7,2 7,-1.8 9.8,-5.3 27.3,-21.3 6.1,-5.6 11.1,-10 14,-12.7" />
		<path
   id="XMLID_98_"
   class="st8"
   d="m 599.5,380 c 0.9,-8.2 6.3,-14.8 13.3,-16.7 0.7,-0.2 9.9,-2.5 16,4 4.4,4.7 4.1,10.8 4,12" />
		<path
   id="XMLID_99_"
   class="st8"
   d="m 527.5,338 c 0,9.1 4.4,15.8 9.3,16.7 4.2,0.7 8.2,-3 10,-4.7 5,-4.6 6.3,-10.4 6.7,-12.7" />
	</g>
</g>
<rect
   id="XMLID_101_"
   x="275.80002"
   y="72.272064"
   class="st9"
   width="15.9"
   height="23.799999" />
<rect
   id="XMLID_134_"
   x="189"
   y="72.272064"
   class="st9"
   width="25.1"
   height="23.799999" />
<rect
   id="XMLID_103_"
   x="384.89999"
   y="72.272064"
   class="st9"
   width="22"
   height="23.799999" />
<g
   id="XMLID_107_"
   transform="translate(-167.4,-277.42795)">
	<polygon
   id="XMLID_26_"
   class="st10"
   points="424.7,317.8 424.7,317.8 424.7,317.8 424.7,317.8 424.7,317.8 431.8,285.2 450.7,285.2 457.9,317.8 457.9,317.8 457.9,317.8 457.9,317.8 457.9,317.8 449.1,341.2 449.1,341.2 449.1,411.5 433.5,411.5 433.5,341.2 433.4,341.2 " />
	<polygon
   id="XMLID_24_"
   class="st11"
   points="452.9,317.8 452.9,317.8 452.9,317.8 445.7,285.2 450.7,285.2 457.9,317.8 457.9,317.8 457.9,317.8 457.9,317.8 449.1,341.2 449.1,341.2 449.1,411.5 444.1,411.5 444.1,341.2 452.9,317.8 " />
	<path
   id="XMLID_15_"
   class="st12"
   d="M 417.2,556.4 V 442.3 c 0,-5.5 3.3,-10.3 8.1,-12.3 2,-0.8 2.3,-3.5 0.6,-4.9 l -6.7,-5.6 c -1.8,-1.5 -2.8,-3.7 -2.8,-6 v -5.3 c 0,-2 1.6,-3.6 3.6,-3.6 h 42.4 c 2,0 3.6,1.6 3.6,3.6 v 5.3 c 0,2.3 -1,4.5 -2.8,6 l -6.7,5.6 c -1.6,1.4 -1.3,4 0.6,4.9 4.8,2.1 8.1,6.8 8.1,12.3 v 114.1 c 0,7.4 -6,13.4 -13.4,13.4 h -21.4 c -7.2,0.1 -13.2,-6 -13.2,-13.4 z" />
	<path
   id="XMLID_16_"
   class="st13"
   d="M 457.4,556.4 V 442.3 c 0,-5.5 -3.3,-10.3 -8.1,-12.3 -2,-0.8 -2.3,-3.5 -0.6,-4.9 l 6.7,-5.6 c 1.8,-1.5 2.8,-3.7 2.8,-6 v -5.3 c 0,-2 -1.6,-3.6 -3.6,-3.6 h 8 c 2,0 3.6,1.6 3.6,3.6 v 5.3 c 0,2.3 -1,4.5 -2.8,6 l -6.7,5.6 c -1.6,1.4 -1.3,4 0.6,4.9 4.8,2.1 8.1,6.8 8.1,12.3 v 114.1 c 0,7.4 -6,13.4 -13.4,13.4 h -8 c 7.4,0.1 13.4,-6 13.4,-13.4 z" />
	<path
   id="XMLID_23_"
   class="st14"
   d="M 437,550.3 V 455 c 0,-2.8 -2.2,-5 -5,-5 v 0 c -2.8,0 -5,2.2 -5,5 v 95.3 c 0,2.8 2.2,5 5,5 v 0 c 2.8,0 5,-2.3 5,-5 z" />
	<path
   id="XMLID_25_"
   class="st14"
   d="M 455.5,550.3 V 455 c 0,-2.8 -2.2,-5 -5,-5 v 0 c -2.8,0 -5,2.2 -5,5 v 95.3 c 0,2.8 2.2,5 5,5 v 0 c 2.8,0 5,-2.3 5,-5 z" />
</g>
<g
   id="XMLID_108_"
   transform="translate(-167.4,-277.42795)">
	<path
   id="XMLID_9_"
   class="st10"
   d="m 583.4,284.7 c -1.6,1.8 -4,4.4 -6,6.6 -2.1,2.3 -5.6,2.7 -8.2,0.8 -5.7,-4.1 -15.1,-11.2 -27,-12.1 -17.2,-1.4 -28.8,4.7 -39.3,12.9 -15.5,12.2 -25.3,26.8 -30.5,35.8 3.9,3.4 5.6,4.4 8.6,6.9 4.9,-5.1 14.5,-15.8 28.1,-19.2 2.1,-0.5 5.8,-1.4 10.2,0 1.5,0.5 4.3,1.6 6.8,4.4 4.3,4.8 4,10.7 4,12 v 38.8 h 25.5 v -37.1 c -0.5,-6.5 2.3,-12.5 7.2,-15 0.4,-0.2 5.2,-2.6 9.9,-0.8 3.4,1.3 7.6,5.2 10.8,8.3 0.3,0.3 1.1,1 2.4,1.5 0.7,0.2 1.5,0.4 2.2,0.3 4.6,-0.1 14,-0.3 20.5,-0.6 3.1,-0.1 5.5,-2.6 5.5,-5.7 v -33.8 c 0,-3.1 -2.5,-5.6 -5.6,-5.7 -6.2,-0.1 -15,-0.3 -20.3,-0.4 -1.8,0 -3.6,0.8 -4.8,2.1 z" />
	<g
   id="XMLID_12_">
		<path
   id="XMLID_27_"
   class="st15"
   d="m 517.2,314.6 c -2.8,-3.2 -6.2,-4.5 -7.8,-5.1 -5,-1.6 -9.4,-0.6 -11.8,0 -7.5,1.8 -13.9,5.6 -19.2,9.7 -2.4,3.5 -4.4,6.7 -6,9.4 3.9,3.4 5.6,4.4 8.6,6.9 4.9,-5.1 14.5,-15.8 28.1,-19.2 1.9,-0.5 5.3,-1.3 9.3,-0.3 -0.3,-0.3 -0.7,-0.8 -1.2,-1.4 z" />
		<path
   id="XMLID_44_"
   class="st15"
   d="m 612.7,323.2 c -7.5,0.2 -18.4,0.5 -23.7,0.6 -0.9,0 -1.8,-0.1 -2.6,-0.4 -1.5,-0.5 -2.5,-1.4 -2.8,-1.7 -3.7,-3.5 -8.6,-8 -12.5,-9.5 -5.4,-2.1 -11,0.8 -11.4,1 -5.6,3 -8.8,9.8 -8.3,17.4 v 41.2 h 4.3 v -37.1 c -0.5,-6.5 2.3,-12.5 7.2,-15 0.4,-0.2 5.2,-2.6 9.9,-0.8 3.4,1.3 7.6,5.2 10.8,8.3 0.3,0.3 1.1,1 2.4,1.5 0.7,0.2 1.5,0.4 2.2,0.3 4.6,-0.1 14,-0.3 20.5,-0.6 2.9,-0.1 5.3,-2.4 5.5,-5.2 -0.5,-0.1 -1,0 -1.5,0 z" />
	</g>
	<path
   id="XMLID_4_"
   class="st16"
   d="m 546,548.7 h -4.8 c -12.6,0 -22.6,-12.4 -22.2,-27.3 l 4.7,-149.7 h 39.8 l 4.7,149.7 c 0.4,14.9 -9.6,27.3 -22.2,27.3 z" />
	<path
   id="XMLID_93_"
   class="st17"
   d="m 568.2,521.4 -4.7,-149.7 h -9.7 l 4.7,149.7 c 0.4,13.9 -8.3,25.6 -19.7,27.1 0.8,0.1 1.6,0.2 2.4,0.2 h 4.8 c 12.6,0 22.6,-12.4 22.2,-27.3 z" />
	<path
   id="XMLID_7_"
   class="st17"
   d="m 568.7,383.8 h -50.2 c -3.3,0 -6,-2.7 -6,-6 v 0 c 0,-3.3 2.7,-6 6,-6 h 50.2 c 3.3,0 6,2.7 6,6 v 0 c 0,3.3 -2.7,6 -6,6 z" />
</g>
<polygon
   id="XMLID_102_"
   class="st18"
   points="565.4,435.2 521.1,460 521.8,437.5 564.5,408.1 "
   transform="translate(-167.4,-277.42795)" />
<g
   id="XMLID_109_"
   transform="translate(-167.4,-277.42795)">
	<polygon
   id="XMLID_70_"
   class="st10"
   points="468.4,595.3 762.7,425.5 682.2,322.6 416.5,528.4 " />
	<polygon
   id="XMLID_65_"
   class="st19"
   points="468.8,595.6 759,427.6 751.1,408.7 455.6,578.7 " />
	<path
   id="XMLID_13_"
   class="st20"
   d="m 823.4,357.7 -54.7,-70.6 c -8.4,-10.9 -24.1,-12.9 -35,-4.4 l -5.8,4.5 20.4,26.3 v 0 c 1.4,-0.5 2.8,-0.7 4.3,-0.7 h 0.1 c 0.3,0 0.7,0 1,0 0.1,0 0.1,0 0.2,0 0.9,0.1 1.9,0.2 2.8,0.5 0.1,0 0.3,0.1 0.4,0.1 0.2,0.1 0.4,0.1 0.7,0.2 0.2,0.1 0.4,0.1 0.6,0.2 0.2,0.1 0.4,0.2 0.6,0.2 0.2,0.1 0.5,0.2 0.7,0.3 0.1,0.1 0.3,0.1 0.4,0.2 0.4,0.2 0.7,0.4 1,0.7 0.1,0.1 0.2,0.2 0.4,0.3 0.2,0.2 0.5,0.4 0.7,0.5 0.1,0.1 0.2,0.2 0.4,0.3 0.2,0.2 0.4,0.4 0.7,0.6 0.1,0.1 0.2,0.2 0.3,0.3 0.3,0.3 0.6,0.7 0.9,1 l 26,33.6 c 0.3,0.4 0.5,0.7 0.8,1.1 0.1,0.1 0.1,0.2 0.2,0.4 0.2,0.3 0.3,0.5 0.4,0.8 0.1,0.1 0.1,0.3 0.2,0.4 0.1,0.3 0.2,0.5 0.4,0.8 0.1,0.1 0.1,0.3 0.2,0.4 0.1,0.4 0.3,0.8 0.4,1.2 0,0.2 0.1,0.3 0.1,0.5 0.1,0.3 0.1,0.5 0.2,0.8 0,0.2 0.1,0.4 0.1,0.6 0,0.2 0,0.4 0.1,0.6 0,0.2 0,0.5 0.1,0.7 0,0.2 0,0.3 0,0.5 0,1 -0.1,1.9 -0.2,2.8 0,0.1 0,0.1 0,0.2 -0.1,0.3 -0.1,0.6 -0.2,1 v 0.1 c -0.4,1.4 -1,2.7 -1.8,4 v 0 l 21.6,27.9 3.4,-2 c 12.8,-7.5 16.2,-24.9 6.9,-36.9 z" />
	<g
   id="XMLID_135_">
		<path
   id="XMLID_146_"
   class="st21"
   d="m 784.7,344.5 -26,-33.6 c -0.3,-0.4 -0.6,-0.7 -0.9,-1 -0.1,-0.1 -0.2,-0.2 -0.3,-0.3 -0.2,-0.2 -0.4,-0.4 -0.7,-0.6 -0.1,-0.1 -0.2,-0.2 -0.4,-0.3 -0.2,-0.2 -0.5,-0.4 -0.7,-0.5 -0.1,-0.1 -0.2,-0.2 -0.4,-0.3 -0.3,-0.2 -0.7,-0.5 -1,-0.7 -0.1,-0.1 -0.3,-0.1 -0.4,-0.2 -0.2,-0.1 -0.5,-0.2 -0.7,-0.3 -0.2,-0.1 -0.4,-0.2 -0.6,-0.2 -0.2,-0.1 -0.4,-0.1 -0.6,-0.2 -0.2,-0.1 -0.4,-0.2 -0.7,-0.2 -0.1,0 -0.3,-0.1 -0.4,-0.1 -0.9,-0.3 -1.9,-0.4 -2.8,-0.5 -0.1,0 -0.1,0 -0.2,0 -0.3,0 -0.7,0 -1,0 h -0.1 c -1.4,0 -2.9,0.3 -4.3,0.7 v 0 L 728,287.1 v 0 l 20.4,26.3 v 0 c 1.4,-0.5 2.8,-0.7 4.3,-0.7 h 0.1 c 0.3,0 0.7,0 1,0 0.1,0 0.1,0 0.2,0 0.9,0.1 1.9,0.2 2.8,0.5 0.1,0 0.3,0.1 0.4,0.1 0.2,0.1 0.4,0.1 0.7,0.2 0.2,0.1 0.4,0.1 0.6,0.2 0.2,0.1 0.4,0.2 0.6,0.2 0.2,0.1 0.5,0.2 0.7,0.3 0.1,0.1 0.3,0.1 0.4,0.2 0.4,0.2 0.7,0.4 1,0.7 0.1,0.1 0.2,0.2 0.4,0.3 0.2,0.2 0.5,0.4 0.7,0.5 0.1,0.1 0.2,0.2 0.4,0.3 0.2,0.2 0.4,0.4 0.7,0.6 0.1,0.1 0.2,0.2 0.3,0.3 0.3,0.3 0.6,0.7 0.9,1 l 20.7,26.7 c -0.3,0.1 -0.5,-0.1 -0.6,-0.3 z" />
		<path
   id="XMLID_149_"
   class="st21"
   d="m 823.4,357.7 -4.9,-6.3 c 8.2,11.9 4.6,28.4 -8.1,35.8 l -3.4,2 -15.8,-20.5 v 0 0 l 21.6,27.9 3.4,-2 c 13.1,-7.5 16.5,-24.9 7.2,-36.9 z" />
	</g>
	<g
   id="XMLID_45_">
		<path
   id="XMLID_66_"
   class="st22"
   d="m 762.2,316.1 v 0 z" />
		<path
   id="XMLID_67_"
   class="st22"
   d="m 761.1,315.3 c -0.3,-0.2 -0.7,-0.5 -1,-0.7 v 0 c 0.3,0.2 0.7,0.5 1,0.7 z" />
		<path
   id="XMLID_68_"
   class="st22"
   d="m 762.5,316.4 v 0 c 0.2,0.2 0.4,0.4 0.6,0.6 -0.1,-0.2 -0.3,-0.4 -0.6,-0.6 z" />
		<path
   id="XMLID_72_"
   class="st22"
   d="m 759.7,314.4 c -0.2,-0.1 -0.5,-0.2 -0.7,-0.3 v 0 c 0.2,0.1 0.4,0.2 0.7,0.3 z" />
		<path
   id="XMLID_76_"
   class="st22"
   d="m 755.3,312.9 c 0,0 0,0.1 0,0 0,0.1 0,0.1 0,0 z" />
		<path
   id="XMLID_77_"
   class="st22"
   d="m 752.8,312.7 c -0.1,0 -0.1,0 0,0 -0.1,0 -0.1,0 0,0 z" />
		<path
   id="XMLID_79_"
   class="st22"
   d="m 793.3,358.9 c 0,0.2 0,0.4 0.1,0.6 v 0 c 0,-0.2 -0.1,-0.4 -0.1,-0.6 z" />
		<path
   id="XMLID_81_"
   class="st22"
   d="m 758.4,313.8 c -0.1,0 -0.2,-0.1 -0.3,-0.1 0.1,0.1 0.2,0.1 0.3,0.1 z" />
		<path
   id="XMLID_83_"
   class="st22"
   d="m 753.9,312.8 c -0.1,0 -0.1,0 -0.2,0 v 0 c 0.1,0 0.2,0 0.2,0 z" />
		<path
   id="XMLID_84_"
   class="st22"
   d="m 793.2,358 c 0,0.1 0,0.2 0.1,0.3 v 0 c -0.1,-0.1 -0.1,-0.2 -0.1,-0.3 z" />
		<path
   id="XMLID_85_"
   class="st22"
   d="m 792.6,355.9 c 0.1,0.2 0.2,0.5 0.2,0.8 -0.1,-0.3 -0.1,-0.6 -0.2,-0.8 z" />
		<path
   id="XMLID_86_"
   class="st22"
   d="m 793.4,360.2 v 0 c 0,0.2 0,0.3 0,0.5 v 0 c 0,-0.2 0,-0.3 0,-0.5 z" />
		<path
   id="XMLID_87_"
   class="st22"
   d="m 792.1,354.7 c 0.1,0.1 0.1,0.3 0.2,0.4 -0.1,-0.2 -0.2,-0.3 -0.2,-0.4 z" />
		<path
   id="XMLID_88_"
   class="st22"
   d="m 791.1,368.7 v 0 c -0.9,1.4 -2,2.6 -3.3,3.6 l -8.5,6.6 c -12.8,9.9 -31.1,7.6 -41,-5.2 l -8,-10.4 c -9.9,-12.8 -7.6,-31.1 5.2,-41 l 8.5,-6.6 c 1.3,-1 2.8,-1.8 4.4,-2.3 v 0 0 l -20.4,-26.3 -53.3,41.3 79.2,102.2 62.3,-36 -3.4,2 z" />
		<path
   id="XMLID_89_"
   class="st22"
   d="m 791.4,353.4 c 0.1,0.1 0.2,0.3 0.2,0.4 0,-0.1 -0.1,-0.2 -0.2,-0.4 z" />
		<path
   id="XMLID_90_"
   class="st22"
   d="m 790.4,351.9 c 0.3,0.4 0.5,0.7 0.8,1.1 v 0 c -0.3,-0.3 -0.5,-0.7 -0.8,-1.1 z" />
		<path
   id="XMLID_91_"
   class="st22"
   d="M 793.2,363.5 Z" />
		<path
   id="XMLID_92_"
   class="st22"
   d="M 793.4,362.1 Z" />
	</g>
	<path
   id="XMLID_19_"
   class="st20"
   d="M 725.2,284.1" />
</g>
<polygon
   id="XMLID_195_"
   class="st23"
   points="748.4,423.7 807.1,389.4 812.7,396.6 753.8,430.6 "
   transform="translate(-167.4,-277.42795)" />
<path
   id="XMLID_14_"
   class="st24"
   d="M 570.9,371.47205 H 220.7 v -176 h 364.1 v 162 c 0.1,7.7 -6.2,14 -13.9,14 z" />
<g
   id="g203"
   transform="translate(-167.4,-277.42795)">
	<g
   id="g201">
		<defs
   id="defs168">
			<path
   id="SVGID_1_"
   d="M 738.3,648.9 H 388.1 v -176 h 364.1 v 162 c 0.1,7.7 -6.2,14 -13.9,14 z" />
		</defs>
		<clipPath
   id="SVGID_2_">
			<use
   xlink:href="#SVGID_1_"
   style="overflow:visible"
   id="use170"
   x="0"
   y="0"
   width="100%"
   height="100%" />
		</clipPath>
		<g
   id="XMLID_166_"
   class="st25"
   clip-path="url(#SVGID_2_)">
			<path
   id="XMLID_147_"
   class="st8"
   d="m 414.1,598.1 c 9,-15.2 40.8,1.6 26.3,18.3 -11.3,13.1 -34.9,-3.7 -26.3,-18.3 4.6,-7.8 -3.5,5.9 0,0 z" />
			<path
   id="XMLID_148_"
   class="st26"
   d="m 451,460.3 c 0.1,24.3 8.2,60.9 23.3,73.3 30,24.5 124.7,-16 126,-55.3 C 601.9,430.2 463.8,382 445,405 c -5.8,7.1 -5.3,27.6 -1.7,28.7 1.2,0.4 2.3,-2.2 3.7,-1.9 4.2,0.6 4,23.4 4,28.5 z" />
			<path
   id="XMLID_150_"
   class="st8"
   d="m 388.4,481.2 c -23.9,66.5 71.3,53.5 89.1,97.4 18.8,46.3 -42.4,82.5 -78.3,93.1" />
			<path
   id="XMLID_154_"
   class="st8"
   d="m 391.8,578.7 c 40.4,-27.6 81.9,-3.4 57.3,42.1 -14.4,26.6 -43.5,40.2 -72.9,41.9" />
			<path
   id="XMLID_176_"
   class="st8"
   d="M 689.8,566.6" />
			<path
   id="XMLID_172_"
   class="st8"
   d="M 677.1,771" />
			<path
   id="XMLID_155_"
   class="st8"
   d="m 728.3,533.6 c 3.9,2.4 10.6,5.6 19,5.6 3.8,0 8.6,-0.1 12.7,-3.4 1.1,-0.9 4.4,-3.6 4.5,-7.1 0.2,-6.3 -9.5,-12.4 -18.3,-13 -7.1,-0.4 -17.1,2.6 -19,9.8 -0.8,3.2 0.2,6.2 1.1,8.1 z" />
			<path
   id="XMLID_161_"
   class="st8"
   d="m 715.2,556.9 c 9.1,5 18.1,3.6 36,0.7 12.1,-1.9 18.7,-3.1 25.4,-8.5 1.9,-1.5 11.9,-9.6 12.7,-21.9 1.1,-15.9 -13.9,-28.9 -26.1,-33.9 -21.2,-8.6 -40.9,4.1 -44.4,6.3 -6.1,4 -21.1,13.6 -21.2,29.6 -0.1,12.7 9,23 17.6,27.7 z" />
			<path
   id="XMLID_162_"
   class="st8"
   d="m 786.1,576.7 c -5.3,4.1 -22.7,16.9 -46.7,14 -19.2,-2.3 -31.3,-13.4 -34.7,-16.7 -15,-14.7 -17.4,-32.4 -18,-38 -0.6,-5.6 -2,-19 5.2,-33.5 6.1,-12.2 15,-18.7 20.5,-22.6 22.6,-16.2 47,-13.9 51.5,-13.4 8.4,0.9 21.1,2.3 32.5,12 20,17 17.4,45.4 16.9,50.1 -2.6,28.7 -23.2,45.1 -27.2,48.1 z" />
			<path
   id="XMLID_164_"
   class="st8"
   d="m 795.7,590 c -3.3,3.2 -8.5,7.5 -15.7,11 -27.6,13.2 -58.5,0.4 -75.7,-6.7 C 686.6,587 674.4,578.5 657.6,567 628.5,546.9 625,538.5 606.3,533.7 c -6,-1.6 -25.2,-6.2 -44.5,2.5 -5.8,2.6 -10.2,6 -14.8,9.8 -22.3,18.2 -28.5,38.8 -48,82 -4.5,10 -11.2,24.5 -20,42" />
			<path
   id="XMLID_165_"
   class="st8"
   d="m 523,724 c 15.8,5.1 47.9,-66.9 69.5,-59.2 12.1,4.3 10.9,30.3 20.5,31.2 10.6,0.9 21,-30 22,-33 2.5,-7.7 19.4,-58.9 -9,-92 -3.9,-4.5 -12.7,-14.5 -27.2,-17.7 0,0 -15.5,-3.4 -33.8,5.7 -48.3,23.7 -62.5,158.3 -42,165 z" />
			<path
   id="XMLID_173_"
   class="st8"
   d="m 565,637 c 5.7,4.2 20.2,-5.7 28,-15 3.9,-4.6 12.1,-14.3 8.4,-21.8 -2.9,-5.8 -11.8,-7.9 -18.4,-6.2 -7.5,1.9 -11,8.5 -14,14 -4.8,8.9 -9.6,24.9 -4,29 z" />
			<path
   id="XMLID_174_"
   class="st8"
   d="m 604,438.3 c 9.8,10.1 20.7,24.5 17.6,38.8 -2.3,10.6 -11,15.1 -9.3,17.9 3.3,5.5 39.9,-2.4 64,-28 12.8,-13.6 18.7,-28.7 21.5,-38.6" />
			<path
   id="XMLID_177_"
   class="st8"
   d="m 507,497 c 7.6,8.2 22.6,15.4 34,10 11,-5.2 13.4,-19.6 14,-23.3 5,-29.8 -21.4,-65.8 -37,-62.9 -17,3.1 -31.4,54 -11,76.2 z" />
			<path
   id="XMLID_178_"
   class="st8"
   d="m 522.2,435.7 c 5.6,0.1 10.4,17.3 10.8,31.3 0.2,7 -0.5,23.8 -5.3,24.7 -6,1 -19.7,-22.8 -14,-43.1 0.1,-0.5 3.7,-13 8.5,-12.9 z" />
			<path
   id="XMLID_179_"
   class="st8"
   d="m 798.2,632.9 c -39,24.1 -57.4,23.2 -67,16.9 -6.9,-4.5 -9.9,-12.3 -28.2,-26.8 -7.7,-6.1 -13.8,-10 -21.2,-9.2 -7.2,0.8 -12.1,5.6 -13.4,7.1 -4.7,5 -5.7,10.8 -7.1,19.8 -1.6,10.4 -0.1,13.3 -2.1,23.3 -1.1,5.2 -2.5,9.3 -3.5,12" />
			<path
   id="XMLID_52_"
   class="st26"
   d="M 474.3,420.2" />
			<path
   id="XMLID_53_"
   class="st8"
   d="m 680.8,657.4 c -7.3,-10.6 -8.2,-20.9 -4,-24.7 5,-4.4 16.1,1.4 17.3,2 12.4,6.6 15.9,20.4 16.7,24" />
			<path
   id="XMLID_56_"
   class="st8"
   d="m 501.5,554.2 c -7.2,1.2 -14.8,8.2 -13.3,16 1,5.2 5.9,10.1 10.7,10 9.1,-0.1 16.7,-18.2 12,-24 -2.6,-3.2 -8.2,-2.2 -9.4,-2 z" />
			<path
   id="XMLID_137_"
   class="st8"
   d="m 548,613 c 3.9,-12.7 9.7,-31.5 27,-39 2.4,-1 14.7,-6.4 27.8,-0.6 13.6,6 17.8,19.6 18.7,22.7 5.7,20.3 -9.8,36.4 -10.7,37.3 -3.1,3.2 -5.8,4.6 -19.3,10.7 -26.3,11.7 -39.5,17.5 -43.5,15 -11.8,-7.5 -1.3,-41.7 0,-46.1 z" />
			<path
   id="XMLID_144_"
   class="st8"
   d="M 740.8,706.2" />
			<path
   id="XMLID_145_"
   class="st27"
   d="m 403,487.7 c 0.5,4.3 2.9,22.9 17.4,30.7 4.3,2.3 13.5,5.8 17.4,2 5.1,-4.9 -3.8,-16.8 -9.3,-40.1 -6.6,-27.4 -1.7,-41.7 -6,-42.7 -6.1,-1.5 -22.8,24.1 -19.5,50.1 z" />
			<path
   id="XMLID_6_"
   class="st8"
   d="m 761,662 c -20.6,-11.1 -30.3,-27.1 -27,-34 3.3,-6.8 21.7,-9.1 43,0" />
			<path
   id="XMLID_8_"
   class="st8"
   d="m 673,599 c -0.1,-4 -9,-9.5 -14,-6 -4.1,2.9 -4.1,10.5 -1,13 4.2,3.4 15.1,-2.5 15,-7 z" />
			<path
   id="XMLID_18_"
   class="st28"
   d="m 628,508 c -5,2.6 -7.4,3.9 -8,6 -2.1,7.3 12.8,18.5 26,23.5 8,3.1 17.4,6.5 24.3,1.6 8.5,-6 8.2,-21.5 2.7,-30.1 -0.9,-1.4 -3.2,-4.9 -7.6,-6.9 -2.1,-1 -4.8,-2.2 -11.4,-1.1 -12.7,2.2 -18.6,3.1 -26,7 z" />
			<path
   id="XMLID_21_"
   class="st8"
   d="m 650.4,514.8 c -6,0.6 -11.1,5.4 -9,9 1.7,2.9 7.6,4.5 12.3,3.4 5.3,-1.2 8.8,-5.7 6.6,-9 -1.7,-2.6 -6.2,-3.8 -9.9,-3.4 z" />
			<path
   id="XMLID_29_"
   class="st8"
   d="m 489.7,443.7 c -2,3.5 -17.3,31.8 -4,59.3 2.2,4.5 9,18.7 24,24 22,7.8 46.3,-9 58,-24.7 12.9,-17.3 13,-36.5 12.7,-44" />
		</g>
	</g>
</g>
<circle
   id="XMLID_49_"
   class="st5"
   cx="222.10001"
   cy="235.87204"
   r="9" />
<path
   id="XMLID_3_"
   class="st3"
   d="m 193.9,135.47205 v -51.9 c 0,-19.9 -16.1,-36 -36,-36 v 0 c -19.9,0 -36,16.1 -36,36 v 51.8 c 0,33.1 -26.9,60 -60,60 v 0 152 c 0,13.3 10.7,24 24,24 h 144 c 13.3,0 24,-10.7 24,-24 v -152 0 c -33.2,0.1 -60,-26.8 -60,-59.9 z" />
<polygon
   id="XMLID_17_"
   class="st3"
   points="413.9,634.9 755.4,634.9 742.4,648.9 398.9,648.9 "
   transform="translate(-167.4,-277.42795)" />
<path
   id="XMLID_42_"
   class="st3"
   d="m 584.9,195.47205 v 135.4 0 16.5 c 0,5.5 -4.5,10 -10,10 h -16.5 v 0 h -27.9 v 14 H 575 c 13.3,0 24,-10.7 24,-24 v -152 h -14.1 z" />
<path
   id="XMLID_5_"
   class="st29"
   d="m 179.9,135.47205 v -51.9 c 0,-19.9 -16.1,-36 -36,-36 v 0 c -19.9,0 -36,16.1 -36,36 v 51.8 c 0,33.1 -26.9,60 -60,60 v 0 152 c 0,13.3 10.7,24 24,24 h 144 c 13.3,0 24,-10.7 24,-24 v -152 0 c -33.2,0.1 -60,-26.8 -60,-59.9 z" />
<path
   id="XMLID_69_"
   class="st30"
   d="m 50,357.47205 c 3.8,8.3 12.1,14 21.8,14 h 144 c 9.7,0 18,-5.7 21.8,-14 z" />
<g
   id="g235"
   transform="translate(-167.4,-277.42795)">
	<g
   id="g233">
		<defs
   id="defs212">
			<path
   id="SVGID_3_"
   d="M 347.3,412.9 V 361 c 0,-19.9 -16.1,-36 -36,-36 v 0 c -19.9,0 -36,16.1 -36,36 v 51.8 c 0,33.1 -26.9,60 -60,60 v 0 152 c 0,13.3 10.7,24 24,24 h 144 c 13.3,0 24,-10.7 24,-24 v -152 0 c -33.2,0.1 -60,-26.8 -60,-59.9 z" />
		</defs>
		<clipPath
   id="SVGID_4_">
			<use
   xlink:href="#SVGID_3_"
   style="overflow:visible"
   id="use214"
   x="0"
   y="0"
   width="100%"
   height="100%" />
		</clipPath>
		<g
   id="XMLID_117_"
   class="st31"
   clip-path="url(#SVGID_4_)">
			<path
   id="XMLID_104_"
   class="st32"
   d="m 252.1,678.7 c -18.3,-25.6 -6.3,-74 23.3,-89.3 13.8,-7.1 27.2,-4.9 31.1,-4.3 37.2,6.6 69.2,55.1 56.7,84 -14.2,32.9 -87.1,43 -111.1,9.6 z" />
			<path
   id="XMLID_106_"
   class="st32"
   d="m 216.1,650.7 c -8,-22.4 10.7,-56.1 35.7,-72 46.7,-29.8 98.2,13.2 134,-16 29.9,-24.5 18.6,-74.8 25,-75 9.7,-0.3 58.1,115.1 0,176 -56.7,59.4 -179.4,29.9 -194.7,-13 z" />
			<path
   id="XMLID_110_"
   class="st32"
   d="m 277.8,656.7 c -9.2,-10 -14,-27.4 -5.7,-40 6.2,-9.4 17.2,-11.4 20.7,-12 15.9,-3 41.4,3.1 46,22.7 3.9,16.5 -9,34.7 -26,39.3 -12.4,3.4 -26.3,-0.5 -35,-10 z" />
			<path
   id="XMLID_111_"
   class="st33"
   d="m 379.5,625.7 c 5.3,-2.4 5.9,-19.5 -2.5,-25.8 -2.9,-2.2 -8.3,-4.1 -11.9,-1.6 -3.9,2.6 -3.4,8.8 -3.3,9.8 0.9,10.3 12.7,19.9 17.7,17.6 z" />
			<path
   id="XMLID_112_"
   class="st32"
   d="m 212.1,527.4 c 7.3,-2.6 17.6,2.2 21.3,9.3 8.9,17.1 -20.1,48.8 -29.3,45.3 -9.4,-3.5 -8.7,-48.6 8,-54.6 z" />
			<path
   id="XMLID_113_"
   class="st32"
   d="m 207.8,499.7 c 7,6.1 18,14.2 33,20.3 19.2,7.8 36.3,8.9 46.7,8.7 15.6,-3.9 24.2,-10.7 29.3,-17 26.1,-31.9 5.6,-103.7 -54,-177" />
			<path
   id="XMLID_115_"
   class="st32"
   d="m 219.4,470 c 8,19.7 33.8,35.9 52.4,28.7 13,-5 18,-19.6 19.6,-24.2 11,-32 -8.1,-76.9 -29.6,-78.8 -22.4,-1.9 -55.5,42.2 -42.4,74.3 z" />
			<path
   id="XMLID_116_"
   class="st32"
   d="m 403.8,377.7 c -5.9,-20 -23.1,-47.3 -38.9,-44.9 -18.2,2.8 -23.5,43.8 -25.1,48.9 -11.6,37.3 7.3,84.7 26,87 13.9,1.7 27,-22.6 31,-30 3.2,-5.9 15.9,-31.1 7,-61 z" />
			<path
   id="XMLID_132_"
   class="st32"
   d="m 352.9,490.3 c -3,1.6 -7.1,4.5 -25.1,40.4 -8.7,17.3 -9.6,20.3 -8,23 4.8,8.2 29.6,6.4 46.6,-4.9 20.3,-13.6 33.8,-43.1 24,-55.5 -7.1,-9.1 -25.6,-9.4 -37.5,-3 z" />
			<path
   id="XMLID_136_"
   class="st32"
   d="m 363.4,505.3 c -11.1,7.8 -21.3,22.8 -17.6,27.4 4.2,5.2 27.7,-1.1 32.5,-15.2 1.9,-5.7 1.2,-14.1 -3,-16.2 -3.6,-1.7 -8.5,1.6 -11.9,4 z" />
			<path
   id="XMLID_139_"
   class="st32"
   d="m 296.8,628.7 c -10.9,5.8 -7.5,36.6 1.3,39.3 7.7,2.4 26.9,-14.8 21.3,-28.7 -3.4,-8.7 -16,-14.1 -22.6,-10.6 z" />
			<path
   id="XMLID_140_"
   class="st32"
   d="m 244.8,548.7 c -0.5,3.3 8.9,7.9 16.7,8.7 2.7,0.3 7.4,0.7 9.3,-2 1.6,-2.2 0.9,-5.8 -0.7,-8 -5.2,-7.2 -24.6,-3.2 -25.3,1.3 z" />
			<path
   id="XMLID_141_"
   class="st32"
   d="m 232.1,454.7 c 1,16 18.6,31.5 27.7,28 8.2,-3.2 12.3,-22.9 3.7,-34.7 -6,-8.2 -18.9,-13.6 -26,-8.7 -6.1,4.2 -5.5,14 -5.4,15.4 z" />
			<path
   id="XMLID_114_"
   class="st32"
   d="m 305.8,349.7 c -3.7,2.5 -3.3,13.9 4,20 8.2,6.8 20.6,3.3 22,-1 2.2,-6.7 -20,-23.1 -26,-19 z" />
			<path
   id="XMLID_50_"
   class="st33"
   d="m 452.8,570.7 c -14.2,-5.1 -40.3,-8.1 -53,8 -14.3,18.1 -0.2,45.8 2,50 1.6,3 14.8,26.9 43,31 16.7,2.4 41.4,-1.8 50,-18 12,-22.7 -12.1,-60.2 -42,-71 z" />
		</g>
	</g>
</g>
<circle
   id="XMLID_57_"
   class="st3"
   cx="222.10001"
   cy="283.47208"
   r="9" />
<circle
   id="XMLID_105_"
   class="st3"
   cx="222.10001"
   cy="235.87204"
   r="9" />
<circle
   id="XMLID_60_"
   class="st3"
   cx="222.10001"
   cy="330.97208"
   r="9" />
<circle
   id="XMLID_64_"
   class="st3"
   cx="64.700005"
   cy="235.87204"
   r="9" />
<circle
   id="XMLID_63_"
   class="st3"
   cx="64.700005"
   cy="283.47208"
   r="9" />
<circle
   id="XMLID_61_"
   class="st3"
   cx="64.700005"
   cy="330.97208"
   r="9" />
<circle
   id="XMLID_38_"
   class="st3"
   cx="143.89999"
   cy="84.272064"
   r="12" />
</svg>
