<svg xmlns="http://www.w3.org/2000/svg" viewBox="0 0 1023.2 1024"><style>.st1{fill:#ae95c8}.st2{fill:#92ced4}.st3{fill:#842fd7}.st5{fill:#c5e3b3}.st13{fill:#751c9e}</style><switch><g><g id="_x32_019II"><path class="st5" d="M557.9 15.5c-.4-.6-4.8-6-6.4-5.7-9.7-5.8-26.7.8-27.1 11.3 0 5.9 4.2 9.4 1.9 10.6-2.7 2.8-37 35.3-37 35.3l41.2 37 .7 235.8h9.5s-.7-236.7-.7-238.7c.3-1.8-38.1-33.9-36.5-35.3 4.3-3.5 27.6-28.2 29.5-29.1 1.9 1.2 12.5 4.3 17.6 1.5 9.1-3.7 10.7-18.3 7.3-22.7zM548 31.2c-6.1 4-15.1 1-16.4-6.5-1.2-7.4 5.1-12.9 12.2-11.4 2.2.4 4.1 1.6 5.4 3.3.9.7 1.7 1.5 2.3 2.5 2.9 4.2.5 9.4-3.5 12.1zM439.4 78.8c-2-2.7 4.8-4.7 3.7-11.5-.1-.4-.3-8.2-2.8-10.7-.4-.4-5.9-4.9-8.6-5.6-1.2-.4-8-1.8-13.5.5-2.7 1.2-7.7 5.2-10.2 11.3-2.6 6.3 3.5 14.9 4.3 16 5.8 7 16 4 17.5 4.3 3.6 2.9 44.1 38.6 44.1 38.6v298.2h9.5l.1-301.9c.1 0-40.3-35.7-44.1-39.2zm-10.4-3c-.8.2-1.6.3-2.4.2-.6.3-1.2.4-1.9.4-1.4-.2-2.7-.6-3.8-1.4-.4-.2-.7-.4-1.1-.5-2.4-1.6-3.8-4.1-3.8-6.9v-.5c-.3-2 .4-4.2 2.4-5.9 1.2-1.1 2.6-1.8 4.1-2.2 1.2-.4 2.6-.6 3.9-.5s2.5.4 3.5 1c2.6 1.1 4.7 3.2 5.3 6.3 1.2 4.4-1.4 8.9-6.2 10z"/><path class="st2" d="M273.2 279l-29.1 52.7c0 1.9.1 140.1.2 142.8 3.5 0 6.6-.4 10.2-.4.4-.6-.9-141.1-.9-141.1l24.8-43.9"/><path class="st1" d="M824.1 843.1l.2-20.2.3-14 50.7-29.6s1-30.8 0-32.1c-1.9-2.3-63.6-45.8-63.6-45.8V562.1l9.4.3.3 135.3 63.6 44.5v43l-51.5 29.1-.1 7.9-.1 20.7s10.1 7.4 11.3 12.7c-.1 3.5.1 6.6-.9 9.7.2 2.1-2.7 7.2-4.7 8-1.9 1.6-6.3 2.1-8.8 3.1-5.7.1-9.9-1.7-11.2-3.6-7.7-7-8-15.1-.8-24.8 1.3-1.9 5.9-4.9 5.9-4.9zm-4.1 22.6v.3c.1.7.5 1.3 1.1 1.9 1 1.3 2.1 2.5 3.8 2.9.1 0 .2 0 .4.1 3.6 1.7 8.5.1 11.3-2.7 3-3 3.2-7.6 1.2-11.3-1.8-3.3-5.2-5.8-9-6-4.5-.2-8.4 3.8-9 8.2-.1.7-.1 1.5 0 2.2-.5 1.3-.4 2.9.2 4.4z"/><path class="st3" d="M581.5 709.5c-.4-1.4-.6-48.8-.6-48.8H571l.7 54.6 31.7 21.4-.4 31.7-26.6 15.3-37.8-30.8s-.8-46.1 0-46.7c4.6-2.8 11-6.9 10.8-12.9.2-2-.3-9.2-1.9-11.4-1.2-3.1-10.4-6.6-13.7-6.7-3.4.3-11.5 4.3-12.1 6-1.1 1.3-2.4 12.1-1.4 13.8-1.2 2.8 9 11.3 9 11.3l.2 51.2s44.9 37.8 46.1 37.5c.9 0 37.6-21.4 37.6-21.4v-43.4c-.2-.1-30.1-19.7-31.7-20.7zm-47.2-9.1c-3.6.7-7.2-2.3-8.5-6-1.5-4.1-.2-9 3.9-10.9 4.9-2.4 10.7-.5 13.4 4.2 2.5 4.4 1.3 10.3-3.6 12.3-1.8.5-3.5.7-5.2.4zM381.9 128c-.4-5.1-11.9-9.4-12.7-9-7.6.4-14.5 1-17.9 6.7-2.4 3.1-3.1 16.3.7 20.4.4.4 6.6 6.8 6.9 6.5 0 0 .3 47.6-1.1 52.6-2.5 2-28.2 42.1-28.2 42.1l-.7 38.1 13 24.8-.6 161.2h9.9l.9-162.6-12.9-24.3s.1-34.3 1.6-36.2c.4-.3 28.6-40.8 28.2-43.2-.8-4.5.4-51.4.4-51.4s9.9-5.7 10.8-7.1c3.1-4.9 2.4-16.8 1.7-18.6zm-9.4 16.2c-2.2 2.4-5.4 3.6-8.7 3-3.5-.7-6.5-3.7-7.6-7-2.3-6.5 2.1-17.8 10.6-14.6.5.2 1 .4 1.4.8 1.4.2 2.7.7 4 1.5 5.8 3.7 4.5 11.9.3 16.3z"/><path class="st1" d="M696.7 72.4c1.3-3.2 2.8-5.3 4.8-6.8 2.2-1.7 9.4-3.8 12.2-3.7 3.6.2 11 4.8 13.3 7.5 2.3 2.7 3.6 12.6 4.7 13.6 1.2.5 49.2 36.6 50 39.3 1.1 1.3-.2 355.2-.2 355.2h-10l-.2-353.1-46.2-34s-17.4 4.9-22 .4c-4.6-4.3-9.2-11.8-6.4-18.4zm8.7 10.5c3 2.9 7.3 4.9 11.4 3.4 3.8-1.4 6.1-5.1 6.4-9 .3-4.1-2.3-7.6-6-9-3.4-1.2-7.6-.6-10.4 1.7-1 .5-1.9 1.2-2.6 1.9-3.1 3.4-1.9 8 1.2 11zM179.1 428.4c-7.6-.7-35.8-1-35.8-1l-36.3 33s-50.9 1.2-52.6.1c-2-3.9-5.5-8.9-9.7-10.5-6.4-2.5-12.5-2.1-17.8 2.1-5.5 4.4-8.2 10.4-7.6 17.5.8 4.9 4.3 9.8 10.1 10.5 5.4 1.2 11 .8 16.2-.8 2.3.3 7.5-8.6 8.9-8.8 7.1-1.1 55.6-.5 57.9-.9 1.4.1 36.2-32.2 36.2-32.2l30.8.3c-.9-1.1.1-9.2-.3-9.3zM41.9 474.2c-4.1 1.9-9.7 1.6-13.1-1.4-3.4-2.9-3.2-6.8-1.5-10.3.4-1.3 1.2-2.7 2.4-3.6 4.7-4.2 13.3-3.1 16.3 2.7 2.5 4.6.8 10.4-4.1 12.6z"/><path class="st3" d="M229.5 111c5.1 3.4 8.5 12.2 4.5 22.2-.3 1.7-3.2 5-4.7 5.7-3.9 2.7-7.1.4-7.5 4.8-.4 3.1.2 50.1.2 50.1l-30.8 41.7.5 194.7s-7.9.5-10.4 0c.1-4.9 0-198.7 0-198.7l30.6-39.6.2-49.4s-6.8-5.8-7.4-7.3c-4.2-12.7-3.6-13.1 3-22.2 2.7-3.7 5.6-4.5 9.7-6 3-1 10.3 1 12.1 4zm-15.4 4.4c-1.4.9-2.6 2.3-3.4 4-1.9 2-2.8 4.8-1.9 8 .3 1.1.9 2 1.6 2.8.4.8.9 1.6 1.5 2.2 1.7 1.7 3.9 2.4 6.1 2.1 3.5.5 7.2-1.4 8.9-4.7 1.7-3.1 1.5-6.5.1-9-.2-.6-.4-1.2-.7-1.8-1.5-2.7-4.3-4.3-7.3-4.3-1.6-.4-3.3-.2-4.9.7z"/><path class="st1" d="M457.1 830.8s2.1-167.1 1.2-170.2l-8.7.3c-1.2 1.3-1.9 165.2-1.9 165.2s-20.3 15.2-26.9 20.2c-1.6.7-.1 121.3-1.7 123.5-1.8 1-7.5 8-8.4 9.6-3.3 10 5.1 22.4 8.2 23 5.6.4 21.1.5 20.8-8.2 1.4-6.5.2-17.1-5.6-20.5-1.4-.9-4.4-4.1-4.4-4.1l.7-118.3 26.7-20.5zm-21.8 156.9c0 3.5-1.8 6.7-5.4 7.2-.9.1-1.7 0-2.6-.2-.9.4-1.9.5-2.8.5h-.5c-4.4-.3-8.2-4.4-8.4-9-.3-4 1.9-8.2 6-9.2 6.5-1.7 13.6 4 13.7 10.7z"/><path class="st2" d="M619.9 63.8c-1-1.8-5.2-3.5-7.4-3.7-4.8-.4-9.9-.5-10.2-.4-5.4 1.5-12.9 8.2-12.7 10.2-1.9 5.2-.4 18.6.4 19.4 2.2 4.8 10.4 6 10.9 10.2.8 3.8-.2 372.2-.2 372.2l10.6.1s.1-369.6.9-372.7c.2-1 12.1-7.3 11.8-9.5 2.3-5.9 1.3-19.9-4.1-25.8zm-2.2 17.1c-.2.6-.4 1.2-.7 1.8-1.2 5-5.3 8.6-10.4 7.1-1.3.1-2.7 0-4.1-.4-11.4-3.6-7.3-23.7 4.7-22.2 3.4.4 6 2.1 7.8 4.6 2.4 2.3 3.7 5.5 2.7 9.1zM214.8 703.4l-44 37-44.3-.2s-3.3-10.2-8.7-12.6c-5.4-2.3-16.8-2.7-21.3.9-6.3 5-7.5 20.3-2.7 27 4.3 5.8 18.5 6.6 24.6 2.9 1.9-1.1 7.5-7.1 7.5-7.1l48.7-.9 29.9-24.9m-86.1 22.6c-1.6 4.6-6.8 7-11.4 6.2-3-.5-5.7-2.3-7.6-4.6-1-.9-1.7-2-2.1-3.4-.1-.4-.2-.7-.3-1.1-1-3.2-.5-6.6 2-9 3.2-2.9 8.3-3.2 12-1.2 5.2 2.2 9.4 7.7 7.4 13.1z"/><path class="st3" d="M752.7 322.8l-5.5-4.9c-2.9-2.1-18.7-1.7-22.9.7-3.4 1.9-6.8 9.7-9.3 12.2-3.5.1-43.8-.7-43.8-.7s-44.8 47.4-47.1 53.5c-.1 1.5-.2 87.1-.2 87.1h11.8v-86.4l41.4-44.7s37 1.1 37.9 1.2c1.6 1.4 7.3 11.2 10.4 12.6 3.3 1.5 10.8 1.7 14.3 1.1 2.8-.5 8.2-3.6 10.1-5.8 1.7-1.9 3-7 3.4-9.6.5-4.5 2-11.6-.5-16.3zm-7.4 19c-1.5 2.3-4 4.1-6.6 4.3-1.8 1-3.7 1.5-5.8 1.4-7.2-.2-12.1-7.6-10.2-14.4 1.4-5.2 6.6-8.8 12-8.4 1.1-.4 2.3-.4 3.5-.1 3.5 1 6.7 4.3 7.3 8 1.5 2.9 1.7 6.2-.2 9.2z"/><path class="st2" d="M863.6 341.7c5.9-1.2 12.9 2.7 15.8 9.9.8 1.7 46.8.1 55.3.2 2.7 0 46.1 32.9 46.1 32.9L957.1 420s6.1 13.8 1.6 18.4c-3.6 3.8-10.1 8.9-15.8 7-7.6-2.6-11.5-8.3-13.2-15.7-1.2-4.9 2.5-7.9 5.2-10.9 2-2.3 5.1-3.4 8.1-4.3 1.2-.4 3.5.2 4.3-.7 6.9-7.4 18.6-27 18.6-27l-34.3-24.5s-49.8-.7-51.5.1c-2.3 7.8-8.2 12.7-14.8 12.1-7.8-.8-15.7-8.3-16.4-15.9-.6-6.2 7.3-15.4 14.7-16.9zm89.8 82.3c-.4-.3-.7-.5-1.2-.7-1-1.3-2.5-2.2-4.2-2.5-.3-.2-.6-.4-.9-.5-4-2-9.2-1.4-11.6 2.7-1.3 2.3-1.6 5.1-.9 7.5-.4 2.6.4 5.2 2.6 7.4 4 3.9 11 5.1 15 .7 3.3-3.6 5.7-11 1.2-14.6zm-97.2-64.2c.2 1.8.8 3.5 2 5 4.4 5.1 13.2 3.1 14.7-3.5.8-3.6-.5-7-2.9-9.1-.2-.2-.4-.3-.5-.4-2.2-1.7-5.2-2.5-8.3-1.5-3 1-5.5 3.6-5.5 7 0 .9.2 1.7.5 2.5zM625.5 962.3c1.5-1.2 6.6-3.9 7.5-5.3 0-.2.2-26.7.3-52 .1-23.1.2-185.3.2-185.3s37-29.7 38.2-30.6l.4-126.5h10l-.5 131-37.3 30.1s-.2 159.8-.4 181.2c-.2 24.5-.5 51.1-.4 52.8 4.1 2.9 8.2 6.4 8.3 11.8 1.2 2.7-2 12.5-4.2 15.3-2.9 4-13.6 5.9-15.7 4.8-5.9-.9-10.5-6-10.3-11.8-1.2-3 1.5-13.7 3.9-15.5zm2.4 14.6c1 2.7 3.2 4.6 5.9 5.2.2.1.4.2.6.2 3.4.5 6.6-.3 9.1-2.7 2.2-2.2 3.5-5.6 2.5-8.7-1.6-5-7.6-7.4-12.4-5.8s-7.5 7.1-5.7 11.8z"/><path class="st5" d="M985.7 607.4c-7.1-3.4-18.3 3.5-18.3 3.5l-17.7-13.6s.4-75.6-1.1-75.5c-1.3-.4-14.7-14.9-14.7-14.9l-4.3 5.8s6.2 10.5 9.2 12.6c1.2 1.2.8 74.6 1 75.1.6 1.1 19.1 15.2 20.6 17.2.8 1.9-.7 7.5.6 9-.2 5.6 4.4 7.9 7.5 11.5 1.7 2.6 16 4 18.8 3.1 8.3-2.6 10.5-10.9 12-19.2 1.2-7.6-7.2-11.6-13.6-14.6zm4 25.6c-2.3 2.4-5.8 3.4-9 3.3-7.9-.1-15.9-7.4-11.5-15.7 4.2-8 16.9-8.9 21.1-.4.7 1.4 1.2 3 1.2 4.7.8 2.8.3 5.9-1.8 8.1z"/><path class="st2" d="M451.2 282.5c-1-1.7-14.2-5-18.7-1.3-9.5 3.1-7.9 17.5-7.9 17.5s-37 46.9-41.9 48.8c-1.8 1.6-.9 122.1-2.4 128.8 1.6.1 10.9.4 10.9.4l1.2-123.2s36.5-45.2 38.4-47.1c2.4-.9 10.5 6 16.2 1.5 10-5 12.4-15.5 4.2-25.4zm-4.8 18.8c-.2.1-.4.3-.6.4-.8.7-1.9 1.2-3 1.2-1.5.1-3 .2-4.4-.2-2.2-.3-4.3-1.2-5.8-2.9-2.9-3.3-2.9-8.4-.4-11.9 5.2-6.8 18.5-4.9 19.2 4.6.1 3.6-2 7.1-5 8.8z"/><path class="st5" d="M1003.8 470c-1.4-7.4-8.8-12.8-15.8-11.4-8.8 1.7-15.6 9.8-14 17.3.5 2.6 1.5 3.9-.4 5-4.8 2.6-44.7 25.6-58.5 36.2h-98.4c-.2 2.3.4 9.7.4 9.7s95.9-.2 99.9 0c1.6.4 42.2-26.4 61.7-36.8 3.1-1.7 5.8-1.9 8.6-.9 3.7 1.3 7 .4 10-1.4 6.2-3.7 8.1-9.3 6.5-17.7zm-9.5 12.8c-2.4 1.2-5.1 1.1-7.4-.1-2.8-.4-5.5-1.9-7-4.3-2.5-3.9-1.2-9.7 2.7-12.3 5.8-3.8 14.5-.2 16.3 6.5 1 4-.9 8.5-4.6 10.2z"/><path class="st3" d="M190.6 352.5l-39-61.2s-1.2-4.1.4-6.6c2.3-3.6 2.1-8 1.7-12.2-1.2-6.4-6.8-12-13.2-13.3-12.1 1.7-18.4 8-16.8 21.2-.4 1.2 2.4 8.2 5.4 10.2 1.1 2.3 6.4 4.2 8.7 3.8 2.9.1 6 .9 6 .9s34.9 56.4 38.2 59.6c0 2.7-.4 69.5-.4 69.5h9v-71.9zm-60.2-71.6c-.9-2.2-.8-4.8.4-7.3.5-2.4 2.2-4.7 4.5-5.8 5.2-2.7 10.5 1.2 12.2 6.2 1 2.9.5 5.8-.8 8.2-.2.4-.4.7-.6 1.1-1.1 1.6-2.6 2.6-4.3 3.1-1.2.4-2.5.7-3.8.7-4.2-.1-6.9-3-7.6-6.2z"/><path class="st5" d="M686.2 873.4c-2.5-4.9-2.8-10.2-1.4-14.8.8-3.3 5.7-8.6 9.2-9.1 6.1-.8 7.4-.7 11.8.8 2.9.6 7.9 7.6 7.9 7.6l26 .2s12.9-24.1 13-24.8c-.4-.6-27.6-30.4-29.2-29.7-.7.1-13.5 4.4-15.7 1.8-3.6-.1-12.1-13.2-9-19.1.4-1.1 5.7-9.6 11.3-9.5 1.9-.5 11.3 1.1 12.4 2.7 2.4.4 6.3 13.8 6.6 15.3.3.3 35 37.1 35 37.1l-19.5 35.2-31 .5s-4.2 9.6-9.7 10.6c-2.4.7-16.1-.5-17.7-4.8zm32.2-74.4c.4-.2.9-.4 1.2-.7 4.7-3.3 3.9-9.6.8-13.6-3-4-9-5.9-12.9-1.7-1.1 1.2-1.8 2.6-2.2 4.1-.3.4-.4.9-.6 1.3-.6 1.8-.4 3.6.3 5.1.1.6.3 1.2.4 1.8 2.1 5.2 8.6 8 13 3.7zm-17.7 73.7c.3-.1.4-.1.7-.2.3 0 .5-.1.9-.2 3.7-1 6-5 5.8-8.7-.4-6.9-9.1-12.5-15.4-8.6-5.1 3.2-5.2 11-.9 15 2.2 2.1 5.7 3.4 8.9 2.7z"/><path class="st3" d="M706.6 144.2v192h-11s.8-183.4.4-189.6c0-.4-21.9-32-21.9-32l-20.7 24.6 2.4 9s-.1 9.5-.6 11c-2 5.6-2.8 8.6-8.9 11.8-8.8 4.7-18.4-2.8-21.3-8.7-4-8.2 3.5-21.4 11.9-25.3 3.4-1.6 7.3-2 7.3-2l30.3-36 32.1 45.2zm-68.8-.5c-4.2.7-6.8 4.3-7 8.4 0 .4 0 .9.2 1.3 0 .2 0 .4-.1.5-.2 3.6 1.9 7.2 5.1 9 3.5 1.9 7.7 1.6 10.5-1.3 3.1-3.3 3.9-9.1 1.9-13-2.1-3.8-6.5-5.6-10.6-4.9zM558.6 980.6c-.5-3.8-11-8.4-12.7-8.5-1.9 0-11.7 2.2-11.7 2.2l-29.8-28.4.6-286h-10v291.3s25.1 24 32.6 32c-1.5 5.8 1.3 10.4 4.7 14.2 1.2 2.6 6.7 5.5 9.5 5.6 3.5.3 4.7.4 8.2 0 6.3.2 11.3-7.8 10.9-14.5.5-1.2-2-7.3-2.3-7.9zm-17.1 16.5c-1.6-.3-3.1-1-4.4-2.1-2.3-2-3.1-5.3-2.5-8.3 2.2-9.7 18.3-8.5 19.7 1.2.8 6.9-7.4 12.3-12.8 9.2z"/><path class="st5" d="M285.7 805.6l1.1-252.9H277L274.8 803l-36.6 38.8s.7 47.4-.9 51.5c-1.9 1.4-6.1 4.3-6.2 7.1-1.2 3.1-1.2 9.2-.6 12.7 1.4 8.1 6.3 10.4 14.1 10.6 6.8.3 12.5-4.2 13.9-12.2.6-1.5-.4-8.9-1.1-10.4-1.5-4.9-8.6-5.2-8.9-9-1.1-2.2.2-47.6.2-47.6l37-38.9zm-35.6 97.7c2.1 1.7 3.5 4.3 3.4 7.4-.2 5.8-5.5 8-10.1 6.6-3.1-.2-5.9-1.9-7.4-5-1.1-2.3-1.1-4.8-.1-6.9 0-.1 0-.2.1-.3.9-3.6 4.3-5.8 7.9-5.5 2.5.2 4.7 1.7 6.2 3.7z"/><path class="st3" d="M129.9 540.6c-6.5.4-55.6 1-55.6 1L49.2 569s25.6 22.3 28.5 21.6c9.8-4.4 17.4-5.8 24.5.4 2 1.5 3.5 11.4 2.9 14.1-.5 3.8-6 9-7.1 9.8-.9 1.2-10.8 3.2-12.6 3.3-2.6-1.1-7.9-4-9.6-5.1-1.7-1.3-3-11.9-3.5-13.4-5.7-3.7-35.8-30-35.8-30l33.1-36.8 60.6-.4c.3-.1 1.3 8-.3 8.1zm-49 65.2c2 5.8 9 6.5 13.6 3.5 2.4-1.5 4.2-3.8 4.4-6.7.3-3-1.2-5.7-3.6-7.4-4.2-3.1-10.2-2.5-12.9 1.8-.2.2-.4.4-.4.6-1.5 2.3-1.9 5.6-1.1 8.2z"/><path class="st5" d="M744.9 374.7c-2.7-4.5-9-5.9-10-6.2-5.3-1.2-13.7 5.3-15.4 10.4-3.1 4.7.4 15 2.3 16 .9 1.6 4.9 3.7 4.9 3.7L714 427.8h-31.8s-3.2-1.1-6.5-4.7c-4.6-4.3-10-2.2-14.4-1.3-1.2-.1-8.7 4.3-8.9 10.5-1.2 4.1 1.8 9.7 2.4 10.2 3.3 4.3 7.6 7.9 12.6 6.9 4.9-1 6.5-.6 10.9-7.1.4-2.9 2.3-4.9 4.3-5.1 3-.3 38.1-.8 38.1-.8l16.4-35.7s7.2-4.8 7.6-6.8c.7-1.7 4.8-11.4.2-19.2zm-80.6 68.7c-3.9-.8-6-4.3-5.9-7.7-.6-2.9.5-5.8 3.3-7.4 1.7-.9 3.7-1.1 5.6-.7.7 0 1.3.1 2 .2 3.1.7 4.9 3.1 5.3 6.1.1.2.1.4.2.6 1 6-5 10.1-10.5 8.9zm69.5-50.3c-2.3.1-4.4-.8-5.9-2.3-1.7-1.1-2.7-2.9-2.6-5.1-.5-2-.3-4.3 1-6.2 1.2-1.9 3-3 5-3.5 2.9-1.1 6.3-.4 8.7 1.9 1.3 1.2 1.9 2.7 2.1 4.3.4 1.1.7 2.2.7 3.4 0 4.8-4.7 7.3-9 7.5z"/><path class="st2" d="M392.5 888.4c-2.7-4.5-9-5.9-10-6.2-5.3-1.2-13.7 5.3-15.4 10.4-3.1 4.7.4 15 2.3 16 .9 1.6 4.9 3.7 4.9 3.7l-12.7 29.2h-31.8s-3.2-1.1-6.5-4.7c-4.6-4.3-10-2.2-14.4-1.3-1.2-.1-8.7 4.3-8.9 10.5-1.2 4.1 1.8 9.7 2.4 10.2 3.3 4.3 7.6 7.9 12.6 6.9 4.9-1 6.5-.6 10.9-7.1.4-2.9 2.3-4.9 4.3-5.1 3-.3 38.1-.8 38.1-.8l16.4-35.7s7.2-4.8 7.6-6.8c.6-1.7 4.8-11.4.2-19.2zm-80.7 68.7c-3.9-.8-6-4.3-5.9-7.7-.6-2.9.5-5.8 3.3-7.4 1.7-.9 3.7-1.1 5.6-.7.7 0 1.3.1 2 .2 3.1.7 4.9 3.1 5.3 6.1.1.2.1.4.2.6 1 6-5 10-10.5 8.9zm69.6-50.4c-2.3.1-4.4-.8-5.9-2.3-1.7-1.1-2.7-2.9-2.6-5.1-.5-2-.3-4.3 1-6.2 1.2-1.9 3-3 5-3.5 2.9-1.1 6.3-.4 8.7 1.9 1.3 1.2 1.9 2.7 2.1 4.3.4 1.1.7 2.2.7 3.4-.1 4.9-4.8 7.4-9 7.5z"/><path class="st3" d="M872.3 215.8c3.5 2.9 4.4 3.6 6.6 7.5 1.2 2.1 1 3.2.9 6.3.5 1.5-1.8 5.8-1.8 6.7-1 3.2-8.2 8.8-12 9.7-3.2-.2-6.6.1-9.3-1-2.9-1.2-4.3.4-4.3.4l-30.3 39.9.7 53.1s-12.4-.2-9.2-.5c-.4-1.2-.6-57.4-.6-57.4l31.5-42.4s2.5-5.1 2.6-8.4c.2-8.5 3.8-13.5 12-15.6 4.6-1.2 9.1.3 13.2 1.7zm-12.7 4.2c-.2 0-.3.1-.4.1-1 .3-1.9.7-2.7 1.2-.4.3-.8.5-1.1.9-.3.2-.5.4-.7.6-6.7 6.8-.2 19.9 9.5 17.5 7.4-1.8 12.1-11.7 6.8-18-3-3.2-7.6-4.4-11.4-2.3z"/><path class="st2" d="M179.6 833c1.5-5.1 6.8-8.8 11.9-10.1 6-.2 13.8 4.7 13.8 4.7l21.1-12.9v-44.3l-33-36-.4-10.6h8.8l.7 6.7 33.9 37.1.1 52.2c-9.1 5.4-18.2 12.1-27.3 17.5-.6 1.9-2.6 11.1-7.3 14.4-2 1.5-13.4 1.5-17.5-.9-5.7-3.3-6.5-12.1-4.8-17.8zm8.8 14c2.7 1.8 5.8 1.3 8.2-.3 1.9-.6 3.5-2.1 4.6-4 1.2-2.3 1.3-4.8.4-6.8-.5-2.7-2.2-4.9-5.1-5.9-3.4-1.2-6.9-.1-9.5 2.3-2.1 2-3.8 5.1-3.7 8.2.3 3.3 2.3 5.5 5.1 6.5z"/><path class="st1" d="M457.9 684.5L397.7 737l-38-29.5V593.2l10.6.5v109.7s26.8 20.3 27.5 20.5c1.2-.5 50.8-44.4 51.8-45.5"/><path class="st2" d="M725.9 938.7s40.8-31.3 41.9-33.1c1.8 0 3.6-.5 5.1 0 5.8 1.9 19.1-7.7 19.2-12.2 1.2-4.4-2.4-15.3-5-16.8-3.2-1.8-12.1-3.5-15.6-2.4-.6.3-11.6 2.4-11.9 6.6-.4 2.7-1.4 11.4-.9 14.2.5 3.3-.6 4.8-.6 4.8l-36.5 29.7-82.7 1-.3 9 87.3-.8zm45-56.3c1.5-.8 3.2-1.2 4.9-1 1.4-.2 2.7.1 4.1 1 1.8 1.2 3.1 3.1 3.5 5.2.9 4.8-1.9 9.4-6.9 10.2-1.4.3-2.9.2-4.3-.2-2.5-.4-4.6-1.9-5.6-4.3-.1-.2-.2-.4-.3-.5-1.6-4.1.9-8.5 4.6-10.4zM407.7 790.9c-1-5.3-6.8-7.1-11.3-7.7-3-.4-7.8 1.6-10.7 2-3-1-38.6-30.4-38.6-30.4l.2-191.4-10-.7v197.5s39.4 30.7 40.8 34.4c.4.9 1.4 9.5 3.4 12.2 1.6 2.7 12 6.6 14.4 6.8 3.5-.1 10.7-2.2 11.5-5.9 2.1-5.6 3-11.3.3-16.8zm-4.6 9.8c-1.5 4.3-5.9 7-10.4 5.7-2.3-.7-4.8-2.1-6-4.3-.8-1.4-1-2.8-.8-4.3-.2-1.2-.1-2.3.3-3.4 1.7-5.1 7.8-7.5 12.5-4.9 3.9 2.2 5.9 7 4.4 11.2z"/><path class="st3" d="M784.4 672.6s-82.4 61.4-87 62c-2.2-2.9-15.1-4.3-18.5-2.4-2.5.9-8.5 6.2-9.4 9.4-1.2 4.1-1.1 11.4 4.2 15.7 2.2 1.5 6.5 3.5 8.4 4 4.2 1.3 7.1.3 11.1-1.6 5.8-2.2 7.4-9.1 8.4-14 1.3-1.8 90-65.7 90-65.7l-7.2-7.4zm-91.6 79.7c-1.2 3.4-4.3 5-7.4 4-4.3-.5-8.3-3.2-9.5-7.6-.3-1-.4-1.9-.2-2.7-.1-1.5.2-3.1 1.2-4.5 3.7-5.9 12.8-4.4 15.5 1.3.3.4.4.9.6 1.4.4 1.2.5 2.4.4 3.6-.1 1.5-.1 3-.6 4.5z"/><path class="st1" d="M550.8 829.8c-3.7 1.8-8.6 7.8-8.3 9.2-1.1 2.6.3 11.4 2.4 12.8 2.1 1.7 6 3.3 7.4 5.8.5 2.3.4 28.2.4 28.2l19.7 22.2s-1 13.7 6 18.9c4.9 3.4 18.4-.3 19.4-1.7 2.4-1.5 5.7-7.2 5.4-10.3-.4-3.6-1.8-10-5.8-13.6-3-4.3-16.3-1.9-18.3-2.5-3.5-1.5-17.6-18.3-17.6-18.3s-.9-22.8.3-23.5c5.8-3.5 8.8-9.5 9.1-15.6.5-3.7-1.3-8.5-3.5-11-2.4-1.5-3.5-2.7-6.5-2.4-3.8-.5-6.9.3-10.1 1.8zm39.3 74.2c2.3.6 3.7 2.1 4.6 4.1.5.6 1 1.4 1.3 2.1 3.5 7.3-3.6 13.6-10.7 12.1-3.2-.6-5.8-3-6.6-6.1-1-3.4.4-6.8 2.7-9.2 2.2-2.3 5.6-3.8 8.7-3zm-25-64.1c.2.7.4 1.5.4 2.3.4 6.9-6.9 11.2-12.9 7.6-6.3-3.7-5.4-13.5 1.4-16 4.8-1.7 10.5 1.5 11.1 6.1zM371.1 56.2c-1.8-3.7-7.8-8.6-9.2-8.3-2.6-1.1-11.4.3-12.8 2.4-1.7 2.1-3.3 6-5.8 7.4-2.3.5-28.2.4-28.2.4L293 77.8s-13.7-1-18.9 6c-3.4 4.9.3 18.4 1.7 19.4 1.5 2.4 7.2 5.7 10.3 5.4 3.6-.4 10-1.8 13.6-5.8 4.3-3 1.9-16.3 2.5-18.3 1.5-3.5 18.3-17.6 18.3-17.6s22.8-.9 23.5.3c3.5 5.8 9.5 8.8 15.6 9.1 3.7.5 8.5-1.3 11-3.5 1.5-2.4 2.7-3.5 2.4-6.5.4-3.7-.4-6.9-1.9-10.1zM297 95.6c-.6 2.3-2.1 3.7-4.1 4.6-.6.5-1.4 1-2.1 1.3-7.3 3.5-13.6-3.6-12.1-10.7.6-3.2 3-5.8 6.1-6.6 3.4-1 6.8.4 9.2 2.7 2.3 2.1 3.8 5.6 3 8.7zm64-25c-.7.2-1.5.4-2.3.4-6.9.4-11.2-6.9-7.6-12.9 3.7-6.3 13.5-5.4 16 1.4 1.7 4.8-1.5 10.5-6.1 11.1z"/><path class="st2" d="M866.3 644.2c.8-1.4 5.8-6.5 6.4-6.6 1.2-1.4 8.5-2.4 14.3 0 3.2 2.6 6.4 4.3 7.8 9.4-.2 2.4 1 11.5-1.2 14.2-2.6 3.2-3.5 4.7-3.5 4.7l15 20.1s20.9 1.2 21.9-.3c1.6-2.2 9.4-9.6 20.3-6.8 8 3.4 10.9 14.9 10.6 16.6 1.2 7.2-11.6 13-18.6 12-3.7.8-12.9-9.4-12.3-11.3-.6-.3-25.9 0-25.9 0L880 668.4s-8.7-.2-12-6.4c-4.2-5.7-3.4-10.8-1.7-17.8zm69.3 54.8c1.8 2.5 4.9 3.7 7.9 3.5 7.5-.4 11.1-9.5 6.1-15.1-4.7-5.3-14.4-2.9-15.7 4.1-.6 2.6 0 5.5 1.7 7.5zm-60.3-40.6c2 1.9 5 2.8 7.7 2 3.5-1 5.7-4.6 6-8 .6-6.8-7.9-11.3-13-6.8-2 1.3-3.5 3.5-3.6 6 0 2.6 1.1 5.1 2.9 6.8zM128.2 412.2c1.4-.8 6.5-5.8 6.6-6.4 1.4-1.2 2.4-8.5 0-14.3-2.6-3.2-4.3-6.4-9.4-7.8-2.4.2-11.5-1-14.2 1.2-3.2 2.6-4.7 3.5-4.7 3.5l-20.1-15s-1.2-20.9.3-21.9c2.2-1.6 9.6-9.4 6.8-20.3-3.4-8-14.9-10.9-16.6-10.6-7.2-1.2-13 11.6-12 18.6-.8 3.7 9.4 12.9 11.3 12.3.3.6 0 25.9 0 25.9l27.8 21.1s.2 8.7 6.4 12c5.7 4.2 10.8 3.3 17.8 1.7zm-54.8-69.3c-2.5-1.8-3.7-4.9-3.5-7.9.4-7.5 9.5-11.1 15.1-6.1 5.3 4.7 2.9 14.4-4.1 15.7-2.6.6-5.4 0-7.5-1.7zm40.6 60.3c-1.9-2-2.8-5-2-7.7 1-3.5 4.6-5.7 8-6 6.8-.6 11.3 7.9 6.8 13-1.3 2-3.5 3.5-6 3.6-2.5 0-5.1-1.1-6.8-2.9z"/><path class="st5" d="M382.3 273.7c-3-2.7-3.5-7.9-3.6-8.2-.1-.2-1.1-7.1-.1-8.9.2-.3 2.1-5.1 4.5-7.4.9-.8 4.1-3.1 4.5-3.4l-.1-10.7 23.8-24.5.1-16.2s-1.9-.9-2.5-1.6c-1-1.4-1.1-1.5-1.9-3.3-1.5-3-1.5-6.1-1.3-6.9 1.9-9.8 3-13.2 14.6-13.2 4.1 0 8.9 8.8 8.7 11.6-.3 5-1.2 8-2.4 9.7-1.6 2.4-5.4 3.6-5.4 3.6l-.3 19.2s-2.4 2.5-3.6 3.6c-4.3 3.9-21.2 21.4-21.2 21.4s-.1 5.6.1 6.8c5 1 11.9 7.8 11.7 17.5-.2 7.5-8.3 14-15.6 14.5-.1.2-6.4-.4-10-3.6zm39.3-85.4c1.4-1.3 2-3.1 2.2-4.9 1.1-2.5.8-5.3-1.2-7.2-2.2-2-5.6-2.2-8.2-.9-4.8 2.5-5.4 9.4-1.4 12.9 2.4 2.3 6.1 2.5 8.6.1zm-27.6 82c3.2-.6 5.8-3.5 6.6-6.6.2-.8.3-1.7.3-2.6.3-2.1-.2-4.3-1.8-6.1-1.9-2.1-5-3.2-7.8-2.4-4.2 1.2-6.6 5.8-6.4 10 .3 4.5 4.2 8.7 9.1 7.7z"/><path class="st1" d="M672.9 297.8c3-2.7 3.5-7.9 3.6-8.2.1-.2 1.1-7.1.1-8.9-.2-.3-2.1-5.1-4.5-7.4-.9-.8-4.1-3.1-4.5-3.4l.1-10.7-23.8-24.5-.1-16.2s1.9-.9 2.5-1.6c1-1.4 1.1-1.5 1.9-3.3 1.5-3 1.5-6.1 1.3-6.9-1.9-9.8-3-13.2-14.6-13.2-4.1 0-8.9 8.8-8.7 11.6.3 5 1.2 8 2.4 9.7 1.6 2.4 5.4 3.6 5.4 3.6l.3 19.2s2.4 2.5 3.6 3.6c4.3 3.9 21.2 21.4 21.2 21.4s.1 5.6-.1 6.8c-5 1-11.9 7.8-11.7 17.5.2 7.5 8.3 14 15.6 14.5.2.2 6.4-.4 10-3.6zm-39.2-85.4c-1.4-1.3-2-3.1-2.2-4.9-1.1-2.5-.8-5.3 1.2-7.2 2.2-2 5.6-2.2 8.2-.9 4.8 2.5 5.4 9.4 1.4 12.9-2.4 2.3-6.1 2.5-8.6.1zm27.6 82c-3.2-.6-5.8-3.5-6.6-6.6-.2-.8-.3-1.7-.3-2.6-.3-2.1.2-4.3 1.8-6.1 1.9-2.1 5-3.2 7.8-2.4 4.2 1.2 6.6 5.8 6.4 10-.4 4.5-4.3 8.6-9.1 7.7z"/><path class="st3" d="M805.5 140.7c-3.4 4.1-3.5 16.2-1.8 20.4 2 3 10.2 9.2 10.2 9.2l-1.1 274.4 9.7-.5.1-273.7c1.3-1.5 9.5-6.3 10.8-15.8 2.9-14.3-14.3-25.5-27.9-14zm16.5 21.7c-.2.3-.4.5-.8.8-5.5 4.8-10.2-1-11.5-6.2-.1-.3-.1-.4-.2-.7-.7-1.6-1.1-3.3-1.2-5-.2-5.3 3.5-8.8 8.4-8.3 1.4-.2 2.8-.1 4.2.3 4 1.1 7 4.4 7.1 8.6.1 4-2.3 8.7-6 10.5z"/><path class="st2" d="M204.6 725.5c4.1-2.9 29.6-27.5 29.6-27.5l.8-144.8h-9.9l-1.3 141.9s-23.8 21.1-25.3 22.6"/><path class="st3" d="M128.5 191.6c-5.1.4-9.7 9-10 14.5-.6 8.6 9.7 19.1 19.5 16.9 4.9-1.1 14.4-9.1 14.5-10.9l50.4.4v-5.1l4-4.4-54.3-.3c-.4-1.5-5.5-8.2-10.4-10.4-2.4-1.2-10.3-2.7-13.7-.7zm11.6 6.5c1.9.4 3.7 1.5 4.9 3.1 1.1 1.6 1.3 3.3 1.2 5.1.3 1 .2 2-.4 3.2-1 1.8-2.5 3.1-4.3 4-.4.2-.7.4-1.1.5-3.3 2.2-7.3 3.5-10.9 1.4-3.8-2.3-6-7.2-4.9-11.5 1-3.5 4.3-5.7 7.7-6.1 1.2-.2 2.5-.2 3.7 0 1.4-.1 2.8 0 4.1.3z"/><path class="st2" d="M123.8 497.6l-26.8-.9s-2.7-3.8-4.8-6c-2.3-4.2-6.1-5.5-10.6-5.2-1.4-.1-2.9-.1-4.3-.2-6.9-.2-13.6 6.1-14.1 13.3-.5 1.4-.8 3.8-.4 5.2 1 3.5 1 6.5 3.3 8.2 5.7 3.5 9.1 4.5 14.8 5.1 8.1.4 12.6-3.3 16.2-9.9 6.1-.5 27.5.3 27.5.3l-.8-9.9zm-39.2 13.5c-4.6 1.5-10.4-.6-12.9-4.9-.9-1.6-1.3-3.5-1.1-5.3.2-3.6 2.3-7.2 6.4-8.2 4.8-1.2 11.2.4 12.9 5.4 1.8 4.6-.3 11.3-5.3 13z"/><path class="st5" d="M339.7 841.2c-1.9-1.4-12.3-3-12.9-2.7-7.2-.1-14.6 6.5-19.6 10.6-3.5.1-61.1-.4-61.1-.4v8.6l61.1-.4s1.3 2.9 2 4.3c1.4 3 10.4 7.8 12.2 8 1.4-.1 2.8-.1 4.3-.2 1.9.5 11.4-2.3 12.5-4.5 1.5-1.9 2.9-2.7 3.9-5.9 1.5-.9 1-6.4 1.2-6.9.7-2.8-1-8.7-3.6-10.5zm-7 20.8c-2.9 1.9-6.6 1.9-9.7.5-2.8-.6-5.4-2.3-6.6-5.1-1.8-4.2.4-9.2 4.2-11.4 5.5-3.2 14.7-1.4 16.5 5.5.9 3.9-1 8.4-4.4 10.5z"/><path class="st3" d="M938.3 292c-3.1-4-16.5-3.4-18.8-3.7-4.8 1.2-5.3.4-8.2 4.9-1.5 1.2-2.6 8-2.6 8l-90.9 1s.1 8.4.1 9.9c-.6.8 90.7.4 90.7.4s3.4 6 7.4 6.6c1.8 1.4 12.9 1.2 15-.3 5.2-2.6 6.8-4.8 7.9-6.7 1.7-3 3.1-7.9 3-8.8-.5-4.3-1.6-8.5-3.6-11.3zm-4.3 12.3c.1 1.9-.4 3.8-1.7 5.4-3.8 5.4-12.3 6.1-16.2.3-3.8-5.7.2-13.9 6.7-15.1 3.9-.7 8.1 1 10.1 4.4.9 1.6 1.3 3.3 1.1 5z"/><path class="st2" d="M714.2 646.2c-.3.4-5 .6-5.8 1.4-4 3.4-4.4 4.4-5.4 5.5.4-.4-1.6 1.5-1.9 4-.4 2.7-.7 5.6.1 8.2 0 1.9 4 8.2 5.9 9.1 1.3 2.1 11 2.9 14.4 1.6 2.1.4 8.3-6.6 8.9-8.1 2.8-5.9 3.5-12.2-1-17.4-1-1.1-3.3-3.6-3.3-3.6l-.9-91s-7.3-.4-10.5-1c-1.4 1.3.9 89.3-.5 91.3zm10.5 8.4c2.1 3.5 2.5 8.6.1 12.1-1.2 1.7-3.3 2.8-5.4 3.4-1.4.5-2.9.8-4.5.4-6.8-1.3-8.1-9.1-4.7-14.3 1.5-2.3 3.6-4.3 6.3-5.1 3.2-1 6.4.6 8.2 3.5z"/><path class="st1" d="M178.4 619.5l-7.3-5.9s-68.1 51.1-69.4 53.5c-1.9.2-12.5-1.8-15.7.9-3.3 2.7-7.9 12-7.8 14 .6 4.2 4.4 11.5 8.7 12.6 2.3 1.5 9.9 2 11.7 1.2.5-.1 9.7-5.9 10.2-13 .2-2.2-.5-7.2-.5-7.2l70.1-56.1zm-75.9 65.9c-1.2 4.7-6.7 7.5-11.3 5.9-2.2-.8-4.1-2.4-5.3-4.3-1.9-2.3-3-5.8-1.2-8.5.1-.2.2-.3.4-.4.2-.5.4-1.1.6-1.6 1.7-3.4 5.5-5.3 9.2-4.5 1.2.3 2.2.8 3.2 1.5 1.2.4 2.3 1 3.2 1.9 2 2.1 2.4 5.1 1.6 7.7-.1.7-.2 1.5-.4 2.3z"/><path class="st2" d="M281.8 168c-5-4.1-12.7-5-18.5-1.4-3.6 2.1-5.1 5.3-5.9 8.9-1.5 7.3-1 11.4 4.4 16.6 1.5 1.4 6 3.6 6.2 5.6.9 9.1 1.1 91.5 1.1 91.5l9.3.1-.1-92.3s1.3-3.8 3.7-5.5c6.2-4.5 7.6-17.2-.2-23.5zm-1.6 14.2c-.7 2.7-2.8 5-5.5 5.8-.1 0-.2 0-.3.1-4.1 3.2-9.7.1-11.3-5.1-1.2-3.8.5-7.7 3.5-9.9.2-.2.3-.4.4-.6.9-1.1 2.3-1.4 3.6-1.2.4-.1.6-.1 1-.1 5.9-.5 10.1 5.5 8.6 11z"/><path class="st1" d="M359.6 593.2L377 570h10.7l-17.4 23.7zM171.1 613.6v-52.2h7.3v58.1"/><path class="st3" d="M791.5 680l-38.4-105-11.7 2.3 40.4 108"/><path class="st5" d="M540.7 339.8l-60.1 60.1-6.1-6.1 60.1-60z"/><g><path class="st5" d="M428.3 622.8v5.4h-10.8v-10.7l5.3-5.5h37.7l5.3 5.5v16.2l-30 21.5h30V666h-48.4v-10.8l37.7-26.9v-5.5h-26.8zM477.3 665.9l-5.3-5.3v-43.1l5.3-5.5H515l5.3 5.5v43.1l-5.3 5.3h-37.7zm25.5-43.1h-19.9v25.3l19.9-25.3zm6.9 7.2l-19.6 25.1h19.6V630zM536.6 665.9v-43.1h-10.8V612h21.5v53.9h-10.7zM555 617.5l5.3-5.5H598l5.3 5.5v43.1l-5.3 5.3h-37.7l-5.3-5.3v-10.8h10.8v5.3h26.9v-10.7h-32.3L555 639v-21.5zm37.6 16.1v-10.9h-26.9v10.9h26.9z"/></g><path d="M876.9 589.2l-32.6-42h-8.5v42H723.5l-22.9-22.9v22.9H608l-18.8-18.7v18.7h-38.6v-65.3h-49.9v65.3h-38.6v-65.3h-29.5v-11.3l-7.3-7.3h-24v83.9H273l-28.9-28.9-28.9 28.9H116V420.1h99.2l32.6 32.6v14h33.8v76.6l7.3 7.3h37.9v-83.9h114.5l20.8 20.9v-67.4h38.6v65.2h49.9v-65.2h38.6v46.5h81.4l26.4 26.5 26.4-26.5h73.7v-46.5h38.6v88.5h8.5l32.6-42h49L878.2 528l47.7 61.2h-49zm-79.7-38.6v-45.3h-57.6l-7.3 7.3v30.6l7.3 7.3h57.6zm-135.3 0v-3.3H624l-1.7 1.7 1.6 1.6h38zm-462.7 0l10-10v-71.8l-10-10h-44.5v91.8h44.5zm390.1-23.2l18.8-18.8H658l-3.3-3.3h-65.3v22.1z" fill="#dab8e9"/><g><path class="st13" d="M237.8 552.5l-26.7 26.7H126V430.1h85.1l26.7 26.7v95.7zm-93.2 8.1h58.7l15.9-15.9v-80.1l-15.9-15.9h-58.7v111.9zM252.9 476.6h18.6v70.7l13.2 13.2h52.1v-83.9h18.6v102.6H277L252.9 555v-78.4zM461.3 513.9h-18.6v-5.4l-13.1-13.2h-38.1v83.9h-18.6V476.6h64.4l24.1 24.2v13.1zM560.6 579.2v-65.3h-69.9v65.3h-18.6V430.1h18.6v65.2h69.9v-65.2h18.6v149.1h-18.6zM690.6 579.2h-78.4L588 555.1v-12.4l24.2-24.2H672v-10.1l-13.2-13.2h-61.3v-18.6h69.1l24.1 24.2v78.4zM608.2 549l11.6 11.6h52.1v-23.3h-52.1L608.2 549zM735.4 495.3l-13.2 13.2v38.9l13.2 13.2h56.7v18.6h-64.4l-24.1-24.1v-54.3l24.1-24.2h64.4v18.6h-56.7zM849.2 518.6l32.6-42h23.6L865.5 528l39.9 51.2h-23.6l-32.6-42h-23.4v42h-18.6V430.1h18.6v88.5h23.4z"/></g></g></g></switch></svg>