<?xml version="1.0" encoding="UTF-8" standalone="no"?>
<svg
   xmlns:dc="http://purl.org/dc/elements/1.1/"
   xmlns:cc="http://creativecommons.org/ns#"
   xmlns:rdf="http://www.w3.org/1999/02/22-rdf-syntax-ns#"
   xmlns:svg="http://www.w3.org/2000/svg"
   xmlns="http://www.w3.org/2000/svg"
   xmlns:sodipodi="http://sodipodi.sourceforge.net/DTD/sodipodi-0.dtd"
   xmlns:inkscape="http://www.inkscape.org/namespaces/inkscape"
   version="1.1"
   id="svg2"
   xml:space="preserve"
   width="540.42798"
   height="622.50134"
   viewBox="0 0 540.42798 622.50134"
   sodipodi:docname="Magic_Hackathon.svg"
   inkscape:version="1.0.1 (3bc2e813f5, 2020-09-07)"><metadata
     id="metadata8"><rdf:RDF><cc:Work
         rdf:about=""><dc:format>image/svg+xml</dc:format><dc:type
           rdf:resource="http://purl.org/dc/dcmitype/StillImage" /><dc:title></dc:title></cc:Work></rdf:RDF></metadata><defs
     id="defs6"><clipPath
       clipPathUnits="userSpaceOnUse"
       id="clipPath22"><path
         d="M 202.647,466.876 0,349.878 V 115.88 L 202.661,0 405.321,115.895 v 233.599 z"
         id="path20" /></clipPath><clipPath
       clipPathUnits="userSpaceOnUse"
       id="clipPath34"><path
         d="m 75.077,393.224 c 23.428,-33.081 71.76,-55.786 127.584,-55.786 v 0 c 55.723,0 103.984,22.627 127.459,55.61 v 0 l -127.473,73.828 z"
         id="path32" /></clipPath><linearGradient
       x1="0"
       y1="0"
       x2="1"
       y2="0"
       gradientUnits="userSpaceOnUse"
       gradientTransform="matrix(186.06493,-329.57245,-329.57245,-186.06493,195.39464,451.30829)"
       spreadMethod="pad"
       id="linearGradient46"><stop
         style="stop-opacity:1;stop-color:#1f272a"
         offset="0"
         id="stop40" /><stop
         style="stop-opacity:1;stop-color:#1f272a"
         offset="0.175676"
         id="stop42" /><stop
         style="stop-opacity:1;stop-color:#000000"
         offset="1"
         id="stop44" /></linearGradient><clipPath
       clipPathUnits="userSpaceOnUse"
       id="clipPath56"><path
         d="M 202.647,466.876 0,349.878 V 115.88 L 202.661,0 405.321,115.895 v 233.599 z"
         id="path54" /></clipPath><clipPath
       clipPathUnits="userSpaceOnUse"
       id="clipPath76"><path
         d="M 0,349.878 V 115.88 L 202.661,0 405.321,115.896 V 349.493 L 202.647,466.876 Z M 20,127.483 V 338.331 L 202.631,443.773 385.321,337.965 V 127.498 L 202.66,23.039 Z"
         id="path74" /></clipPath><linearGradient
       x1="0"
       y1="0"
       x2="1"
       y2="0"
       gradientUnits="userSpaceOnUse"
       gradientTransform="matrix(186.06493,-329.57245,-329.57245,-186.06493,107.31034,401.57904)"
       spreadMethod="pad"
       id="linearGradient88"><stop
         style="stop-opacity:1;stop-color:#1f272a"
         offset="0"
         id="stop82" /><stop
         style="stop-opacity:1;stop-color:#1f272a"
         offset="0.175676"
         id="stop84" /><stop
         style="stop-opacity:1;stop-color:#000000"
         offset="1"
         id="stop86" /></linearGradient><clipPath
       clipPathUnits="userSpaceOnUse"
       id="clipPath130"><path
         d="M 0,466.876 H 405.321 V 0 H 0 Z"
         id="path128" /></clipPath></defs><sodipodi:namedview
     pagecolor="#ffffff"
     bordercolor="#666666"
     borderopacity="1"
     objecttolerance="10"
     gridtolerance="10"
     guidetolerance="10"
     inkscape:pageopacity="0"
     inkscape:pageshadow="2"
     inkscape:window-width="1920"
     inkscape:window-height="1016"
     id="namedview4"
     showgrid="false"
     inkscape:snap-global="true"
     inkscape:zoom="1.3750974"
     inkscape:cx="270.21399"
     inkscape:cy="339.6123"
     inkscape:window-x="0"
     inkscape:window-y="27"
     inkscape:window-maximized="1"
     inkscape:current-layer="g10" /><g
     id="g10"
     inkscape:groupmode="layer"
     inkscape:label="Hack Cambridge 101"
     transform="matrix(1.3333333,0,0,-1.3333333,0,622.50133)"><g
       id="g12"
       transform="translate(21.199,339.023)"><path
         d="M -1.199,-0.692 181.432,104.75 364.122,-1.058 384.75131,-213.00607 181.461,-315.984 -20.28312,-208.33823 Z"
         style="fill:#ffffff;fill-opacity:1;fill-rule:nonzero;stroke:none"
         id="path14"
         sodipodi:nodetypes="ccccccc" /></g><g
       id="g70"><g
         id="g72"
         clip-path="url(#clipPath76)"><g
           id="g78"><g
             id="g80"><path
               d="M 0,349.878 V 115.88 L 202.661,0 405.321,115.896 V 349.493 L 202.647,466.876 Z M 20,127.483 V 338.331 L 202.631,443.773 385.321,337.965 V 127.498 L 202.66,23.039 Z"
               style="fill:#6851ff;stroke:none;fill-opacity:1"
               id="path90" /></g></g></g></g><g
       style="fill:none"
       id="g302"
       transform="matrix(3.2782705,0,0,-3.2782705,22.823591,324.49829)"><path
         fill-rule="evenodd"
         clip-rule="evenodd"
         d="m 54.848253,-12.132851 c 2.0749,2.5413003 4.3634,4.9013521 6.8382,7.0527233 -1.649,5.34838375 -2.5368,11.0306875 -2.5368,16.9202907 0,5.889497 0.8878,11.571794 2.5368,16.92029 -2.4748,2.151399 -4.7633,4.511397 -6.8382,7.052496 -2.0749,-2.541099 -4.3635,-4.901097 -6.8382,-7.052496 1.6489,-5.348496 2.5367,-11.030793 2.5367,-16.92029 0,-5.8896032 -0.8878,-11.57190695 -2.5367,-16.9202507 2.4747,-2.1514112 4.7633,-4.511453 6.8382,-7.0527633 z m -11.56847,37.195306 c -2.61953,-1.835898 -5.399641,-3.458697 -8.315027,-4.842496 0.808711,-2.650699 1.243756,-5.464497 1.243756,-8.379796 0,-2.9154012 -0.435048,-5.729203 -1.24376,-8.3799048 2.91539,-1.3839009 5.695501,-3.0066021 8.315031,-4.8426035 1.00167,4.2448032 1.53167,8.671706 1.53167,13.2225083 0,4.550698 -0.53,8.977495 -1.53167,13.222292 z m 21.60517,-13.222292 c 0,4.550698 0.53,8.977495 1.5317,13.222292 2.6196,-1.835898 5.3996,-3.458697 8.315,-4.842496 -0.8086,-2.650699 -1.2436,-5.464497 -1.2436,-8.379796 0,-2.9154012 0.435,-5.729203 1.2436,-8.3799048 -2.9154,-1.3840009 -5.6954,-3.0066021 -8.315,-4.8426035 -1.0017,4.2448032 -1.5317,8.671706 -1.5317,13.2225083 z"
         fill="#6851ff"
         id="path276" /><path
         d="m 32.72919,56.680076 h 4.0915 v -19.0847 h -5.7225 l -4.6351,11.9029 -4.6354,-11.9029 h -5.6939 v 19.0847 h 4.0628 v -13.7341 l 5.3794,13.7341 h 1.7738 l 5.3794,-13.7341 z"
         fill="#000000"
         id="path278" /><path
         fill-rule="evenodd"
         clip-rule="evenodd"
         d="m 52.45639,56.680076 h -3.6339 v -1.4306 c -0.9441,1.1158 -2.5752,1.774 -4.378,1.774 -2.203,0 -4.8068,-1.4879 -4.8068,-4.5781 0,-3.2332 2.6038,-4.4064 4.8068,-4.4064 1.8315,0 3.4622,0.5723 4.378,1.6882 v -1.9171 c 0,-1.402 -1.2019,-2.3176 -3.033,-2.3176 -1.488,0 -2.8613,0.5437 -4.0345,1.6309 l -1.3733,-2.4321 c 1.6881,-1.4878 3.8627,-2.1745 6.0374,-2.1745 3.1474,0 6.0373,1.2589 6.0373,5.2361 z m -6.5525,-2.1173 c 1.1731,0 2.3176,-0.4006 2.9186,-1.2018 v -1.7168 c -0.601,-0.8011 -1.7455,-1.2017 -2.9186,-1.2017 -1.4307,0 -2.6039,0.7726 -2.6039,2.0888 0,1.2875 1.1732,2.0315 2.6039,2.0315 z"
         fill="#000000"
         id="path280" /><path
         fill-rule="evenodd"
         clip-rule="evenodd"
         d="m 61.72509,62.288176 c -2.3747,0 -4.2345,-0.5436 -5.9513,-2.0602 l 1.6307,-2.6322 c 1.1159,1.2302 2.5752,1.7168 4.3206,1.7168 1.745,0 3.806,-0.7727 3.806,-3.4909 v -1.402 c -1.088,1.3734 -2.575,2.1746 -4.2638,2.1746 -3.4622,0 -6.0944,-2.4321 -6.0944,-7.0388 0,-4.5208 2.6038,-7.0387 6.0944,-7.0387 1.6598,0 3.1478,0.7153 4.2638,2.1173 v -1.774 h 3.662 v 12.8758 c 0,5.2647 -4.063,6.5523 -7.468,6.5523 z m 0.687,-8.9272 c 1.202,0 2.518,-0.6867 3.119,-1.5737 v -4.4636 c -0.601,-0.9156 -1.917,-1.5737 -3.119,-1.5737 -2.0602,0 -3.4909,1.4307 -3.4909,3.8055 0,2.3749 1.4307,3.8055 3.4909,3.8055 z"
         fill="#000000"
         id="path282" /><path
         fill-rule="evenodd"
         clip-rule="evenodd"
         d="m 76.77409,38.654176 c 0,1.2018 -0.973,2.1746 -2.175,2.1746 -1.173,0 -2.174,-0.9728 -2.174,-2.1746 0,-1.2017 1.001,-2.1746 2.174,-2.1746 1.202,0 2.175,0.9729 2.175,2.1746 z m -0.343,18.0261 h -3.634 v -13.82 h 3.634 z"
         fill="#000000"
         id="path284" /><path
         d="m 79.14709,49.755776 c 0,4.2633 3.062,7.2677 7.325,7.2677 2.833,0 4.55,-1.2304 5.465,-2.5179 l -2.375,-2.2033 c -0.658,0.9157 -1.659,1.4879 -2.918,1.4879 -2.203,0 -3.748,-1.6309 -3.748,-4.0344 0,-2.4035 1.545,-4.0058 3.748,-4.0058 1.259,0 2.26,0.5436 2.918,1.4879 l 2.375,-2.2032 c -0.915,-1.2876 -2.632,-2.5179 -5.465,-2.5179 -4.263,0 -7.325,3.0043 -7.325,7.239 z"
         fill="#000000"
         id="path286" /></g><path
       style="fill:#ffffff;fill-opacity:1;stroke-width:0.727221"
       d="M 148.22263,521.72877 26.594889,452.20382 V 311.97351 171.7432 l 7.454017,-4.29584 c 4.09971,-2.3627 24.634618,-14.21952 45.63313,-26.34847 36.707504,-21.20263 73.208394,-42.273601 138.535634,-79.972883 16.79881,-9.694318 34.96116,-20.194544 40.36078,-23.333835 5.39962,-3.139291 10.30836,-5.88757 10.90832,-6.107287 0.64174,-0.23502 51.08915,28.565222 122.53677,69.955795 l 121.44594,70.35529 0.18365,140.11054 0.18365,140.11054 -121.25289,69.32509 c -66.6891,38.1288 -121.58604,69.41204 -121.99321,69.51833 -0.40716,0.10629 -55.47279,-31.09297 -122.36805,-69.3317 z m 162.11482,-60.26995 c 9.70499,-2.05691 17.11996,-7.36792 20.28903,-14.53213 2.35724,-5.32895 2.82648,-12.21257 2.84135,-41.68268 l 0.0144,-28.54343 h -8.36304 -8.36304 v 3.59511 3.59511 l -2.36347,-2.22223 c -1.29991,-1.22223 -4.16334,-3.08521 -6.36319,-4.13995 -5.07519,-2.43337 -13.44076,-2.65417 -19.63497,-0.51825 -5.59295,1.92859 -12.24946,8.61795 -14.45849,14.52986 -4.87166,13.03778 -2.80301,29.08713 4.84564,37.59427 9.57636,10.65122 25.12184,11.27404 36.07254,1.44526 l 2.09777,-1.88287 -0.43969,4.96794 c -0.57432,6.48901 -2.73473,10.43066 -7.0375,12.83984 -2.81383,1.57551 -4.1649,1.82669 -9.80834,1.82352 -7.09381,-0.004 -11.35997,-1.37785 -15.75057,-5.07231 -1.19787,-1.00794 -2.39827,-1.82413 -2.66757,-1.81376 -0.26929,0.0104 -2.08938,2.66175 -4.04463,5.89195 l -3.55503,5.87309 2.10058,1.73433 c 7.76218,6.40883 22.23404,9.1357 34.58822,6.51733 z m -76.73552,-23.30088 c 2.007,-0.59602 5.01164,-2.07069 6.67698,-3.27706 l 3.0279,-2.19339 v 2.54984 2.54983 h 8.40083 8.40084 l -0.2196,-23.08927 -0.2196,-23.08928 -2.18166,-4.36324 c -4.17494,-8.34973 -11.25405,-11.66769 -24.72552,-11.58875 -6.7271,0.0394 -8.85748,0.35268 -13.39414,1.96953 -5.87058,2.09227 -12.41857,6.13794 -12.42081,7.6742 -7.3e-4,0.53018 1.30868,3.20712 2.90989,5.94878 l 2.9113,4.98482 3.68956,-2.48289 c 8.74725,-5.88646 18.96407,-6.17301 24.45131,-0.68576 2.26493,2.26492 2.3976,2.68533 2.3976,7.59786 v 5.20028 l -2.36347,-1.78029 c -5.34097,-4.02312 -15.03436,-5.67234 -22.40338,-3.81168 -5.9163,1.49386 -9.86533,4.22296 -12.66634,8.75349 -1.99885,3.23306 -2.19718,4.11797 -2.19535,9.79499 0.001,5.00877 0.31358,6.82416 1.58017,9.19558 2.26316,4.23727 6.56293,8.12865 10.77156,9.74849 4.48368,1.7257 12.48344,1.90504 17.57193,0.39392 z m 188.6451,-1.59005 c 4.73307,-2.23631 10.21109,-6.84326 10.04942,-8.45142 -0.0484,-0.48071 -2.32232,-2.95917 -5.05331,-5.50769 l -4.96545,-4.63367 -2.94061,2.51705 c -6.84397,5.85818 -15.02348,5.52865 -21.21663,-0.85475 -3.87228,-3.99123 -5.45685,-8.84355 -4.77315,-14.61637 1.05384,-8.898 7.04717,-14.50326 15.50737,-14.50326 4.55948,0 9.91882,2.09462 11.39105,4.45204 0.4691,0.75115 1.1293,1.36573 1.4671,1.36573 0.99763,0 10.6715,-8.86189 10.6715,-9.77578 0,-0.46055 -1.22719,-2.02708 -2.72708,-3.48117 -10.50039,-10.17976 -31.14242,-10.25278 -42.94302,-0.15191 -6.97916,5.9739 -10.32594,13.82317 -10.32594,24.21764 0,13.47324 5.33058,22.85859 16.18369,28.49401 5.88355,3.055 8.56412,3.5727 17.3123,3.34349 6.81183,-0.17847 8.20884,-0.45125 12.36276,-2.41394 z m -303.12159,-27.55263 0.19015,-28.77189 11.27193,28.79819 11.27193,28.79818 4.32866,-0.20809 4.32867,-0.2081 11.30658,-28.90968 11.3066,-28.90968 0.19005,29.09149 0.19006,29.09148 h 9.08201 9.08202 v -41.81522 -41.81522 l -12.90818,0.003 -12.90817,0.003 -9.87676,25.46044 -9.87677,25.46042 -9.83155,-25.28184 -9.83155,-25.28123 -12.83483,-0.19858 -12.83484,-0.19859 v 41.832 41.832 h 9.08192 9.08192 z m 245.6273,-1.77139 v -30.54329 h -8.36304 -8.36304 v 30.54329 30.54329 h 8.36304 8.36304 z m -3.99228,-39.58979 c 4.97007,-2.07663 6.99534,-9.13057 4.02172,-14.00747 -3.90712,-6.40789 -13.81306,-5.99058 -16.99553,0.71597 -1.60265,3.37733 -1.52981,6.17657 0.23608,9.07286 2.86945,4.70627 7.72326,6.31381 12.73773,4.21864 z m -87.27398,-24.60259 c 1.59989,-2.07607 8.263,-9.14346 14.8069,-15.70528 l 11.89803,-11.9306 -2.98885,-12.08176 c -5.7357,-23.18537 -7.63361,-38.72619 -7.60345,-62.26002 0.0298,-23.24617 1.9365,-38.61986 7.62311,-61.4647 l 2.99048,-12.01366 -11.61161,-11.62103 c -6.38637,-6.39157 -13.13141,-13.42091 -14.98897,-15.62075 l -3.37738,-3.99972 -3.75331,4.36333 c -2.06432,2.39983 -8.87847,9.47378 -15.14257,15.71988 l -11.38926,11.35657 1.35237,4.6423 c 9.3676,32.15646 11.99541,70.94499 7.09395,104.71244 -1.56113,10.7551 -4.78506,25.93141 -7.19229,33.85704 l -1.36124,4.48179 8.459,7.98017 c 4.65246,4.38909 11.40425,11.42908 15.004,15.64441 3.59974,4.21533 6.70861,7.6755 6.9086,7.68926 0.19999,0.0138 1.67261,-1.67359 3.27249,-3.74967 z M 221.0752,294.34278 c 6.9629,-32.23963 7.2388,-68.44362 0.77355,-101.50639 -0.97312,-4.97647 -1.87846,-9.15727 -2.01187,-9.29068 -0.1334,-0.13341 -2.85989,1.50977 -6.05885,3.65148 -6.88729,4.61108 -19.03442,11.66182 -25.96081,15.06885 -4.17377,2.05303 -4.87806,2.66225 -4.50235,3.89467 2.57009,8.43064 4.13858,19.22377 4.51106,31.04156 0.45162,14.32866 -0.35122,23.04972 -3.13312,34.03456 -0.95995,3.79055 -1.74536,6.97796 -1.74536,7.08311 0,0.10515 2.95472,1.67513 6.56604,3.48885 7.32514,3.67891 20.24145,11.27717 25.7953,15.17457 1.99986,1.4034 3.85922,2.56967 4.13192,2.5917 0.27269,0.022 1.00822,-2.33249 1.63449,-5.23228 z m 105.34947,1.75493 c 7.15454,-4.80303 16.80154,-10.42764 24.61764,-14.35312 5.10061,-2.56168 6.4351,-3.54479 6.13422,-4.51903 -6.12399,-19.82866 -6.57147,-46.88523 -1.10766,-66.97369 0.8032,-2.95306 1.36759,-5.4512 1.2542,-5.55142 -0.11338,-0.10023 -2.91954,-1.53975 -6.23592,-3.19894 -6.61132,-3.30767 -19.13458,-10.68009 -25.95675,-15.28069 -5.21373,-3.51593 -4.70198,-4.2015 -7.2316,9.6878 -3.07469,16.88214 -3.68804,24.51964 -3.68553,45.89243 0.002,21.35427 0.55725,28.15028 3.71001,45.45132 1.89704,10.41013 2.35736,12.36276 2.91443,12.36276 0.19109,0 2.70523,-1.58284 5.58696,-3.51742 z"
       id="path1147"
       transform="matrix(0.75000002,0,0,-0.75000002,0,466.87601)" /><path
       style="fill:#ffffff;fill-opacity:1;stroke-width:0.727221"
       d="M 148.22079,521.72811 26.591202,452.22614 26.774851,311.86589 26.9585,171.50563 134.58724,109.351 c 59.1958,-34.185042 113.92269,-65.779259 121.6153,-70.209369 l 13.98657,-8.054743 22.01088,12.742217 c 12.10598,7.00822 66.51682,38.503352 120.91296,69.989185 54.39615,31.48583 99.31198,57.57711 99.81296,57.98063 0.72514,0.58406 0.87342,29.26929 0.72722,140.67798 l -0.18365,139.94433 -121.32443,69.4048 c -66.72843,38.17264 -121.54273,69.40463 -121.80955,69.40443 -0.26682,-2.1e-4 -55.21844,-31.27626 -122.11471,-69.50235 z m 160.53592,-59.98022 c 9.62133,-1.53431 18.01427,-7.03098 21.41724,-14.0265 2.81906,-5.79515 3.27836,-11.71814 3.29388,-42.47738 l 0.0144,-28.54343 h -8.36304 -8.36304 v 3.7224 3.72239 l -2.36347,-2.36058 c -4.07474,-4.06977 -9.47751,-6.1211 -16.18067,-6.14347 -8.45093,-0.0282 -12.72025,1.65107 -18.24417,7.17611 -5.06317,5.06418 -7.24104,9.83603 -8.28548,18.15398 -1.37126,10.92078 1.34443,21.76229 7.03732,28.09415 3.84346,4.27485 8.23638,6.7248 14.30671,7.97892 7.3259,1.51351 15.24539,-0.68586 21.15773,-5.87584 l 2.81577,-2.47175 -0.46365,4.96794 c -0.89831,9.62539 -5.49847,14.17831 -15.0132,14.8591 -6.12517,0.43825 -11.59344,-1.06644 -16.73911,-4.60603 -2.08502,-1.43424 -3.87048,-2.50046 -3.96769,-2.36937 -0.0972,0.13109 -1.75592,2.80293 -3.68604,5.93742 l -3.50931,5.69906 2.11446,1.70978 c 7.75355,6.2696 20.32274,8.87815 33.02136,6.8531 z m -75.15478,-23.58995 c 2.007,-0.59602 5.01164,-2.07069 6.67698,-3.27706 l 3.0279,-2.19339 v 2.54984 2.54983 h 8.40083 8.40084 l -0.2196,-23.14319 -0.2196,-23.1432 -2.18922,-4.27817 c -4.27288,-8.35007 -11.316,-11.63725 -24.71796,-11.53641 -6.28536,0.0473 -9.00635,0.40893 -12.69862,1.68774 -5.32838,1.84548 -10.09652,4.46581 -12.04585,6.6198 -1.42706,1.57688 -1.24304,2.11134 3.41392,9.91543 l 1.37281,2.30055 3.67155,-2.47077 c 9.08319,-6.11254 20.41852,-6.08648 25.25181,0.058 1.27491,1.62078 1.57909,2.9763 1.57909,7.03697 v 5.02948 l -2.36347,-1.78029 c -5.75589,-4.33567 -17.3645,-5.75331 -25.2053,-3.07806 -8.29986,2.83187 -13.13992,10.8675 -12.16485,20.19649 0.24378,2.33239 1.08866,5.50583 1.8775,7.05209 1.96336,3.84852 7.57831,8.61621 11.61006,9.85818 4.43284,1.36553 12.0269,1.38668 16.54118,0.0461 z m 188.72191,-1.65469 c 2.53347,-1.24907 5.90613,-3.60466 7.49479,-5.23465 l 2.88848,-2.9636 -5.1879,-5.18789 -5.1879,-5.1879 -3.10721,2.65966 c -6.79076,5.81264 -14.89568,5.44722 -21.10365,-0.95146 -3.87228,-3.99123 -5.45685,-8.84355 -4.77315,-14.61637 1.05384,-8.898 7.04717,-14.50326 15.50737,-14.50326 4.55948,0 9.91882,2.09462 11.39105,4.45204 0.4691,0.75115 1.1293,1.36573 1.4671,1.36573 1.03872,0 10.6715,-8.88109 10.6715,-9.83874 0,-1.35903 -5.31441,-5.88122 -9.24597,-7.86767 -9.99096,-5.04803 -24.62114,-4.03436 -33.89858,2.34869 -4.47996,3.08229 -7.6227,6.90264 -10.21247,12.41439 -1.93374,4.11554 -2.27517,5.75968 -2.5171,12.12118 -0.30984,8.14713 0.82305,13.54203 3.97215,18.91556 3.57591,6.10183 11.92961,12.28912 18.99224,14.06689 1.50153,0.37795 6.22045,0.59522 10.48649,0.48281 6.99546,-0.18432 8.20835,-0.42718 12.36276,-2.47541 z m -303.1984,-27.54816 0.19015,-28.83208 11.27193,28.85991 11.27193,28.85991 4.32866,-0.20965 4.32867,-0.20963 11.30658,-28.90968 11.3066,-28.90968 0.19005,29.09149 0.19006,29.09148 h 9.08201 9.08202 v -41.81522 -41.81522 l -12.90818,0.0105 -12.90817,0.0105 -9.87844,25.44891 -9.87843,25.4489 -9.82988,-25.27759 -9.82988,-25.27756 -12.83483,-0.19858 -12.83484,-0.19859 v 41.832 41.832 h 9.08192 9.08192 z m 245.6273,-1.71122 v -30.54329 h -8.36304 -8.36304 v 30.54329 30.54329 h 8.36304 8.36304 z m -3.99228,-39.58979 c 6.93492,-2.8976 7.20372,-13.95607 0.42445,-17.46177 -8.58184,-4.43784 -18.10212,5.14098 -13.16218,13.24313 2.86945,4.70627 7.72326,6.31381 12.73773,4.21864 z m -70.7234,-42.07621 10.16609,-10.0347 -3.32421,-13.59998 c -7.48205,-30.6105 -9.29311,-58.13218 -5.84792,-88.86738 1.41349,-12.60994 2.54339,-18.71597 6.19024,-33.45217 l 2.9695,-11.99915 -11.59777,-11.63554 c -6.37876,-6.39955 -13.1324,-13.43542 -15.00808,-15.63526 l -3.41031,-3.99972 -3.72324,4.36333 c -2.04778,2.39983 -8.8484,9.47378 -15.1125,15.71988 l -11.38926,11.35657 1.35237,4.6423 c 12.52866,43.00754 12.65941,94.03443 0.35096,136.97129 l -1.6605,5.7925 12.02009,12.04902 c 6.61105,6.62696 13.32909,13.74217 14.92897,15.81157 l 2.90889,3.76254 5.0103,-5.60519 c 2.75566,-3.08286 9.58504,-10.12082 15.17638,-15.63991 z m -69.33257,-29.64302 c 1.45541,-6.78639 3.62709,-19.88563 4.57408,-27.59023 1.39858,-11.37865 1.15542,-45.17937 -0.41022,-57.02359 -1.16986,-8.85011 -4.50228,-27.24612 -5.03147,-27.77532 -0.1334,-0.13341 -2.84305,1.49341 -6.02143,3.61515 -7.59394,5.06937 -18.21393,11.26677 -25.27021,14.74671 -4.81233,2.37329 -5.60816,3.01973 -5.2397,4.25619 0.23895,0.80184 1.2541,5.05764 2.25588,9.45732 2.25239,9.89221 3.17497,31.01712 1.81028,41.45161 -0.73809,5.64343 -2.89039,16.17075 -4.12025,20.15287 -0.30111,0.97497 1.04876,1.96496 6.22177,4.563 7.36004,3.69644 20.27053,11.28954 25.83557,15.1948 1.99986,1.4034 3.85442,2.56967 4.12126,2.5917 0.26684,0.022 0.84033,-1.61606 1.27444,-3.64021 z m 105.72018,0.16286 c 7.15454,-4.80303 16.80154,-10.42764 24.61764,-14.35312 5.10806,-2.56542 6.43453,-3.54337 6.12952,-4.51903 -6.12955,-19.60767 -6.57949,-45.83079 -1.15014,-67.03245 0.76451,-2.98539 1.32368,-5.48321 1.24262,-5.55072 -0.0811,-0.0675 -2.60176,-1.34843 -5.60155,-2.8465 -7.6222,-3.80648 -15.98161,-8.63931 -23.50441,-13.58863 -3.52809,-2.32116 -6.70617,-4.2203 -7.06237,-4.2203 -1.18057,0 -3.87074,13.55476 -5.91752,29.81607 -1.26911,10.08289 -1.28333,45.08206 -0.0225,55.26881 1.65252,13.35085 4.8559,30.54329 5.69099,30.54329 0.186,0 2.69595,-1.58284 5.57768,-3.51742 z"
       id="path1149"
       transform="matrix(0.75000002,0,0,-0.75000002,0,466.87601)" /></g></svg>
